{"glyphs":{"0":{"ha":821,"x_min":32,"x_max":807,"o":"m 572 1033 l 572 1033 q 789 717 729 953 q 805 628 803 665 q 806 544 807 590 q 806 543 806 544 q 806 529 806 536 l 806 526 q 736 242 794 358 q 586 58 676 121 q 486 8 533 22 q 399 -6 439 -6 q 313 8 349 -6 q 61 299 142 69 q 39 389 44 347 q 33 526 32 439 q 51 685 35 614 q 138 881 75 782 q 301 1036 200 981 l 303 1038 q 571 1033 436 1096 l 572 1033 m 775 546 l 775 546 q 775 626 778 590 q 760 710 772 661 q 558 1007 703 932 l 558 1007 q 315 1010 436 1063 l 315 1010 q 161 863 219 957 q 81 678 103 769 q 64 525 65 611 q 68 393 63 439 q 89 308 74 354 q 321 36 165 93 q 397 24 358 24 q 569 83 483 24 q 710 254 653 142 q 775 528 765 367 l 775 529 q 775 544 775 538 q 775 546 775 544 m 488 669 l 488 669 q 529 586 514 643 q 528 490 539 540 q 490 406 517 440 q 429 372 463 372 q 369 410 404 372 q 332 529 335 447 q 368 654 335 611 q 431 692 397 690 q 463 685 449 693 q 488 669 478 678 m 467 425 l 467 425 q 499 497 489 454 q 500 579 508 539 q 467 647 488 628 q 451 658 460 653 q 432 663 443 663 q 392 635 413 661 q 361 529 364 601 q 390 432 364 463 q 429 401 415 401 q 467 425 449 401 m 544 981 l 544 981 q 731 701 678 911 q 745 624 743 657 q 746 546 747 590 q 746 531 746 539 q 683 268 736 374 q 553 108 629 161 q 292 82 408 15 q 118 318 176 149 q 99 397 103 361 q 94 526 92 443 q 110 669 96 608 q 189 851 133 764 q 329 983 244 938 q 544 981 433 1031 m 429 342 l 429 342 q 510 383 478 342 q 556 481 543 424 q 558 593 569 539 q 507 690 540 658 q 344 672 428 763 q 301 531 304 622 q 323 425 301 467 q 374 363 344 383 q 429 342 404 342 z "},"1":{"ha":821,"x_min":43,"x_max":718,"o":"m 718 -10 l 308 -10 q 290 690 308 317 l 251 689 q 140 686 172 686 q 100 690 119 686 q 65 709 81 694 q 46 739 49 724 q 43 768 43 754 q 51 790 47 783 q 346 1074 74 833 q 665 1064 632 1074 q 697 1050 671 1063 q 706 1029 701 1039 q 713 981 710 1019 q 718 -10 717 879 m 688 19 l 688 574 l 686 715 q 679 1014 686 985 l 674 1029 l 663 1036 q 357 1046 650 1046 q 347 1038 353 1042 q 210 913 342 1033 q 72 764 86 797 q 133 715 72 715 l 167 715 l 319 719 q 338 19 338 304 l 688 19 m 658 47 l 368 47 q 347 749 368 374 l 167 743 q 124 744 138 743 q 106 749 110 746 q 103 760 103 753 q 369 1017 118 799 q 650 1008 628 1017 q 658 47 657 975 z "},"2":{"ha":821,"x_min":19,"x_max":806,"o":"m 361 -18 q 96 -11 129 -18 q 53 14 75 -8 q 48 27 51 21 q 44 68 44 33 q 54 301 44 117 l 71 318 q 206 447 107 342 q 357 754 357 626 q 333 761 350 761 q 158 704 265 761 q 104 689 129 689 q 58 700 81 689 q 19 758 19 722 q 43 814 19 778 q 247 1019 110 932 q 439 1075 347 1075 q 578 1042 511 1075 q 702 915 658 999 q 746 719 746 832 q 593 336 746 508 q 743 329 710 336 q 797 286 785 321 q 806 194 806 261 q 796 38 806 74 l 782 8 q 726 -11 753 -8 q 361 -18 667 -15 m 361 10 q 753 24 739 10 q 776 161 772 38 q 764 286 776 274 q 690 307 744 307 q 526 308 660 308 l 540 322 q 715 719 715 497 q 564 1017 715 928 q 439 1046 504 1046 q 263 996 354 1046 q 68 800 136 914 q 50 758 50 767 q 72 724 50 738 q 104 717 88 717 q 143 728 122 717 q 332 789 260 789 q 361 787 354 789 q 382 771 368 785 q 388 735 388 763 q 228 431 382 610 q 96 301 126 318 q 94 300 96 300 l 83 290 q 81 233 83 267 q 75 82 75 119 q 79 29 75 39 q 103 17 90 18 q 361 10 135 10 m 276 39 q 106 44 115 39 q 104 65 104 49 q 114 279 104 110 q 251 413 133 286 q 417 733 411 600 q 413 774 417 760 q 392 800 408 788 q 343 817 371 817 q 128 751 250 817 q 103 744 114 744 q 79 758 79 744 q 105 801 79 763 q 175 889 131 840 q 279 972 219 938 q 439 1019 363 1019 q 510 1012 456 1019 q 626 928 565 1004 q 686 719 686 853 q 519 342 686 510 l 454 281 l 649 281 q 740 270 733 281 q 747 199 747 260 q 736 46 747 71 q 519 40 729 43 l 276 39 z "},"3":{"ha":821,"x_min":83,"x_max":757,"o":"m 83 -39 l 92 258 l 149 261 q 289 290 247 261 q 313 318 310 306 q 310 329 313 324 q 266 365 296 353 q 210 378 236 376 l 196 378 q 115 403 144 378 q 86 472 86 429 l 88 482 q 108 540 89 517 q 173 589 128 563 q 256 649 218 615 q 301 714 297 686 q 178 729 267 729 l 85 729 l 85 1065 l 243 1072 q 704 906 575 1072 l 706 903 q 747 767 747 838 q 724 660 747 715 q 583 507 672 568 q 705 419 653 475 q 757 285 757 363 q 694 136 757 200 q 545 33 632 72 q 381 -18 458 -7 q 207 -32 293 -31 l 83 -39 m 114 -8 l 147 -6 q 375 10 318 3 q 600 97 496 31 q 728 285 728 182 q 696 383 728 340 q 617 456 664 426 q 519 501 569 486 q 618 572 567 526 q 718 768 718 661 q 681 889 718 829 q 243 1043 561 1043 l 115 1039 l 115 758 l 174 758 q 318 739 276 758 q 332 711 331 731 q 275 626 325 669 q 189 564 231 588 q 133 522 147 540 q 117 482 118 504 q 199 406 117 406 l 210 406 q 275 392 240 406 q 342 319 342 364 q 329 288 342 301 q 233 239 294 247 q 121 231 211 235 l 114 -8 m 146 22 l 150 203 q 325 243 265 203 q 372 318 372 278 q 351 373 372 344 q 287 418 329 401 q 208 435 244 435 l 197 435 q 146 472 146 435 l 151 497 q 204 539 158 513 q 361 710 349 624 q 183 789 361 789 l 146 788 l 146 1011 l 243 1014 q 656 872 547 1014 q 688 767 688 819 q 599 594 688 678 q 502 526 551 551 q 453 496 453 500 q 508 475 453 490 q 639 403 581 453 q 697 285 697 354 q 643 168 697 219 q 514 83 589 117 q 371 39 439 49 q 204 25 289 28 q 146 22 176 25 z "},"4":{"ha":821,"x_min":-19,"x_max":913,"o":"m 367 494 l 424 579 l 418 497 q 367 494 393 497 m 704 -64 l 492 -58 q 433 -54 446 -58 q 382 26 382 -40 q 381 174 381 49 q 76 188 218 188 l 60 185 q 3 208 25 185 q -19 274 -19 238 q -12 382 -19 313 q -11 383 -12 383 l -7 444 l 397 1076 l 453 1075 q 660 1078 589 1078 l 719 1076 l 718 1022 l 719 1007 l 713 483 q 790 489 764 489 q 854 481 817 489 q 910 429 892 474 q 913 410 913 419 q 853 304 910 361 q 710 192 775 226 l 704 -64 m 675 -33 l 681 210 q 685 213 682 210 q 832 325 751 246 q 882 411 882 375 q 794 458 875 458 q 682 450 743 458 q 689 1047 689 971 q 606 1049 660 1049 q 414 1046 510 1046 l 22 435 q 13 288 13 306 l 13 275 q 56 214 13 217 q 72 217 64 214 q 411 203 189 217 q 410 86 410 150 q 417 -3 410 11 q 433 -24 424 -18 q 675 -33 458 -31 m 646 -3 q 447 4 482 -3 q 440 86 440 13 q 443 231 440 210 q 86 247 154 247 q 56 244 71 247 q 42 276 42 244 q 47 378 42 307 q 51 425 50 399 l 429 1015 l 454 1015 q 658 1018 510 1018 l 660 1010 l 658 847 q 651 417 651 474 l 782 428 q 822 426 797 428 q 853 411 846 425 q 810 346 853 385 q 669 238 735 271 l 650 226 l 646 -3 m 308 458 q 446 468 344 465 q 460 682 458 633 q 308 458 454 682 z "},"5":{"ha":821,"x_min":57,"x_max":778,"o":"m 232 -3 q 125 13 186 -3 q 57 94 57 44 q 79 147 57 128 q 135 167 101 167 q 158 165 147 167 q 282 242 217 165 q 356 408 353 324 q 342 465 356 442 q 318 496 328 489 q 236 504 283 503 q 136 517 157 510 q 96 546 121 521 q 79 917 79 646 q 86 1021 79 997 q 100 1053 89 1031 l 117 1061 q 251 1075 135 1075 q 586 1068 364 1075 l 744 1065 l 740 729 l 628 736 q 764 565 728 674 q 778 469 778 518 q 663 196 778 319 q 447 46 572 100 q 232 -3 332 -3 m 228 28 q 436 74 324 28 q 640 217 556 125 q 747 468 747 338 q 735 557 747 513 q 476 761 681 722 l 475 763 l 458 765 l 458 779 l 711 761 l 714 1035 l 261 1044 q 122 1031 151 1044 l 118 1021 q 108 893 108 1011 l 110 792 q 124 561 114 621 q 142 547 136 549 q 225 536 154 542 q 332 522 308 532 q 367 481 350 511 q 385 413 385 451 q 307 224 385 314 q 154 135 229 135 l 136 136 q 86 97 86 136 q 138 42 86 63 q 228 28 181 28 m 228 58 q 147 69 185 58 q 117 96 117 83 q 131 106 117 106 l 160 104 q 328 203 244 104 q 415 407 413 301 q 393 496 415 457 q 344 549 371 535 q 253 564 318 564 q 228 567 239 564 q 151 576 154 572 q 146 651 149 589 q 139 932 139 806 q 144 1007 139 994 q 275 1013 158 1013 q 683 1004 401 1013 l 682 794 l 429 813 l 429 774 q 430 753 429 763 q 439 739 431 743 q 468 733 447 735 q 669 619 608 703 q 719 468 719 551 q 711 390 719 451 q 619 238 703 329 q 424 103 532 147 q 228 58 317 58 z "},"6":{"ha":821,"x_min":67,"x_max":776,"o":"m 438 274 q 430 278 435 275 q 422 287 425 281 q 419 299 419 293 q 425 314 421 310 q 458 333 438 333 q 488 311 488 333 q 474 293 488 301 q 438 274 449 276 m 442 -7 q 258 35 346 -7 q 67 371 67 143 q 69 426 67 399 q 197 758 96 610 q 546 1046 332 954 q 646 1068 596 1068 q 717 1040 694 1068 q 735 994 735 1019 q 676 908 735 957 q 500 711 611 861 q 443 618 463 657 q 475 621 458 621 q 636 560 553 621 q 776 304 776 458 l 775 274 q 769 244 772 269 q 532 4 746 69 q 442 -7 490 -7 m 439 24 q 524 33 483 24 q 740 249 708 86 q 746 304 746 276 q 618 536 746 446 q 469 590 543 590 q 392 571 424 590 q 475 729 406 624 q 656 931 590 882 q 704 997 704 971 q 676 1032 704 1024 q 647 1038 663 1038 q 556 1017 603 1038 q 222 742 346 925 q 97 422 124 597 l 96 379 q 272 61 96 161 q 439 24 350 24 m 442 54 q 286 88 353 54 q 125 372 125 178 q 128 418 125 394 q 246 725 153 588 q 460 935 329 849 q 644 1007 579 1007 q 674 996 674 1007 q 635 951 674 985 q 451 747 568 904 q 346 511 354 601 l 357 518 q 476 560 411 560 q 601 511 536 560 q 715 306 715 432 q 517 63 711 118 q 442 54 482 54 m 435 243 q 496 271 458 243 q 517 310 517 286 q 457 363 517 363 q 404 336 425 363 q 390 299 390 317 q 396 274 390 286 q 435 243 415 246 z "},"7":{"ha":821,"x_min":72,"x_max":764,"o":"m 225 -21 q 157 26 178 -21 q 153 43 153 35 l 183 43 l 183 39 q 225 8 193 8 q 339 75 267 8 q 646 551 513 239 q 732 911 728 754 l 733 942 q 725 995 733 969 q 663 1029 717 1021 q 529 1033 638 1033 l 357 1032 q 103 1029 179 1029 q 118 735 103 750 q 144 720 126 724 q 235 715 161 717 q 369 711 326 711 q 350 567 369 678 q 210 96 281 167 q 183 44 183 76 l 214 43 l 153 44 l 153 47 q 189 117 153 85 q 269 325 226 144 q 339 683 319 542 q 135 693 171 686 q 83 744 93 701 q 76 869 79 765 q 74 954 75 915 q 72 1057 72 993 q 583 1063 282 1063 q 726 1037 689 1063 q 764 950 764 1011 q 674 542 764 763 q 360 56 542 222 q 225 -21 279 -21 m 225 36 q 214 43 215 36 q 231 76 214 60 q 381 564 304 138 q 400 739 400 676 q 267 742 361 739 q 143 750 153 744 q 132 1001 140 760 l 615 1006 q 700 981 690 1003 q 704 949 704 969 l 703 926 q 618 563 703 761 q 318 96 486 254 q 225 36 253 36 z "},"8":{"ha":821,"x_min":67,"x_max":761,"o":"m 388 -21 q 290 -7 333 -21 q 78 208 125 57 q 67 288 67 249 q 150 496 67 396 q 193 535 174 521 q 94 758 94 642 q 121 881 94 818 q 244 1018 163 967 q 426 1069 326 1069 q 591 1028 514 1069 q 715 914 668 986 q 761 758 761 838 q 719 606 761 683 q 633 510 681 542 q 732 288 732 419 q 554 11 732 104 l 550 10 q 388 -21 472 -21 m 388 7 q 540 36 467 7 q 679 179 639 88 q 703 290 703 233 q 690 373 703 332 q 654 444 678 414 q 589 513 631 474 q 693 619 646 546 q 732 757 732 689 q 690 897 732 829 q 577 1003 647 965 q 426 1040 507 1040 q 260 994 335 1040 q 149 869 186 949 q 125 758 125 813 q 238 532 125 644 q 174 479 215 518 l 171 478 q 97 290 97 388 q 107 217 97 254 q 301 19 150 78 q 388 7 338 7 m 418 688 q 378 704 396 688 q 363 742 363 724 q 368 763 363 753 q 424 790 386 790 q 465 776 450 790 q 479 743 479 761 q 461 706 479 724 q 418 688 443 688 m 418 715 q 440 725 431 715 q 450 743 450 735 q 424 763 450 763 q 393 740 393 763 q 401 724 393 733 q 418 715 408 715 m 397 231 q 349 260 371 231 q 343 269 343 267 l 344 275 q 367 336 347 319 q 404 357 388 357 q 431 351 417 357 q 453 329 444 344 q 461 300 461 314 q 449 263 461 278 q 397 231 426 231 m 397 258 q 424 278 413 258 q 431 299 431 288 q 426 316 431 308 q 417 326 422 324 q 407 329 411 329 q 388 317 400 329 q 374 275 376 306 q 382 268 376 274 q 397 258 388 263 m 388 35 q 311 44 343 35 q 138 217 176 99 q 126 288 126 251 q 194 460 126 372 q 251 506 231 493 q 278 523 271 519 q 286 528 285 526 l 244 565 q 154 758 154 660 q 157 815 154 763 q 236 940 160 868 q 426 1013 313 1013 q 599 956 525 1013 q 694 813 672 899 q 701 757 701 785 q 542 518 701 608 l 624 436 q 672 289 672 379 q 526 61 672 135 q 388 35 461 35 m 397 203 q 474 247 444 203 q 490 299 490 272 q 478 343 490 321 q 445 376 467 365 q 406 386 424 386 q 345 357 374 386 q 314 278 317 328 l 313 271 q 319 249 313 257 q 397 203 354 203 m 418 658 q 483 685 456 658 q 510 743 510 713 q 487 795 510 771 q 424 819 464 819 q 343 776 367 819 q 333 742 333 760 q 354 686 333 715 q 418 658 383 658 z "},"9":{"ha":821,"x_min":61,"x_max":749,"o":"m 414 740 q 381 768 385 740 q 404 803 381 794 l 419 808 l 419 807 q 444 767 444 789 q 435 749 443 757 q 414 740 426 740 m 413 771 l 411 774 l 411 772 q 413 771 411 771 m 138 -10 q 61 49 88 -10 q 78 109 61 86 q 129 168 96 132 q 360 475 244 286 q 186 546 256 486 q 90 750 90 628 q 301 1047 90 950 q 440 1072 375 1072 q 485 1072 447 1072 q 567 1054 522 1071 q 711 907 663 1018 q 749 713 749 815 q 689 439 749 585 q 250 25 568 165 q 138 -10 169 -10 m 138 21 q 238 53 160 21 q 661 451 547 189 q 719 713 719 590 q 683 894 719 808 q 556 1026 640 993 q 453 1043 515 1042 q 315 1019 389 1043 l 313 1019 q 154 879 197 965 q 121 750 121 814 q 204 569 121 643 q 410 503 286 503 q 151 147 325 332 q 107 96 121 114 q 90 54 96 83 q 138 21 104 21 m 136 51 q 121 60 125 51 q 174 126 122 76 q 400 426 307 268 q 451 529 450 510 q 443 539 451 539 q 439 538 440 539 q 385 533 421 533 q 219 596 278 540 q 151 756 151 661 q 190 882 151 817 q 324 990 229 947 q 458 1011 399 1011 q 657 882 600 1011 q 690 719 690 804 q 684 630 690 697 q 633 464 678 563 q 226 82 525 210 q 136 51 158 51 m 413 710 q 455 727 436 710 q 474 769 474 744 q 464 803 474 785 q 421 838 442 838 q 393 832 406 838 q 350 772 350 815 q 363 732 350 754 q 413 710 376 710 z "},"\u0000":{"ha":0,"x_min":0,"x_max":0,"o":""},"\u001d":{"ha":0,"x_min":0,"x_max":0,"o":""}," ":{"ha":556,"x_min":0,"x_max":0,"o":""}," ":{"ha":556,"x_min":0,"x_max":0,"o":""},"!":{"ha":317,"x_min":22,"x_max":286,"o":"m 135 103 q 181 126 157 103 q 204 172 204 149 q 181 219 204 196 q 135 243 157 243 q 88 219 111 243 q 64 172 64 196 q 71 149 64 163 q 88 125 78 136 q 110 109 97 115 q 135 103 124 103 m 143 281 q 182 288 167 281 q 204 404 188 296 q 240 659 221 513 q 272 932 258 806 q 286 1092 286 1058 l 285 1101 q 224 1106 275 1106 q 118 1107 172 1107 l 22 1107 q 34 974 24 1093 q 58 699 44 854 q 83 424 71 544 q 97 292 94 304 q 113 283 100 286 q 143 281 126 281 z "},"\"":{"ha":331,"x_min":-46,"x_max":396,"o":"m 17 907 q 41 931 24 907 q 76 988 58 956 q 107 1051 94 1021 q 119 1093 119 1081 l 119 1097 q 110 1106 117 1103 q 86 1111 103 1110 q 38 1113 69 1113 q -28 1108 -10 1113 q -46 1085 -46 1103 q -39 1049 -46 1071 l -14 960 q 17 907 0 907 m 290 915 q 315 938 297 915 q 351 992 332 961 q 383 1052 369 1024 q 396 1092 396 1081 l 396 1094 q 388 1106 394 1101 q 363 1111 381 1110 q 308 1113 344 1113 q 249 1110 274 1113 q 221 1104 224 1107 l 221 1101 q 228 1067 221 1093 q 246 1006 235 1040 q 290 915 274 915 z "},"#":{"ha":696,"x_min":-11,"x_max":682,"o":"m 165 113 q 179 172 174 144 q 196 250 185 199 q 218 360 204 290 q 272 363 254 361 q 298 363 286 363 q 329 364 310 364 q 353 360 346 364 q 361 342 361 356 q 349 278 361 324 q 344 257 347 268 q 326 160 326 188 q 338 135 326 140 q 374 126 349 129 q 407 125 392 125 q 429 128 424 125 q 444 178 433 135 q 467 272 456 221 q 485 351 479 322 q 488 364 486 360 l 667 369 l 672 476 l 596 476 q 544 477 561 476 q 520 481 526 478 q 514 488 514 483 l 515 497 q 528 554 525 535 q 537 583 531 576 q 572 589 543 589 q 676 600 635 589 q 682 601 679 601 l 676 696 q 646 697 660 697 q 579 702 597 700 q 561 713 561 704 l 563 718 q 579 787 569 743 q 596 872 589 831 q 603 925 603 913 l 603 929 q 576 944 599 938 q 533 951 553 951 q 514 949 522 951 q 488 897 501 946 q 451 736 475 847 q 444 701 449 719 l 338 701 q 300 706 311 701 q 289 728 289 710 q 301 806 289 751 q 307 829 304 817 q 311 851 310 840 q 324 929 324 906 q 315 949 324 946 q 286 953 307 953 l 264 953 q 200 942 204 953 q 191 901 197 935 q 176 823 185 867 q 163 744 168 779 q 154 701 157 713 l 3 696 l -3 589 l 39 589 q 79 588 58 589 q 115 586 100 588 q 129 581 129 585 q 125 555 129 576 q 117 510 121 533 q 110 474 113 486 q 108 468 108 469 l -7 463 l -11 394 q -5 368 -11 375 q 19 361 1 361 l 64 364 q 82 344 83 364 q 72 278 82 325 q 44 113 60 222 l 165 113 m 290 479 q 256 480 271 479 q 242 485 242 481 q 247 517 242 492 q 257 565 251 542 q 261 589 260 582 q 299 589 282 589 q 329 589 315 589 q 354 589 343 589 q 374 589 365 589 q 389 588 382 589 q 401 588 396 588 q 408 588 406 588 q 413 588 411 588 q 417 587 415 588 q 418 586 418 586 q 418 586 418 586 l 394 482 q 381 482 389 482 q 338 480 363 481 q 290 479 314 479 z "},"$":{"ha":574,"x_min":-25,"x_max":549,"o":"m 271 -1 l 326 0 l 319 114 q 324 115 322 115 q 461 183 400 138 q 529 338 522 228 l 529 344 q 367 546 529 481 q 283 631 283 582 q 317 692 283 660 q 415 746 361 732 q 522 764 468 760 q 542 767 532 765 q 543 792 542 775 q 547 849 544 817 q 549 904 549 882 q 547 928 549 922 q 527 936 544 933 q 485 939 510 939 q 426 935 457 939 q 372 925 396 932 q 335 918 349 918 q 315 932 315 918 l 319 951 q 314 976 319 961 q 306 990 311 986 q 288 996 300 994 q 249 997 275 997 q 207 996 226 997 q 182 992 188 994 q 175 956 175 985 q 182 861 175 918 q 183 838 182 850 q 109 742 136 785 q 82 644 82 699 q 83 624 82 633 q 115 550 90 592 q 169 481 140 508 q 242 428 199 454 q 293 394 271 411 q 322 363 315 376 q 325 343 325 353 q 312 298 325 319 q 278 268 299 276 q 243 264 263 264 q 92 303 179 264 q 47 324 67 315 q 25 332 28 332 q 15 324 21 332 q 6 306 10 317 q -16 242 -7 271 q -25 204 -25 214 q 19 173 -25 193 q 122 138 64 153 l 181 124 q 182 89 182 104 q 185 33 183 50 q 194 10 188 15 q 214 3 200 6 q 271 -1 240 -1 z "},"%":{"ha":586,"x_min":10,"x_max":575,"o":"m 146 172 q 472 785 383 619 q 526 884 506 846 q 556 943 546 922 q 571 972 567 964 q 575 983 575 981 l 574 986 q 550 992 569 990 q 505 995 531 994 q 460 996 479 996 l 439 996 q 406 933 435 988 q 260 666 350 833 q 93 353 169 499 q 17 194 17 208 q 20 180 17 185 q 39 174 24 175 q 89 172 54 172 l 146 172 m 425 192 q 523 230 488 192 q 558 315 558 268 q 540 378 558 347 q 485 428 522 408 q 435 440 460 440 l 417 439 q 307 308 307 421 q 313 265 307 279 q 343 228 319 250 q 380 198 365 204 q 425 192 394 192 m 431 224 q 383 238 407 224 q 338 313 338 271 q 374 383 338 350 q 428 406 400 406 q 476 392 450 406 q 521 319 521 363 q 496 257 521 288 q 431 224 465 224 m 140 715 q 260 783 210 715 q 279 849 279 814 q 260 915 279 883 q 208 965 242 946 q 144 985 175 985 q 82 967 115 985 q 28 916 46 947 q 10 850 10 885 q 26 785 10 817 q 76 733 43 754 q 140 715 107 715 m 146 753 q 73 781 100 753 q 46 856 46 808 q 77 917 46 886 q 139 949 108 949 q 215 917 186 949 q 243 849 243 886 q 214 779 243 813 q 185 758 199 764 q 146 753 171 753 z "},"&":{"ha":833,"x_min":-4,"x_max":849,"o":"m 689 -24 q 707 -13 693 -24 q 735 11 721 -3 q 761 38 750 25 q 772 54 772 50 q 758 78 772 60 q 724 119 743 97 q 686 165 703 143 q 669 193 669 186 q 676 210 669 200 q 693 229 683 219 q 740 279 710 244 q 799 349 769 314 q 846 406 829 385 q 849 408 847 407 q 836 419 843 414 q 794 453 815 438 q 754 469 774 469 q 728 454 739 469 q 678 392 710 429 q 617 324 646 354 q 582 294 588 294 q 553 321 576 296 q 501 380 529 346 q 450 441 472 414 q 422 475 428 468 q 538 572 489 525 q 600 647 586 618 q 609 686 606 661 q 613 736 613 711 q 468 971 613 885 q 363 992 422 992 q 235 965 293 992 q 99 750 99 894 q 163 589 99 649 q 183 567 175 578 q 192 554 192 557 q 183 546 192 553 q 160 532 174 539 q 48 419 100 500 q -4 274 -4 338 q 43 127 -4 199 q 163 21 90 56 q 216 4 188 8 q 304 0 244 0 q 397 4 369 0 q 456 25 424 8 q 528 63 500 46 q 578 97 556 81 l 629 36 q 667 -6 650 11 q 689 -24 685 -24 m 285 146 q 213 163 242 146 q 158 261 158 203 l 161 283 q 192 343 167 311 q 249 399 218 375 q 300 422 281 422 q 315 414 310 422 q 343 378 319 407 q 399 310 367 349 q 448 250 432 272 q 464 215 464 228 q 449 194 464 203 q 404 172 433 185 q 285 146 340 146 m 343 585 q 275 624 310 585 q 233 694 233 661 q 257 765 233 722 q 287 815 274 799 q 318 840 300 832 q 351 851 338 851 q 385 840 364 851 q 437 792 413 826 q 468 719 461 757 l 469 710 q 450 656 469 685 q 399 606 431 626 q 343 585 368 585 z "},"'":{"ha":224,"x_min":-28,"x_max":246,"o":"m 3 697 q 46 714 15 697 q 101 756 74 728 q 168 839 128 783 q 246 985 246 950 q 242 996 246 993 q 210 1002 235 1000 q 157 1004 185 1004 q 114 1002 133 1004 q 89 997 94 1000 q 77 974 85 994 q 63 924 69 953 q 28 819 50 868 q -12 753 7 771 q -28 728 -28 742 q -17 707 -28 718 q 3 697 -8 697 z "},"(":{"ha":318,"x_min":35,"x_max":297,"o":"m 168 -4 q 236 1 192 -4 q 273 9 257 4 q 290 19 289 14 l 290 24 q 284 55 290 32 q 268 106 278 78 q 218 284 231 199 q 206 533 206 369 q 219 800 206 701 q 272 1008 232 899 q 297 1103 297 1081 q 296 1110 297 1108 q 275 1115 292 1114 q 238 1115 258 1115 q 180 1115 208 1115 q 140 1113 151 1114 l 110 1051 q 52 858 69 968 q 35 632 35 749 q 65 274 35 444 q 126 21 94 104 q 139 1 131 7 q 168 -4 147 -4 z "},")":{"ha":340,"x_min":7,"x_max":274,"o":"m 94 4 q 167 8 133 4 q 208 17 201 11 q 247 163 229 47 q 272 431 265 279 q 274 526 274 478 q 254 839 274 690 q 201 1068 235 988 l 181 1117 l 99 1117 q 10 1104 7 1117 l 10 1099 q 19 1039 10 1083 q 42 938 28 994 q 92 714 81 788 q 103 522 103 640 l 103 472 q 88 238 103 319 q 33 81 74 157 q 17 42 24 60 q 10 18 10 25 l 11 14 q 40 7 15 10 q 94 4 64 4 z "},"*":{"ha":318,"x_min":-14,"x_max":328,"o":"m 197 788 q 239 803 210 788 q 286 831 268 818 q 294 835 292 833 q 280 847 292 836 q 253 870 268 857 q 226 894 238 883 q 215 907 215 906 q 228 903 218 907 q 251 896 238 900 q 294 884 274 890 q 319 878 314 878 q 326 896 324 878 q 328 939 328 914 q 325 985 328 972 q 310 999 322 999 q 263 986 296 999 q 222 974 229 974 q 219 975 219 974 q 271 1024 219 982 q 294 1044 282 1033 q 279 1054 289 1047 q 240 1080 261 1067 q 210 1093 218 1093 q 196 1076 206 1093 q 175 1035 186 1060 q 149 989 156 989 l 147 990 q 135 1029 140 1013 q 123 1063 128 1051 q 108 1074 118 1074 q 78 1061 99 1074 q 43 1041 54 1049 q 32 1028 32 1033 q 51 1001 32 1018 l 78 974 q 69 975 76 974 q 44 981 58 978 q 16 987 29 985 q -3 989 3 989 l -4 989 q -7 974 -6 988 q -11 943 -8 961 l -14 913 q 11 881 -14 879 q 63 893 28 881 l 67 894 l 67 893 q 59 883 67 890 q 41 865 51 875 q 22 849 31 856 q 15 842 18 844 l 47 814 q 72 796 60 803 q 89 789 83 789 l 90 789 q 112 816 100 793 q 133 865 124 839 q 147 901 143 890 q 154 881 150 894 q 165 843 158 864 q 179 806 172 822 q 193 788 186 790 l 197 788 z "},"+":{"ha":424,"x_min":-99,"x_max":447,"o":"m 174 244 q 194 250 181 244 q 203 263 200 251 q 208 300 207 274 q 208 376 208 326 l 208 506 l 447 511 l 447 567 l 210 572 l 204 800 l 149 800 l 149 576 l -79 572 q -94 569 -90 572 q -99 556 -99 567 q -96 529 -99 546 q -94 511 -96 521 l 153 506 l 153 450 q 153 367 153 413 q 154 289 153 322 q 158 251 156 256 q 174 244 164 244 z "},",":{"ha":89,"x_min":-144,"x_max":143,"o":"m -119 -60 q -74 -53 -101 -60 q -21 -37 -46 -47 q 95 49 47 -6 q 143 149 143 103 q 140 166 143 161 q 120 173 136 171 q 68 176 104 175 l 36 176 q 1 176 15 176 q -17 174 -14 175 q -22 154 -22 168 l -19 133 l -18 113 q -28 49 -18 82 q -53 1 -37 17 q -76 -13 -61 -6 q -106 -26 -90 -21 q -132 -38 -121 -32 q -144 -49 -143 -44 l -144 -50 q -119 -60 -144 -60 z "},"-":{"ha":269,"x_min":-108,"x_max":321,"o":"m 115 499 q 226 501 185 500 q 287 503 267 501 q 313 510 307 506 q 319 519 319 514 l 321 526 q 319 536 321 532 q 315 543 318 540 q 253 550 310 546 q 115 557 197 554 q -24 561 21 561 q -74 558 -61 561 q -93 549 -87 556 q -108 526 -108 536 q -97 508 -108 518 q 50 499 -100 499 l 115 499 z "},"­":{"ha":269,"x_min":-108,"x_max":321,"o":"m 115 499 q 226 501 185 500 q 287 503 267 501 q 313 510 307 506 q 319 519 319 514 l 321 526 q 319 536 321 532 q 315 543 318 540 q 253 550 310 546 q 115 557 197 554 q -24 561 21 561 q -74 558 -61 561 q -93 549 -87 556 q -108 526 -108 536 q -97 508 -108 518 q 50 499 -100 499 l 115 499 z "},".":{"ha":108,"x_min":-62,"x_max":125,"o":"m 26 61 q 63 65 44 61 q 92 78 81 69 q 125 150 125 111 q 99 219 125 188 q 33 251 74 251 l 19 250 q -41 215 -19 243 q -62 151 -62 186 q -51 106 -62 128 q -17 69 -40 83 q 26 61 1 61 z "},"/":{"ha":385,"x_min":-31,"x_max":389,"o":"m 132 29 q 174 200 144 82 q 240 464 204 318 q 343 865 297 681 q 389 1069 389 1049 l 389 1071 q 361 1074 383 1074 q 297 1072 333 1074 q 238 1067 261 1069 q 222 1065 226 1065 q 172 867 199 972 q 97 571 146 763 q 75 483 88 531 q 53 397 63 438 q 1 197 19 269 q -24 92 -17 124 q -31 50 -31 60 q -29 42 -31 44 q -25 39 -28 40 q -22 38 -24 39 q 7 32 -15 33 q 56 30 29 31 q 104 29 83 29 l 132 29 z "},":":{"ha":197,"x_min":-12,"x_max":179,"o":"m 79 296 q 149 329 117 296 q 175 389 175 358 q 143 456 175 422 q 85 488 115 488 q 50 479 69 488 q 3 442 19 467 q -12 388 -12 417 q 0 342 -12 364 q 38 306 13 319 q 79 296 58 296 m 86 572 q 149 599 118 572 q 173 627 167 614 q 179 665 179 640 q 173 703 179 689 q 149 732 167 717 q 82 758 117 758 q 1 706 32 758 q -8 663 -8 683 q 26 596 -8 625 q 86 572 56 572 z "},";":{"ha":249,"x_min":-28,"x_max":226,"o":"m -10 236 q 78 268 13 236 q 174 336 144 300 q 210 399 194 361 q 225 458 225 438 q 222 471 225 467 q 203 475 218 474 q 168 476 189 476 q 121 475 144 476 q 88 474 97 474 q 45 339 68 394 q -12 263 22 283 q -28 247 -28 254 l -26 244 q -10 236 -22 236 m 129 581 q 196 608 163 581 q 221 638 215 625 q 226 679 226 651 q 221 720 226 707 q 196 750 215 733 q 129 776 163 776 q 63 750 92 776 q 35 679 35 724 l 35 678 q 64 608 36 635 q 129 581 92 581 m 133 611 q 97 624 119 611 q 64 678 64 646 q 100 735 64 711 q 131 743 117 743 q 176 723 158 743 q 194 678 194 703 q 168 628 194 651 q 133 611 150 611 z "},";":{"ha":249,"x_min":-28,"x_max":226,"o":"m -10 236 q 78 268 13 236 q 174 336 144 300 q 210 399 194 361 q 225 458 225 438 q 222 471 225 467 q 203 475 218 474 q 168 476 189 476 q 121 475 144 476 q 88 474 97 474 q 45 339 68 394 q -12 263 22 283 q -28 247 -28 254 l -26 244 q -10 236 -22 236 m 129 581 q 196 608 163 581 q 221 638 215 625 q 226 679 226 651 q 221 720 226 707 q 196 750 215 733 q 129 776 163 776 q 63 750 92 776 q 35 679 35 724 l 35 678 q 64 608 36 635 q 129 581 92 581 m 133 611 q 97 624 119 611 q 64 678 64 646 q 100 735 64 711 q 131 743 117 743 q 176 723 158 743 q 194 678 194 703 q 168 628 194 651 q 133 611 150 611 z "},"<":{"ha":508,"x_min":-106,"x_max":488,"o":"m 458 94 q 478 110 471 94 q 485 149 485 125 l 482 213 q 436 258 479 232 q 392 288 414 272 q 343 326 371 304 q 178 450 293 365 q 101 508 132 483 q 69 533 69 532 q 123 576 69 536 q 247 667 176 615 q 377 760 318 718 q 450 810 436 801 q 479 838 471 821 q 488 889 488 854 l 488 913 q 471 986 486 979 l 468 986 q 390 941 454 986 q 174 776 326 896 q -106 543 -106 560 q -62 501 -103 536 q 33 422 -21 465 q 129 344 88 378 q 171 311 171 311 q 370 157 288 219 q 458 94 453 94 z "},"=":{"ha":856,"x_min":-18,"x_max":826,"o":"m 200 354 q 682 364 410 354 l 826 371 l 826 471 q 447 467 576 469 q 236 463 318 465 q 46 457 154 461 q -14 454 18 456 q -17 423 -15 446 q -18 382 -18 400 q -17 363 -18 368 q 47 356 -12 358 q 200 354 106 354 m 275 647 q 518 649 393 647 q 727 652 643 650 q 815 656 811 654 q 820 673 818 658 q 824 706 822 688 q 825 739 825 724 q 826 754 826 749 l -6 754 q -7 738 -6 749 q -11 704 -10 722 q -12 672 -12 686 q -11 657 -12 661 q 76 649 -7 651 q 275 647 158 647 z "},">":{"ha":650,"x_min":22,"x_max":683,"o":"m 42 86 q 145 151 49 86 q 364 299 242 215 q 579 449 486 383 q 681 525 672 515 q 683 539 683 533 q 675 557 683 550 q 569 636 661 569 q 362 786 478 703 q 157 932 246 869 q 58 999 68 994 l 50 1000 q 32 980 38 1000 q 24 908 26 960 l 22 864 q 26 836 22 843 q 42 824 31 829 q 109 776 51 818 q 241 678 167 733 q 374 579 315 624 q 446 525 433 535 l 446 524 q 434 509 446 519 q 403 486 422 499 q 353 453 376 469 q 289 407 331 438 q 26 218 225 360 l 29 151 q 34 105 31 124 q 42 86 38 86 z "},"?":{"ha":490,"x_min":-3,"x_max":458,"o":"m 185 124 q 229 142 206 124 q 254 190 254 163 q 239 233 254 211 q 188 254 219 254 q 140 239 161 254 q 124 193 124 219 q 143 142 124 164 q 185 124 163 124 m 207 282 q 252 318 219 282 q 320 403 285 354 q 379 497 356 453 q 457 774 453 629 l 458 832 q 455 883 458 861 q 443 933 451 906 q 244 1104 385 1104 q 81 1027 156 1104 q -1 850 7 950 l -3 800 l 121 796 l 131 836 q 168 903 143 878 q 221 929 193 929 q 246 924 233 929 q 308 769 308 890 q 301 675 308 728 q 262 506 290 607 q 208 347 233 404 q 194 314 200 329 q 189 293 189 299 q 194 285 189 289 q 207 282 200 282 z "},"@":{"ha":769,"x_min":-12,"x_max":743,"o":"m 306 207 q 347 222 339 207 l 349 231 q 281 272 349 256 q 75 444 139 307 q 46 576 46 511 q 144 818 46 713 q 378 924 243 924 q 453 914 415 924 q 617 809 556 886 q 678 632 678 732 q 658 530 678 593 q 619 443 639 467 q 589 424 603 424 q 560 447 574 424 q 548 483 551 458 q 544 571 544 507 l 544 686 q 544 756 544 728 q 542 789 543 783 q 527 803 539 800 q 493 806 515 806 q 424 811 468 806 l 400 813 q 248 742 313 813 q 183 592 183 671 q 218 496 183 540 q 285 449 244 465 q 367 432 325 432 q 447 450 410 432 q 478 464 471 464 q 484 461 482 464 q 488 453 486 458 q 528 386 501 408 q 586 364 554 364 q 683 414 633 364 q 743 606 743 476 l 742 642 q 718 768 735 725 q 647 867 696 817 q 546 946 599 917 q 483 973 510 967 q 406 981 456 979 l 371 982 q 164 917 250 982 q -12 576 -12 792 l -12 554 q 55 350 -3 426 q 185 240 113 274 q 306 207 258 207 m 360 492 q 268 533 311 492 q 247 594 247 557 q 265 661 247 629 q 332 725 292 701 q 411 749 372 749 q 460 735 438 749 q 477 720 472 728 q 482 692 482 713 l 479 639 q 475 584 478 603 q 465 553 472 565 q 443 528 457 542 q 360 492 404 492 z "},"A":{"ha":882,"x_min":-24,"x_max":882,"o":"m 631 1069 l 631 1069 q 656 979 636 1057 q 705 791 676 901 q 761 568 733 681 q 801 408 783 478 q 831 288 818 339 q 852 199 843 236 q 867 138 861 163 q 876 99 872 114 q 881 78 879 85 q 882 67 882 71 q 882 63 882 64 q 862 6 882 22 q 825 -12 842 -10 q 792 -17 813 -15 q 732 -19 771 -18 q 731 -19 732 -19 q 692 -19 714 -19 l 692 -19 q 665 -21 678 -19 q 664 -21 665 -21 q 572 -18 614 -24 q 504 19 529 -12 q 472 129 479 58 q 471 142 472 136 q 469 150 469 147 l 469 151 l 461 194 q 401 194 426 194 q 399 175 400 185 q 369 32 385 79 l 369 22 l 358 6 q 315 -27 338 -21 q 261 -33 293 -33 q 201 -31 247 -33 q 107 -26 154 -29 q 36 -22 60 -24 l -15 -19 l -19 31 q -21 39 -21 35 q -21 39 -21 39 q -22 71 -24 54 q -12 124 -21 88 q 13 233 -4 160 q 97 578 53 400 q 176 890 142 757 q 221 1054 211 1024 l 222 1058 l 224 1061 q 294 1106 243 1099 q 368 1108 313 1108 q 473 1108 432 1108 q 538 1108 514 1108 q 575 1106 563 1107 q 593 1103 588 1104 q 603 1099 599 1101 l 622 1089 l 631 1069 m 817 15 l 817 15 q 842 30 835 21 q 850 48 849 39 q 851 63 851 57 q 851 65 851 63 q 851 71 851 67 q 849 83 850 75 q 844 103 847 90 q 837 135 842 115 q 826 181 832 154 q 810 244 819 208 q 790 327 801 281 q 765 432 779 374 q 732 561 750 490 q 708 657 726 583 q 666 820 689 731 q 626 978 643 910 q 604 1057 608 1047 l 599 1068 l 589 1072 q 585 1074 588 1074 q 574 1076 582 1075 q 553 1077 567 1076 q 515 1078 539 1078 q 456 1079 492 1079 q 368 1079 419 1079 q 291 1075 319 1079 q 251 1049 263 1071 l 250 1047 l 250 1044 q 205 881 239 1014 q 126 571 171 749 q 42 226 82 393 q 22 138 29 171 q 11 89 14 106 q 8 63 8 72 q 8 43 7 53 q 8 43 8 43 q 10 33 10 39 l 13 8 l 38 7 q 108 3 60 6 q 202 -2 156 0 q 261 -4 249 -4 q 304 0 289 -4 q 333 24 319 4 l 340 32 l 340 36 q 368 179 356 81 q 375 221 372 203 q 420 224 390 224 q 485 224 450 224 l 485 224 l 499 157 l 499 156 q 503 133 500 149 q 529 36 508 68 q 583 10 547 14 q 664 8 618 7 q 692 10 676 10 q 731 11 714 10 q 732 11 731 11 q 788 12 768 11 q 817 15 807 13 m 401 389 l 401 389 q 394 389 397 389 l 432 518 q 449 467 440 492 q 474 389 461 428 q 439 388 458 388 q 401 389 419 388 m 368 1050 l 368 1050 q 368 1050 368 1050 q 401 1050 371 1050 q 471 1049 432 1050 q 540 1048 510 1049 q 576 1046 571 1047 q 619 886 582 1031 q 703 555 656 742 q 786 220 750 368 q 822 63 822 72 q 820 50 822 54 q 810 44 818 46 q 783 41 801 42 q 731 40 764 40 q 690 39 713 39 q 663 38 676 39 q 594 38 624 36 q 553 54 564 40 q 540 91 544 67 q 532 138 535 115 q 528 163 529 153 l 510 253 q 485 253 497 253 q 349 243 360 256 q 339 183 344 228 q 326 102 333 143 q 310 43 318 61 l 310 42 q 299 31 304 35 q 286 26 294 28 q 261 25 278 25 q 203 27 249 25 q 111 32 158 29 q 40 36 64 35 q 39 46 39 42 q 38 62 38 54 q 40 85 38 69 q 51 133 43 101 q 71 221 58 165 q 156 565 111 388 q 234 874 200 743 q 278 1036 268 1006 q 302 1048 282 1046 q 368 1050 322 1050 m 511 369 l 511 369 l 511 371 q 476 476 494 422 q 445 572 458 532 q 428 613 432 613 l 354 360 q 401 360 378 360 q 478 359 446 358 q 511 369 511 360 z "},"B":{"ha":1029,"x_min":60,"x_max":993,"o":"m 478 310 l 478 310 q 497 293 492 301 q 504 280 503 285 q 506 272 506 275 q 501 256 506 263 q 483 239 497 250 l 482 239 q 465 226 472 229 q 442 221 457 222 q 394 219 426 219 l 397 331 q 478 310 433 338 m 475 271 l 475 271 q 475 272 475 271 q 461 288 475 278 q 426 303 443 300 l 425 247 q 449 250 442 249 q 449 250 449 250 q 452 251 450 250 q 456 253 454 251 q 463 258 458 256 l 464 261 q 475 271 474 268 m 485 821 l 485 821 q 515 798 506 808 q 526 780 525 788 q 528 769 528 772 q 508 731 528 749 q 467 701 489 714 q 429 687 447 692 q 385 682 411 682 l 389 833 q 424 835 403 835 q 454 832 440 835 q 485 821 468 829 m 451 726 l 451 726 q 499 769 499 757 q 488 785 499 776 q 469 796 478 793 q 447 805 457 803 q 424 807 436 807 q 418 807 421 807 l 415 713 q 451 726 432 717 m 981 347 l 981 347 q 982 249 993 311 q 894 115 971 186 q 671 4 810 43 l 667 3 q 432 -21 556 -21 q 290 -10 351 -21 l 288 -10 q 97 57 185 15 l 64 72 l 60 1017 l 93 1032 q 276 1094 194 1079 q 467 1113 357 1110 l 469 1113 q 771 1056 644 1113 q 956 893 897 999 q 976 847 969 867 q 979 746 989 800 q 953 658 969 692 l 951 656 q 819 519 907 582 q 916 449 869 493 q 981 347 963 404 m 874 136 l 874 136 q 951 340 981 231 q 889 435 935 392 q 792 501 843 478 l 792 501 q 760 515 774 510 q 856 585 810 543 q 925 669 901 628 l 925 669 q 949 751 940 701 q 947 839 958 800 q 929 881 942 857 q 789 1015 876 971 q 612 1072 701 1058 q 469 1085 522 1085 l 468 1085 q 283 1067 361 1082 q 107 1007 204 1053 l 90 1000 l 94 90 l 110 82 q 294 18 196 42 l 297 17 q 432 7 354 7 q 660 31 553 7 l 663 31 q 874 136 794 67 m 778 476 l 778 476 q 867 416 825 454 q 922 333 908 378 q 854 157 950 249 q 653 57 779 92 q 432 35 550 35 q 303 44 357 35 q 124 107 210 67 l 119 982 q 289 1040 214 1026 q 469 1056 364 1054 q 719 1014 597 1056 q 901 868 842 972 q 919 832 914 846 q 920 754 928 799 q 899 682 913 710 q 835 606 878 646 q 743 539 793 565 q 717 524 731 532 q 699 509 704 515 q 710 503 694 503 q 730 497 715 503 q 758 485 744 492 q 778 476 772 479 m 503 218 l 503 218 q 527 242 519 231 q 535 272 535 253 q 496 332 535 306 q 431 358 461 356 q 378 357 400 361 q 368 356 372 356 l 363 192 q 386 192 375 192 q 443 193 424 192 q 476 200 463 194 q 503 218 489 206 m 482 678 l 482 678 q 558 769 558 721 q 499 846 558 813 q 424 863 468 863 q 372 861 390 863 q 360 860 364 860 l 354 654 l 381 654 q 435 660 413 654 q 482 678 457 665 z "},"C":{"ha":1004,"x_min":-7,"x_max":961,"o":"m 550 -24 q 467 -17 506 -24 q 24 343 139 57 q -7 524 -7 435 q 126 886 -7 710 q 496 1124 258 1054 l 501 1124 q 644 1136 558 1136 q 875 1094 789 1136 q 940 1054 924 1074 l 944 1047 q 957 1014 954 1033 q 961 896 961 978 q 929 774 961 800 q 818 743 901 743 q 657 711 743 743 q 464 568 517 660 q 447 526 447 535 l 447 525 l 449 519 q 581 386 472 424 q 744 360 663 360 q 799 363 758 360 l 854 364 q 933 343 913 364 q 954 303 949 326 q 955 267 956 286 q 954 233 954 249 q 942 120 953 157 q 890 58 932 83 q 723 -3 819 17 q 550 -24 626 -24 m 550 7 q 718 26 625 7 q 874 83 811 46 q 906 113 896 97 q 919 156 917 128 q 924 235 922 183 q 925 271 925 251 l 926 272 q 924 301 924 286 q 872 335 915 332 q 800 332 836 335 l 754 329 q 565 361 657 329 q 421 504 446 401 q 418 528 418 515 q 421 546 418 536 q 492 653 440 604 q 645 738 553 704 q 818 772 738 772 q 908 796 888 772 q 931 896 931 814 q 928 1006 931 978 q 919 1031 924 1026 q 864 1067 913 1046 q 774 1097 822 1086 q 644 1107 726 1107 q 506 1094 563 1107 q 149 867 276 1028 q 22 525 22 700 q 53 353 22 440 q 472 13 161 82 q 550 7 508 7 m 550 36 q 476 42 510 36 q 172 213 285 83 q 53 528 53 347 q 172 849 53 689 q 513 1065 293 1003 q 644 1076 565 1076 q 768 1067 724 1076 q 849 1040 813 1057 q 894 1014 886 1024 q 901 896 901 1004 q 887 817 901 831 q 818 803 872 803 q 632 766 729 803 q 471 675 535 729 q 413 597 438 642 q 388 525 388 553 q 392 496 388 510 q 554 335 425 378 q 754 300 657 300 l 801 303 q 853 306 832 306 q 894 294 893 306 q 896 271 896 283 l 894 235 q 890 163 893 186 q 881 128 888 139 q 858 108 874 118 q 708 54 797 72 q 550 36 619 36 z "},"D":{"ha":1004,"x_min":61,"x_max":978,"o":"m 414 350 l 396 351 q 385 751 396 507 q 478 721 415 749 q 607 526 607 647 q 547 398 607 444 q 414 350 488 351 m 426 381 q 531 424 485 385 q 578 526 578 463 q 465 693 578 631 q 417 713 438 706 q 426 381 425 511 m 211 -35 q 103 -17 128 -35 l 88 -7 l 79 10 q 61 547 61 38 q 75 1071 61 1022 l 88 1097 q 129 1114 119 1113 q 226 1118 163 1118 q 419 1103 308 1118 q 665 1021 531 1089 q 910 793 826 933 q 978 549 978 676 q 826 197 978 353 q 460 -8 690 58 q 211 -35 349 -35 m 211 -4 q 453 21 351 -4 q 797 210 668 83 q 947 550 947 358 q 883 778 947 669 q 651 994 806 911 q 238 1088 483 1088 q 110 1075 135 1088 q 103 1064 108 1071 q 92 547 92 1049 q 94 206 92 346 q 97 124 96 156 q 99 72 97 92 q 101 43 100 53 q 104 29 103 33 q 107 22 106 25 q 110 14 108 18 q 120 8 114 13 q 146 0 126 4 q 211 -4 165 -4 m 211 25 q 133 35 150 25 q 121 547 121 82 q 132 1053 121 1017 q 238 1057 142 1057 q 427 1041 328 1057 q 636 968 526 1025 q 900 667 846 850 q 918 549 918 607 q 824 283 918 428 q 444 50 731 138 q 211 25 344 25 m 413 319 q 568 377 499 319 q 638 526 638 435 q 601 649 638 590 q 490 747 565 708 q 367 785 400 785 q 354 786 358 785 l 354 765 q 365 324 365 538 l 413 319 z "},"E":{"ha":989,"x_min":61,"x_max":931,"o":"m 928 -39 l 928 -39 l 860 -40 q 354 -40 514 -40 q 231 -40 275 -40 q 165 -40 188 -40 q 132 -37 142 -39 q 114 -35 122 -36 q 114 -35 114 -35 q 110 -33 111 -33 l 61 -24 l 61 24 q 61 163 61 93 q 63 771 61 503 q 65 976 63 906 q 68 1042 67 1019 q 73 1076 69 1065 q 82 1094 76 1086 l 100 1117 l 129 1118 q 353 1118 208 1119 q 643 1114 499 1117 q 868 1111 806 1111 l 928 1111 l 928 1054 q 929 981 929 1015 q 931 840 931 896 q 924 774 931 804 q 885 728 917 743 q 876 725 882 726 q 859 722 871 724 q 824 719 847 721 q 765 717 801 718 q 671 716 728 717 q 535 715 614 715 l 535 700 q 538 700 536 700 q 544 700 540 700 q 681 699 639 701 q 744 688 724 697 q 796 606 789 667 q 794 517 797 574 q 792 458 793 490 l 790 401 l 535 401 l 535 356 q 863 350 836 357 q 929 274 922 339 q 931 221 931 256 q 929 121 931 186 q 928 18 929 78 l 928 -39 m 347 -11 l 347 -11 q 860 -11 506 -11 l 897 -10 l 899 18 q 900 121 899 78 q 901 219 901 185 q 899 271 901 254 q 857 321 896 315 q 514 326 803 329 q 511 326 513 326 q 504 326 507 326 l 504 431 l 761 431 l 763 460 q 765 518 764 492 q 765 603 768 574 q 759 631 765 614 q 732 660 753 649 q 674 669 715 668 q 544 671 633 671 q 542 671 543 671 q 504 671 524 671 l 504 744 q 506 744 506 744 q 633 745 579 744 q 726 747 688 746 q 791 748 765 747 q 832 749 817 749 q 856 751 847 750 q 867 753 864 753 q 874 756 871 754 q 894 781 889 761 q 900 840 900 801 q 900 979 901 896 q 899 1053 899 1015 l 897 1082 l 868 1082 q 642 1085 806 1082 q 353 1089 499 1088 q 129 1089 208 1090 l 115 1089 l 107 1076 q 103 1071 104 1075 q 100 1057 101 1067 q 97 1028 99 1047 q 95 977 96 1010 q 94 894 94 944 q 92 771 93 843 q 92 163 90 503 q 92 24 92 93 l 92 0 l 115 -4 q 119 -6 118 -6 q 136 -8 126 -7 q 167 -10 146 -10 q 231 -11 189 -11 q 347 -11 272 -11 m 851 292 l 851 292 q 862 289 858 292 q 867 278 865 286 q 870 253 869 271 q 871 203 871 235 q 869 121 871 171 q 868 19 869 78 q 605 18 717 18 q 415 18 493 18 q 287 18 338 18 q 207 18 236 18 q 163 19 178 18 q 140 21 147 19 q 126 24 132 22 q 121 24 124 24 q 121 163 121 93 q 122 770 121 504 q 131 1060 124 1036 q 354 1060 210 1061 q 642 1056 499 1058 q 868 1053 806 1053 q 869 979 868 1014 q 870 842 871 896 q 861 782 869 788 q 776 776 847 778 q 622 774 704 775 q 489 774 539 774 q 475 774 481 774 l 475 642 q 544 642 513 642 q 666 641 625 642 q 719 633 707 640 q 735 601 733 628 q 735 519 738 574 q 732 460 733 493 l 475 460 l 475 297 q 514 297 488 297 q 640 297 567 297 q 774 297 713 297 q 851 292 835 296 z "},"F":{"ha":958,"x_min":65,"x_max":922,"o":"m 535 58 l 535 58 q 478 -42 533 -18 q 438 -51 457 -51 q 436 -51 436 -51 q 435 -51 436 -51 q 431 -51 433 -51 q 426 -51 429 -51 q 417 -51 422 -51 q 154 -39 189 -40 q 128 -42 140 -43 q 112 -37 124 -42 q 89 -22 100 -33 q 74 14 78 -10 q 71 33 72 21 q 68 93 69 54 q 65 292 67 161 q 65 851 65 553 q 65 1053 65 960 l 65 1111 l 921 1106 l 921 1043 q 922 911 922 964 q 919 827 921 858 q 916 780 918 796 q 912 758 914 764 q 907 747 910 751 l 899 729 l 881 721 q 869 716 876 718 q 843 713 861 714 q 789 709 825 711 q 692 707 753 707 q 704 699 699 703 l 708 694 l 713 690 q 728 660 718 685 q 738 578 738 636 q 730 513 736 536 q 717 479 724 490 q 706 465 710 468 l 703 464 l 701 461 q 528 446 654 426 q 528 446 528 446 q 526 446 528 446 q 531 340 529 388 q 535 58 538 114 m 464 -15 l 464 -15 q 494 11 485 -6 q 506 61 503 28 q 500 340 508 114 q 496 478 499 400 q 531 475 514 476 q 682 483 653 460 l 683 486 q 707 578 706 507 q 705 629 708 603 q 689 672 701 656 l 688 675 l 685 676 q 631 692 671 689 q 499 693 590 694 q 497 693 499 693 q 497 693 497 693 q 496 697 496 696 q 496 699 496 699 q 494 717 494 708 q 493 732 493 726 q 514 733 499 732 q 530 733 517 733 q 561 733 543 733 q 694 735 640 735 q 780 738 747 736 q 831 740 813 739 q 856 743 849 742 q 867 747 864 744 l 876 751 l 881 760 q 883 765 882 761 q 885 779 885 769 q 888 807 886 789 q 890 856 889 825 q 891 932 890 886 q 892 1043 892 978 l 892 1076 l 96 1082 l 96 1053 q 96 851 96 960 q 96 292 94 553 q 99 93 97 161 q 101 36 100 56 q 103 18 101 24 q 110 -1 106 6 q 122 -10 115 -7 q 131 -12 128 -12 q 149 -8 139 -14 q 228 -12 167 -10 q 418 -22 290 -15 q 425 -22 422 -22 q 430 -22 428 -22 q 433 -22 432 -22 q 435 -22 435 -22 q 436 -22 436 -22 q 437 -22 436 -22 q 438 -22 438 -22 q 464 -15 450 -22 m 663 506 l 663 506 q 616 498 651 497 q 533 504 581 499 q 465 508 500 507 q 471 339 468 411 q 475 185 474 246 q 476 91 476 125 q 473 41 475 57 q 465 19 471 25 q 450 10 460 14 q 438 7 442 7 q 419 7 438 7 q 350 10 394 8 q 258 15 306 13 q 174 19 210 18 q 136 21 139 21 q 128 124 131 0 q 125 447 125 247 q 125 851 125 646 q 125 1053 125 960 l 861 1047 q 861 1043 861 1046 q 861 988 861 1028 q 860 900 861 947 q 858 817 860 853 q 854 772 857 781 q 792 767 844 769 q 674 765 739 765 q 560 763 608 764 q 513 763 521 763 q 467 748 474 761 q 467 696 461 735 q 469 664 468 682 q 499 664 485 664 q 665 654 642 667 q 676 610 674 642 q 676 547 679 578 q 663 506 672 517 z "},"G":{"ha":968,"x_min":-7,"x_max":897,"o":"m 539 -22 q 390 -7 458 -22 l 386 -7 q 54 240 163 58 q 10 356 26 292 q -7 472 -7 419 q 15 606 -7 531 q 65 738 38 681 q 181 885 108 813 q 318 999 254 957 q 682 1099 500 1099 q 892 1024 867 1099 q 897 951 897 999 l 896 897 l 897 869 q 822 744 897 744 q 767 754 813 744 q 699 764 722 764 q 649 757 678 764 q 428 607 483 731 q 411 563 413 574 q 408 494 408 543 q 411 429 408 444 q 426 394 411 421 q 533 315 474 315 q 506 347 514 329 q 497 385 499 365 q 506 521 497 496 q 526 565 510 533 l 556 565 q 569 567 561 567 l 588 568 l 643 569 q 701 571 674 569 l 894 572 q 896 485 894 504 q 897 239 897 392 q 883 100 897 125 l 883 97 l 882 96 q 678 -8 856 32 l 676 -8 q 539 -22 614 -22 m 539 7 q 671 21 611 7 q 856 108 836 61 l 856 111 q 867 308 867 131 l 865 543 q 757 542 810 543 l 656 540 l 588 538 q 560 536 564 538 l 546 536 l 535 514 q 528 417 528 492 q 533 358 528 365 l 536 353 q 597 329 557 329 l 597 293 q 542 286 569 286 q 400 379 453 286 q 382 424 385 406 q 378 494 378 450 q 378 530 378 508 q 383 570 379 551 q 400 619 386 589 q 643 788 463 758 q 703 793 679 793 q 772 784 732 793 q 822 775 811 775 q 863 821 856 775 q 867 906 867 846 q 864 1003 867 978 q 857 1028 863 1017 q 774 1061 846 1050 q 682 1068 711 1068 q 203 865 410 1068 q 92 725 132 796 q 44 597 65 669 q 24 472 24 525 q 39 363 24 424 q 79 254 54 303 q 394 22 182 83 l 396 22 q 539 7 461 7 m 539 38 q 403 51 464 38 q 106 269 201 108 q 67 372 82 315 q 53 472 53 429 q 73 592 53 522 q 118 710 93 661 q 221 840 154 774 q 349 946 288 907 q 682 1039 515 1039 q 736 1036 701 1039 q 829 1014 822 1026 q 836 907 836 1001 l 838 881 q 822 804 838 804 l 779 813 q 707 824 732 824 q 638 817 679 824 q 372 632 443 785 q 351 574 357 599 q 347 493 347 543 q 352 419 347 444 q 374 364 357 394 q 542 256 436 256 q 626 269 585 256 l 626 344 q 597 360 625 360 q 560 371 568 360 q 557 408 557 378 q 564 506 557 485 l 567 507 l 642 510 l 758 511 l 835 513 l 836 485 l 838 306 q 828 122 838 153 q 664 50 810 85 q 539 38 608 38 z "},"H":{"ha":1100,"x_min":58,"x_max":1008,"o":"m 475 -21 l 475 -21 l 415 -21 q 400 -21 411 -21 q 399 -21 400 -21 q 329 -21 374 -21 q 238 -21 285 -21 q 156 -18 186 -19 q 79 6 104 -18 l 65 17 l 63 33 q 59 120 60 43 q 60 392 58 197 q 67 943 61 586 q 68 1049 68 1039 l 68 1106 l 475 1106 l 475 707 l 590 707 l 590 1106 l 1008 1106 l 1008 1049 q 1004 379 1008 586 q 994 40 1000 172 l 993 -15 l 613 -22 l 603 25 q 600 42 601 29 q 597 69 599 56 q 596 88 596 82 l 596 88 q 591 184 592 125 q 590 347 590 243 q 590 364 590 354 q 590 368 590 365 q 476 368 519 368 q 475 126 475 307 q 475 119 475 124 q 475 36 475 82 l 475 -21 m 399 8 l 399 8 q 400 8 400 8 q 415 8 410 8 l 446 8 l 446 36 q 444 119 446 82 q 444 126 444 124 q 449 394 444 354 q 621 397 499 397 q 621 349 621 371 q 621 347 621 347 q 625 90 619 156 l 625 90 q 625 90 625 90 q 626 81 625 89 q 628 61 628 72 q 631 42 629 50 q 632 31 632 33 l 636 7 l 964 14 l 965 40 q 975 379 971 172 q 979 1049 979 586 l 979 1078 l 621 1078 l 621 679 l 446 679 l 446 1078 l 97 1078 l 97 1049 q 96 943 97 1039 q 92 40 83 50 l 93 31 l 100 25 q 108 19 103 22 q 129 14 114 17 q 176 10 144 11 q 261 8 207 8 q 399 8 315 7 m 429 421 l 429 421 q 421 407 424 419 q 417 364 418 394 q 415 276 415 333 q 415 126 415 218 q 415 36 415 85 q 399 36 410 36 q 300 36 363 36 q 183 38 238 36 q 121 46 129 40 q 119 237 118 71 q 122 606 119 403 q 126 943 124 808 q 128 1049 128 1038 l 415 1049 l 415 650 l 650 650 l 650 1049 l 949 1049 q 944 381 949 589 q 935 42 940 174 l 661 36 q 660 46 661 38 q 658 65 660 54 q 656 84 657 76 q 656 93 656 92 q 651 188 651 129 q 650 347 650 246 q 650 425 650 382 q 628 425 639 425 q 429 421 456 426 z "},"I":{"ha":1035,"x_min":47,"x_max":1001,"o":"m 425 -31 l 425 -31 q 174 -26 231 -31 q 93 -7 124 -25 q 63 24 71 7 q 54 51 56 40 l 54 53 q 49 117 50 72 q 49 261 49 161 l 49 360 l 307 365 l 311 714 l 49 714 l 49 771 q 49 836 49 806 q 51 1025 47 988 q 56 1053 51 1036 q 74 1087 60 1071 q 117 1108 88 1103 l 119 1110 q 885 1104 183 1118 q 899 1104 894 1104 q 935 1096 918 1106 q 966 1053 960 1082 q 972 971 972 1024 q 974 822 974 900 q 972 771 972 794 l 972 714 l 726 714 q 721 590 722 663 q 721 363 719 517 l 1001 363 l 982 290 q 972 92 969 250 q 972 28 972 63 l 972 -29 l 913 -29 q 593 -31 725 -29 q 425 -31 497 -31 m 83 57 l 83 57 q 90 37 85 47 q 108 17 94 26 q 176 3 126 6 q 425 -1 231 -1 q 592 -1 496 -1 q 593 -1 592 -1 q 913 -1 725 -1 l 943 -1 l 943 28 q 943 92 943 63 q 944 225 942 178 q 953 297 946 272 l 963 333 l 690 333 l 690 360 q 690 546 690 478 q 692 657 690 614 q 699 743 694 700 l 943 743 l 943 771 q 943 822 943 794 q 943 969 943 900 q 940 1029 942 1008 q 933 1058 938 1050 q 919 1071 928 1067 q 900 1076 910 1076 q 890 1076 897 1076 q 883 1076 888 1076 q 402 1083 631 1081 q 124 1081 174 1085 l 122 1081 q 90 1059 97 1075 q 81 1024 82 1043 q 78 836 78 986 q 78 771 78 806 l 78 743 l 342 743 l 336 336 l 78 332 l 78 261 q 78 119 78 164 q 83 58 79 75 l 83 57 m 913 28 l 913 28 q 593 26 725 28 q 362 26 451 26 q 222 28 272 26 q 149 34 171 31 q 120 44 126 38 q 113 63 114 51 q 113 64 113 63 q 109 124 110 79 q 108 261 108 168 q 108 304 108 281 l 367 308 l 371 771 l 108 771 q 108 836 108 806 q 108 938 108 897 q 109 1001 108 978 q 112 1034 110 1024 q 118 1048 114 1044 q 128 1053 122 1051 q 324 1055 165 1056 q 649 1051 482 1054 q 883 1047 817 1049 q 903 1047 901 1047 q 910 1014 908 1049 q 913 927 913 979 q 913 822 914 875 q 913 771 913 794 l 671 771 q 663 674 665 719 q 660 558 661 629 q 660 360 660 488 q 660 304 660 335 l 924 304 q 914 228 915 276 q 913 92 913 179 q 913 28 913 63 z "},"J":{"ha":1003,"x_min":-25,"x_max":929,"o":"m -14 383 l -14 383 l -15 385 q -24 447 -22 417 q -8 501 -25 478 q 0 511 -6 507 q 42 533 14 528 q 129 536 71 538 q 285 533 204 536 q 333 532 311 532 l 393 531 l 392 464 q 392 417 390 433 q 404 390 394 400 q 447 374 425 371 q 488 399 471 376 q 498 473 497 414 q 497 617 499 532 q 496 719 496 663 l 260 721 l 257 776 q 256 831 257 788 q 253 923 254 874 q 253 997 253 972 q 260 1048 254 1024 q 286 1088 265 1072 q 317 1101 297 1097 q 374 1107 338 1106 q 488 1108 415 1108 q 617 1108 553 1108 q 721 1106 681 1107 q 722 1106 722 1106 q 754 1106 746 1106 l 761 1106 q 859 1097 825 1104 q 908 1068 893 1089 l 910 1067 q 919 1045 915 1058 q 926 1004 924 1032 q 929 925 928 976 q 926 704 929 843 q 921 467 925 578 q 915 304 917 356 q 914 283 914 289 l 914 269 l 907 258 q 900 246 904 253 q 900 246 900 246 q 788 85 867 172 q 547 -37 710 -1 l 547 -37 q 463 -44 501 -46 q 346 -24 408 -43 q 111 126 207 18 q -14 383 15 235 m 17 485 l 17 485 q 7 443 6 468 q 14 392 8 418 l 15 389 q 133 144 43 249 q 354 4 225 43 q 463 -15 413 -14 q 542 -8 499 -17 l 542 -8 q 767 106 694 25 q 874 258 840 186 q 874 260 874 260 q 881 272 878 265 l 885 278 l 885 285 q 885 301 885 289 q 885 304 885 303 q 891 467 888 357 q 897 704 894 578 q 899 840 899 783 q 898 933 899 896 q 896 992 897 969 q 893 1026 894 1014 q 889 1042 892 1038 q 885 1050 886 1047 l 885 1051 q 849 1069 876 1064 q 760 1076 821 1075 l 754 1076 q 721 1076 744 1076 q 558 1080 625 1079 q 446 1080 490 1081 q 374 1078 401 1079 q 333 1074 347 1076 q 312 1070 318 1072 q 303 1064 306 1068 q 283 996 285 1047 q 283 922 282 971 q 286 831 285 874 q 288 776 288 789 l 289 749 l 525 749 q 528 617 526 675 q 513 382 535 418 q 450 344 488 349 q 383 369 414 342 q 363 412 365 388 q 361 465 360 436 l 363 501 l 332 503 q 283 504 310 503 q 153 508 203 507 q 76 506 103 508 q 38 501 50 504 q 21 492 26 497 q 17 485 18 488 m 364 32 l 364 32 q 44 394 108 114 q 44 397 44 396 q 39 422 42 407 q 36 450 36 436 q 43 469 36 464 q 81 478 43 476 q 174 478 118 479 q 283 475 229 476 q 332 474 310 474 q 332 467 332 469 q 334 403 329 433 q 363 349 339 374 q 456 316 407 310 q 538 365 504 322 q 557 618 567 406 q 556 776 556 685 l 318 778 q 315 837 317 794 q 313 926 314 879 q 313 996 313 972 q 322 1042 314 1038 q 408 1050 333 1049 q 574 1050 483 1051 q 719 1047 664 1049 q 754 1047 744 1047 q 760 1047 756 1047 q 795 1046 774 1047 q 836 1042 817 1044 q 860 1033 856 1039 q 869 924 868 1018 q 867 705 869 831 q 860 467 864 579 q 856 306 857 356 q 854 286 854 290 q 847 272 851 279 q 746 127 814 203 q 536 19 678 51 q 464 14 497 13 q 364 32 418 15 z "},"K":{"ha":992,"x_min":54,"x_max":979,"o":"m 175 -36 q 113 -32 136 -36 q 64 -1 90 -28 q 60 15 63 7 q 56 69 57 22 q 54 204 54 89 q 67 879 54 454 l 71 992 q 76 1040 74 1025 q 103 1092 78 1054 l 172 1094 q 326 1091 261 1094 q 486 1088 392 1088 l 482 826 q 710 1065 663 1032 q 760 1085 736 1085 l 778 1085 q 850 1033 801 1072 q 940 954 908 986 q 979 890 979 925 q 947 826 979 867 q 765 603 922 792 l 699 524 q 824 376 731 481 q 958 213 940 242 q 969 174 969 193 q 931 103 969 136 q 875 49 907 78 q 764 -29 796 -21 q 724 -33 750 -33 q 638 46 694 -15 l 539 146 l 471 218 q 468 -12 468 126 q 175 -36 244 -36 m 175 -6 q 438 15 240 -6 q 443 289 438 89 q 561 167 497 235 q 732 -3 710 11 q 772 7 753 -3 q 856 72 792 17 q 929 147 911 122 q 939 174 939 161 q 931 200 939 183 q 799 359 914 228 q 661 524 685 490 l 742 622 q 886 797 863 767 q 923 843 910 826 q 942 870 936 860 q 949 890 949 881 q 942 911 949 903 q 921 933 935 919 l 875 974 q 776 1050 803 1033 l 769 1056 q 722 1038 746 1056 q 494 796 683 1006 l 450 746 l 456 1058 q 325 1061 390 1058 l 174 1065 q 119 1063 140 1065 l 107 1044 q 103 1006 103 1035 l 100 957 q 89 544 92 783 l 85 351 l 85 242 q 89 22 85 49 q 97 8 90 14 q 175 -6 108 -6 m 175 24 q 118 29 124 24 q 115 138 115 49 q 128 878 115 544 q 135 1033 132 1021 q 174 1035 153 1035 l 233 1033 q 425 1028 389 1028 l 419 667 q 517 776 467 718 q 760 1025 738 1025 q 803 994 776 1014 q 856 951 829 974 q 901 910 882 928 q 919 890 919 893 q 719 642 919 879 q 626 528 647 556 q 778 336 626 510 q 910 174 910 188 q 835 94 910 161 q 742 26 761 26 q 685 81 731 35 q 581 189 640 128 q 476 298 522 250 q 421 351 429 346 q 411 197 415 351 l 408 42 q 175 24 253 24 z "},"L":{"ha":1043,"x_min":63,"x_max":1011,"o":"m 743 -40 q 286 -36 538 -40 l 182 -35 l 176 -33 q 78 18 92 -22 q 67 88 69 42 q 63 531 63 168 l 63 1054 l 100 1067 q 204 1090 139 1090 q 408 1088 324 1090 l 467 1088 l 479 369 l 1000 369 l 1006 256 q 1011 88 1011 156 q 994 -3 1011 22 q 922 -35 971 -31 q 743 -40 874 -40 m 743 -10 q 918 -4 871 -10 q 969 13 957 -3 q 982 81 981 29 q 975 254 982 132 l 971 339 l 450 339 l 438 1057 l 331 1060 l 208 1061 q 114 1040 144 1060 q 111 1038 111 1039 l 93 1032 l 93 446 q 97 90 93 171 q 116 13 97 24 q 183 -4 135 3 q 743 -10 314 -10 m 717 19 q 169 29 214 19 q 133 39 144 33 q 124 231 125 47 q 122 1011 122 415 l 129 1014 q 151 1025 140 1021 q 235 1031 169 1031 q 407 1028 321 1031 l 421 310 l 943 310 q 946 251 943 282 q 951 94 951 150 q 944 32 951 44 q 717 19 932 19 z "},"M":{"ha":1083,"x_min":63,"x_max":994,"o":"m 865 -46 q 678 -39 719 -46 q 600 24 618 -29 q 585 217 588 47 l 583 242 q 524 179 556 211 l 469 238 l 465 -35 q 376 -36 400 -35 q 253 -39 303 -39 q 103 -19 124 -39 q 74 26 81 -6 q 63 372 63 69 q 65 921 63 715 q 67 994 67 967 q 69 1035 68 1021 q 75 1063 69 1054 l 90 1100 l 131 1100 q 189 1071 156 1100 l 236 1029 q 531 740 431 840 q 871 1085 824 1054 q 922 1103 899 1103 q 949 1097 936 1103 q 990 1025 985 1078 q 994 921 994 963 q 983 42 994 131 l 983 -43 l 865 -46 m 865 -15 l 953 -14 q 954 43 953 28 q 965 921 965 232 q 957 1046 965 1015 q 929 1072 950 1063 q 886 1058 908 1072 q 732 910 858 1039 q 532 697 600 771 q 207 1014 340 889 q 139 1069 158 1060 l 110 1069 q 100 1044 101 1047 q 99 1015 99 1040 q 93 518 93 953 q 94 131 93 271 q 107 21 97 39 q 121 4 108 17 q 257 -8 158 -8 q 375 -6 307 -8 q 436 -4 400 -4 l 442 314 l 525 224 l 611 315 q 614 217 614 267 q 628 35 618 43 q 682 -8 639 -3 q 865 -15 718 -15 m 865 15 q 688 22 729 15 q 656 44 661 26 q 644 218 649 75 q 631 382 640 382 q 624 375 628 382 q 525 267 565 307 l 413 389 l 407 26 l 375 25 q 240 24 321 24 q 136 31 160 24 q 125 133 125 39 q 122 364 122 218 q 131 1039 122 1006 q 532 654 147 1039 q 663 792 533 656 q 836 972 793 929 l 838 975 l 864 1000 q 922 1042 906 1042 q 935 921 935 1033 q 928 146 935 338 l 924 17 l 865 15 z "},"N":{"ha":1086,"x_min":53,"x_max":997,"o":"m 363 -46 q 165 -42 222 -46 q 93 -31 108 -39 q 64 -12 83 -28 q 56 28 57 8 q 53 100 53 54 q 63 740 53 372 q 78 1047 68 1003 q 103 1094 85 1079 q 146 1108 122 1108 q 178 1101 160 1108 q 426 913 214 1088 l 579 788 q 600 1042 589 993 q 624 1092 606 1065 q 639 1100 631 1096 q 672 1107 647 1104 q 793 1110 704 1110 q 935 1100 906 1107 q 958 1090 940 1099 l 968 1078 q 988 983 983 1058 q 994 443 992 819 q 997 74 994 214 q 989 14 997 35 q 918 -37 967 -37 q 842 0 889 -37 q 471 297 822 14 q 464 44 468 108 q 433 -25 458 -10 q 363 -46 408 -40 m 360 -15 q 429 19 417 -15 q 443 358 436 40 l 729 128 q 874 15 849 32 q 919 -7 904 -7 q 968 74 964 -7 q 964 443 965 214 q 956 1001 964 864 q 949 1051 953 1038 l 939 1065 q 793 1079 911 1076 q 679 1078 693 1079 q 651 1071 656 1075 q 639 1061 643 1068 q 607 736 619 1039 l 607 726 q 211 1047 228 1035 q 149 1078 172 1078 q 103 1019 110 1078 q 92 740 99 979 q 85 299 86 501 l 82 128 l 83 47 q 85 22 83 26 q 86 17 86 18 q 97 0 89 7 q 232 -14 118 -14 q 263 -15 253 -14 l 360 -15 m 358 15 l 258 15 q 233 17 254 17 q 185 18 211 17 q 139 22 160 19 q 114 25 118 24 q 113 154 113 39 q 115 429 113 269 q 128 946 122 786 l 131 982 q 147 1047 132 1047 q 193 1022 158 1047 q 390 864 247 981 l 633 665 l 636 735 q 664 1044 649 1018 q 709 1048 672 1047 q 793 1049 746 1049 q 921 1040 903 1046 q 935 443 931 1010 q 938 72 935 214 q 919 24 938 24 q 897 34 913 24 q 847 72 882 44 q 747 151 811 100 q 414 421 642 239 l 413 372 q 402 27 408 36 q 358 15 396 18 z "},"O":{"ha":1107,"x_min":-4,"x_max":1078,"o":"m 532 -12 q 322 31 424 -12 q 14 389 101 132 q -4 532 -4 460 q 17 696 -4 611 q 219 990 71 879 q 539 1096 368 1096 q 806 1023 683 1096 q 1004 819 929 950 q 1078 542 1078 681 q 1003 258 1078 400 q 775 43 926 124 q 532 -12 654 -12 m 532 18 q 761 71 647 18 q 976 274 906 146 q 1047 542 1047 408 q 978 804 1047 674 q 791 997 907 928 q 539 1065 675 1065 q 238 965 378 1065 q 44 688 97 861 q 25 533 25 607 q 42 399 25 464 q 333 60 125 154 q 532 18 429 18 m 536 356 q 438 385 483 356 q 350 550 350 442 q 457 719 350 661 q 538 733 492 733 q 619 715 582 732 q 697 631 668 685 q 721 539 721 586 q 674 424 721 483 q 536 356 619 356 m 536 388 q 650 443 607 388 q 690 536 690 493 q 668 619 690 576 q 606 689 646 663 q 536 703 574 701 q 469 692 499 703 q 379 551 385 644 q 454 410 379 460 q 536 388 492 388 m 532 49 q 299 106 440 49 q 71 407 158 164 q 56 536 56 471 q 74 679 56 607 q 257 942 128 849 q 539 1035 386 1035 q 783 967 675 1035 q 954 787 890 899 q 1018 539 1018 675 q 951 289 1018 413 q 749 97 883 169 q 532 49 639 49 m 536 325 q 696 404 635 325 q 750 539 750 469 q 720 651 750 594 q 632 743 690 708 q 536 764 588 763 q 444 747 485 764 q 319 549 319 672 q 422 358 319 428 q 536 325 475 325 z "},"P":{"ha":918,"x_min":64,"x_max":894,"o":"m 531 758 l 531 758 q 565 706 565 733 q 565 703 565 706 q 560 694 564 700 q 547 678 556 688 q 501 643 525 651 q 436 635 478 635 l 436 790 q 531 758 481 793 m 525 697 l 525 697 q 535 710 532 706 q 513 736 532 721 q 465 757 489 754 l 465 665 q 500 674 488 667 q 525 697 513 682 m 894 703 l 894 703 l 894 694 q 890 628 894 660 q 868 561 886 596 l 867 561 q 468 367 750 367 l 465 367 l 461 -32 l 401 -32 q 363 -32 383 -32 q 224 -35 332 -35 q 175 -33 208 -35 q 122 -29 142 -33 q 88 -11 101 -25 l 75 0 l 72 17 q 71 22 71 19 q 70 33 71 25 q 69 56 69 42 q 68 96 68 71 q 67 159 68 121 q 66 251 67 197 q 65 378 65 306 q 64 544 65 450 q 64 887 64 736 q 64 1039 64 1038 l 64 1099 l 124 1099 q 179 1099 147 1099 q 479 1089 296 1107 q 669 1036 579 1076 q 840 901 786 983 q 894 703 894 822 m 842 576 l 842 576 q 862 634 858 606 q 864 694 865 663 l 864 703 q 657 1008 864 922 q 476 1060 571 1047 q 181 1069 294 1078 q 124 1068 147 1068 l 93 1068 l 93 1039 q 94 887 93 1038 q 94 544 94 736 q 95 395 94 461 q 96 278 96 329 q 97 189 96 226 q 97 124 97 151 q 98 79 97 97 q 99 51 99 61 q 100 35 100 40 q 100 27 100 29 q 101 24 100 25 l 103 15 l 108 10 q 117 3 113 6 q 132 -1 121 1 q 165 -3 143 -3 q 224 -4 186 -4 q 361 -3 332 -4 q 401 -3 382 -3 l 431 -3 l 435 397 l 468 397 q 842 576 733 397 l 842 576 m 644 982 l 644 982 q 835 703 835 903 q 835 694 835 699 q 832 639 835 663 q 815 592 829 615 q 468 426 718 426 l 406 426 l 401 28 q 361 26 382 28 q 224 25 331 25 q 207 25 221 25 q 176 26 193 25 q 147 27 160 26 q 131 31 133 28 q 126 199 128 49 q 124 544 125 350 q 124 888 124 738 q 124 1039 124 1038 q 181 1040 149 1039 q 472 1031 294 1047 q 644 982 563 1019 m 571 658 l 571 658 q 594 706 594 686 q 550 782 594 747 q 478 815 513 810 q 415 819 444 821 q 406 819 410 819 l 406 604 q 503 613 468 604 q 571 658 538 621 z "},"Q":{"ha":976,"x_min":-6,"x_max":958,"o":"m 442 707 l 442 707 q 510 674 478 707 q 525 656 521 663 q 530 643 529 650 q 529 622 531 636 q 529 615 529 619 q 481 542 526 558 l 479 540 q 447 532 461 532 q 414 542 433 532 l 414 542 q 364 625 364 568 q 411 701 364 676 q 442 707 425 707 m 500 625 l 500 625 q 500 631 500 628 q 500 638 500 635 q 489 651 499 642 q 442 675 465 675 q 422 672 432 675 q 405 659 415 669 q 394 625 394 649 q 400 599 394 615 q 425 571 406 582 l 428 571 q 441 565 436 565 q 447 564 446 564 q 467 569 451 564 l 469 571 q 490 585 483 575 q 499 617 497 596 q 500 625 499 621 m 661 15 l 661 15 q 558 151 632 49 q 421 132 521 132 q 265 156 333 132 l 263 156 l 261 157 q 65 322 136 213 q -6 578 -6 435 q 93 888 -6 750 q 338 1074 185 1013 q 397 1087 365 1085 q 479 1089 428 1089 l 486 1089 q 613 1078 557 1092 q 821 917 735 1035 q 907 644 907 788 q 890 522 907 589 q 851 410 874 454 q 893 336 865 382 l 894 333 q 947 235 935 265 q 958 188 958 206 l 958 165 l 946 147 q 924 122 939 139 q 891 88 908 106 q 861 58 874 71 q 847 46 849 46 q 790 -10 804 1 q 767 -26 781 -19 q 736 -33 754 -33 q 694 -19 711 -33 q 661 15 676 -6 m 274 185 l 274 185 q 421 164 338 164 q 513 172 479 164 q 569 189 546 179 q 683 36 654 71 q 710 8 699 17 q 736 -1 722 -1 q 772 15 757 -1 q 828 69 783 26 q 840 82 828 69 q 869 111 853 94 q 901 144 886 128 q 922 167 915 160 l 929 176 l 929 188 q 917 227 929 200 q 869 317 906 254 l 868 319 q 835 375 849 350 q 818 411 821 400 q 858 516 838 447 q 878 644 878 585 q 801 891 878 778 q 604 1047 724 1004 q 486 1057 554 1060 l 479 1057 q 400 1055 429 1057 q 349 1044 371 1053 q 110 860 194 983 q 25 578 25 738 q 89 340 25 442 q 272 186 153 239 l 274 185 m 736 31 l 736 31 q 731 32 733 31 q 722 39 728 33 q 706 57 715 44 q 679 91 696 69 q 638 146 663 113 q 579 228 614 179 q 569 224 574 225 q 515 204 547 213 q 421 196 482 196 q 283 215 342 196 q 114 358 174 264 q 54 578 54 451 q 138 849 54 736 q 358 1014 222 961 q 404 1024 378 1022 q 479 1025 431 1025 q 486 1025 483 1025 q 594 1017 551 1026 q 774 876 700 979 q 847 644 847 774 q 828 525 847 590 q 792 426 810 460 q 794 386 782 414 q 842 301 807 358 q 844 299 843 300 q 864 264 851 286 q 888 219 876 242 q 899 188 899 197 q 874 160 892 179 q 836 121 856 140 q 807 93 817 101 q 773 58 786 71 q 753 40 760 46 q 742 33 746 35 q 736 31 739 31 m 558 613 l 558 613 q 560 621 558 617 q 557 658 561 644 q 532 696 553 672 q 401 731 467 758 q 335 625 335 703 q 351 560 335 592 q 401 513 367 529 q 447 500 426 500 q 492 511 467 500 q 558 613 554 538 z "},"R":{"ha":928,"x_min":61,"x_max":899,"o":"m 439 808 l 439 808 q 532 767 503 799 q 561 700 561 735 q 524 631 561 664 q 421 596 488 599 q 423 690 422 657 q 425 741 424 722 q 428 778 426 760 q 431 810 429 790 l 439 808 m 451 628 l 451 628 q 513 660 493 638 q 532 700 532 682 q 515 742 532 721 q 457 775 497 764 q 457 775 457 775 q 457 775 457 775 q 454 743 456 760 q 452 701 453 726 q 451 628 451 675 m 447 51 l 447 51 q 410 -14 443 7 q 392 -21 404 -17 q 351 -27 381 -25 q 260 -29 321 -29 l 258 -29 q 258 -29 258 -29 q 186 -28 218 -29 q 118 -22 142 -26 q 82 -3 94 -17 l 69 8 l 67 24 q 65 30 65 26 q 64 42 64 33 q 63 67 64 50 q 63 114 63 85 q 63 188 63 143 q 61 501 61 317 q 63 642 63 532 q 64 861 63 751 q 67 1000 65 971 l 67 1001 q 94 1060 72 1043 q 139 1081 117 1076 q 227 1094 160 1086 q 368 1103 294 1103 q 865 889 722 1103 q 894 824 888 856 q 899 739 899 793 q 893 651 899 685 q 839 536 878 588 q 767 457 800 485 q 628 369 696 392 q 669 310 649 340 q 774 163 721 240 q 800 113 788 142 q 801 51 813 83 q 746 4 786 15 q 735 1 740 1 q 719 -1 729 0 q 692 -5 710 -3 q 643 -10 675 -7 q 544 -21 607 -14 l 511 -25 l 490 1 q 447 51 479 15 m 394 11 l 394 11 q 422 125 426 31 q 478 62 450 94 q 514 19 506 29 l 525 6 l 542 8 q 640 18 604 15 q 688 24 669 22 q 714 27 706 26 q 727 29 722 28 q 738 32 732 31 q 763 46 754 38 q 772 61 771 54 q 772 103 781 82 q 749 146 763 124 q 646 293 696 224 q 581 385 607 346 q 582 385 581 385 q 583 385 582 385 q 667 419 631 399 q 747 478 704 439 q 813 551 776 504 q 864 657 850 599 q 869 740 869 689 q 864 818 869 790 q 840 874 860 846 q 699 1003 785 960 q 524 1060 614 1046 q 368 1074 433 1074 q 234 1066 300 1074 q 146 1053 168 1058 q 114 1038 128 1049 q 97 999 100 1026 l 97 999 q 93 823 94 968 q 92 501 92 678 q 92 389 92 440 q 92 296 92 338 q 92 221 92 254 q 92 162 92 188 q 92 117 92 136 q 93 83 93 97 q 93 60 93 69 q 94 46 93 51 q 94 37 94 40 q 94 33 94 33 q 94 31 94 32 l 97 24 l 103 18 q 112 11 106 14 q 133 6 118 8 q 177 1 147 3 q 258 0 207 0 q 258 0 258 0 l 260 0 q 327 1 301 0 q 367 4 353 3 q 386 8 381 6 q 394 11 392 10 m 729 60 l 729 60 q 721 58 725 58 q 708 56 717 57 q 683 53 700 54 q 636 47 667 51 q 538 38 600 43 q 515 64 535 40 q 470 116 496 88 q 423 167 444 144 q 397 189 401 189 q 392 169 393 185 q 392 129 392 153 q 390 71 392 99 q 379 38 388 43 q 346 31 371 33 q 294 29 321 29 q 260 29 267 29 q 258 29 260 29 q 218 29 249 29 q 159 31 188 29 q 124 38 131 33 q 122 188 122 51 q 122 502 121 324 q 124 824 122 681 q 126 996 125 967 q 133 1015 128 1010 q 154 1025 139 1021 q 237 1037 172 1029 q 368 1044 301 1044 q 621 1004 496 1044 q 815 858 746 964 q 835 813 831 835 q 839 739 839 788 q 835 663 839 690 q 792 574 824 617 q 726 499 761 532 q 651 443 685 461 q 574 413 617 425 q 560 408 565 410 q 551 407 554 407 q 547 407 549 407 q 545 407 546 407 q 542 406 544 407 q 557 367 533 403 q 621 276 581 331 q 722 131 672 207 q 745 88 739 108 q 729 60 751 67 m 392 567 l 392 567 l 417 567 q 545 609 499 567 q 592 700 592 651 q 556 785 592 744 q 443 838 519 825 l 404 842 q 399 781 400 801 q 394 740 396 761 q 392 681 393 719 q 392 567 392 642 z "},"S":{"ha":872,"x_min":31,"x_max":851,"o":"m 764 107 l 764 107 q 630 13 717 44 q 436 -27 543 -18 q 229 -36 329 -36 q 186 -35 199 -36 q 169 -35 174 -35 l 165 -33 l 31 1 l 31 122 q 31 168 31 151 q 31 193 31 185 q 31 206 31 201 q 31 214 31 210 q 32 226 32 218 q 32 242 32 233 l 32 269 q 33 286 32 279 q 35 306 32 292 q 51 333 39 319 l 81 363 l 118 346 q 129 340 124 343 q 168 326 149 332 q 221 319 188 319 q 279 325 247 319 q 207 403 249 361 q 78 563 124 483 q 49 721 49 621 q 72 853 49 800 q 151 961 94 907 q 306 1066 217 1024 q 456 1124 394 1108 q 667 1147 568 1147 q 668 1147 668 1147 q 688 1147 678 1147 l 689 1147 q 813 1088 786 1147 q 827 1011 825 1061 q 829 868 829 961 q 829 808 829 840 l 829 749 l 772 749 q 754 746 767 747 q 718 744 742 744 q 653 749 682 744 q 601 751 626 751 q 549 744 567 750 q 526 735 532 739 q 519 726 524 733 q 513 699 514 718 q 543 663 519 688 q 592 615 567 639 l 592 614 q 761 393 710 496 q 801 224 808 294 q 767 111 794 153 l 764 107 m 229 -6 l 229 -6 q 422 2 318 -6 q 610 38 525 10 q 739 125 696 67 l 740 126 q 571 593 851 310 l 571 593 q 506 658 529 633 q 483 697 483 683 q 491 735 483 717 q 524 767 499 754 q 601 782 550 781 q 656 778 629 782 q 718 775 683 775 q 753 776 742 775 q 769 778 764 776 q 769 779 769 779 q 769 779 769 779 l 799 779 l 799 808 q 799 868 799 840 q 786 1075 803 1029 q 756 1105 775 1096 q 718 1116 738 1114 q 689 1118 699 1118 l 689 1118 q 668 1117 678 1118 q 463 1094 571 1117 q 319 1039 404 1079 q 172 940 233 999 q 99 842 119 890 q 79 721 79 794 q 106 575 79 628 q 229 424 147 503 q 282 367 257 394 q 318 319 307 340 q 324 307 322 314 q 280 295 310 300 q 221 290 250 290 q 160 297 182 290 q 117 314 138 304 q 117 314 117 314 q 107 318 111 317 l 88 326 l 74 313 q 64 297 65 304 q 63 286 63 290 q 63 286 63 286 q 63 283 63 285 q 63 283 63 283 q 63 283 63 283 q 61 269 61 279 l 61 240 q 61 213 61 222 q 60 204 61 208 q 60 192 60 200 q 60 167 60 183 q 60 122 60 151 l 60 25 l 171 -4 l 172 -4 q 188 -6 176 -6 q 229 -6 200 -6 m 550 572 l 550 572 q 708 366 644 482 q 715 142 771 250 q 584 61 672 86 q 397 30 496 36 q 229 24 297 24 q 176 25 188 24 l 90 47 q 90 122 90 94 q 90 167 90 151 q 90 191 90 183 q 90 203 90 199 q 90 211 90 207 q 92 226 92 217 q 92 246 92 236 q 92 263 92 256 q 92 269 92 269 q 92 278 92 275 q 93 283 93 279 q 93 286 93 285 q 93 288 93 288 q 93 290 93 289 q 94 292 93 290 q 94 292 94 292 q 104 286 100 289 q 152 268 126 276 q 221 260 178 260 q 269 263 238 260 q 328 276 301 267 q 354 301 354 285 q 344 335 354 318 q 250 444 315 381 q 132 588 171 521 q 108 721 108 635 q 126 831 108 789 q 193 918 144 872 q 327 1010 247 971 q 471 1065 407 1049 q 669 1088 572 1088 q 689 1088 679 1088 q 758 1063 747 1088 q 769 869 772 1021 q 769 808 769 840 q 765 808 767 808 q 763 807 764 808 q 756 806 760 807 q 742 805 751 806 q 718 804 733 804 q 658 808 685 804 q 601 811 632 811 q 453 697 453 810 q 476 647 453 675 q 550 572 499 619 z "},"T":{"ha":976,"x_min":26,"x_max":953,"o":"m 439 -24 q 338 -14 363 -24 q 307 4 332 -12 q 299 31 299 24 q 288 264 293 64 q 276 729 279 511 l 26 729 q 28 1026 26 988 q 65 1113 28 1090 q 107 1124 74 1119 q 274 1129 147 1129 q 681 1128 578 1129 q 803 1126 785 1126 q 921 1100 897 1124 q 953 1011 953 1069 q 935 781 953 833 q 885 738 924 751 q 757 729 863 729 l 686 729 q 692 344 686 550 q 696 140 696 214 q 693 63 696 83 q 639 -8 686 6 q 540 -21 615 -15 q 439 -24 476 -24 m 439 6 q 539 10 493 6 q 626 19 601 13 q 658 44 651 26 q 665 126 665 63 q 661 343 665 199 q 657 681 657 524 l 657 757 q 757 760 674 760 l 782 760 q 877 767 854 760 q 908 796 900 775 q 921 929 918 821 l 922 1013 q 919 1046 922 1028 q 872 1090 914 1082 q 681 1099 839 1097 l 447 1100 q 139 1096 210 1100 q 88 1090 97 1093 q 62 1063 67 1085 q 57 760 57 1042 l 306 760 l 308 624 q 321 139 314 290 l 324 92 q 329 32 325 36 q 360 10 335 15 q 439 6 385 6 m 439 36 q 357 43 371 36 q 343 425 351 63 q 335 790 335 740 l 86 790 q 87 944 86 915 q 88 992 88 972 q 92 1056 88 1039 q 94 1061 92 1058 l 96 1061 q 447 1069 117 1069 q 682 1068 579 1069 q 798 1067 785 1067 q 829 1065 811 1067 q 881 1056 872 1061 q 893 1003 893 1043 l 892 931 q 883 817 889 851 q 866 794 879 797 q 792 790 853 790 l 757 790 q 647 786 675 790 q 626 774 626 783 l 626 707 q 632 343 626 539 l 636 168 q 635 69 636 93 q 626 50 632 53 q 576 42 615 44 q 496 38 538 39 q 439 36 454 36 z "},"U":{"ha":1071,"x_min":40,"x_max":1022,"o":"m 1004 1122 l 1004 1122 l 1007 1064 q 1010 685 1022 874 q 904 296 997 497 l 904 296 q 717 58 826 138 q 633 11 669 25 q 581 -6 597 -3 q 579 -6 581 -6 q 579 -7 579 -7 l 576 -8 l 565 -10 q 504 -18 535 -18 q 469 -15 490 -18 q 440 -10 449 -11 l 433 -8 l 432 -7 q 391 5 418 -4 q 332 33 364 14 q 244 107 292 58 l 243 108 q 72 443 132 228 q 49 573 54 508 q 42 733 43 638 l 42 757 q 42 906 40 840 q 53 1063 43 972 l 58 1115 l 443 1115 l 444 1040 q 450 777 447 869 q 457 642 453 685 q 469 578 461 599 l 469 578 q 515 480 496 508 q 543 449 535 451 q 560 464 547 450 l 561 465 q 597 533 585 490 q 613 663 608 575 q 619 910 617 750 q 622 1057 621 976 l 624 1114 l 1004 1122 m 979 678 l 979 678 q 976 1063 992 851 l 975 1092 l 653 1085 l 653 1057 q 650 910 650 975 q 642 661 647 751 q 625 524 638 571 q 583 446 613 476 l 583 444 q 539 419 558 415 q 519 430 533 419 q 485 472 506 440 q 442 568 465 504 q 428 635 432 590 q 421 774 424 679 q 414 1039 418 868 l 414 1086 l 86 1086 l 83 1060 q 71 905 72 969 q 71 757 69 840 l 72 735 q 78 577 72 640 q 101 451 83 514 q 265 128 158 243 l 265 128 q 349 58 310 82 q 404 32 378 40 q 442 21 431 24 q 442 21 442 21 l 443 21 l 446 19 q 504 11 489 11 q 558 19 531 11 l 565 21 l 568 22 q 571 22 569 22 q 574 24 572 22 q 574 24 574 24 q 622 39 589 26 q 699 82 656 51 q 876 308 803 158 l 878 310 q 979 678 961 482 m 682 1056 l 682 1056 l 947 1061 q 949 681 963 857 q 850 322 936 506 q 681 106 763 158 q 565 53 599 54 q 556 49 558 50 q 553 49 554 49 q 504 42 525 42 q 453 49 494 42 q 449 50 451 50 q 414 60 438 53 q 364 85 390 68 q 288 149 329 106 q 131 460 185 257 q 108 578 113 518 q 101 735 103 638 q 101 757 101 746 q 101 904 100 840 q 113 1056 103 968 l 383 1056 q 385 1039 385 1047 q 390 766 388 861 q 398 626 393 671 q 414 557 403 582 q 495 410 446 461 q 606 425 544 360 q 665 572 653 474 q 679 910 676 669 q 682 1056 681 975 z "},"V":{"ha":882,"x_min":-18,"x_max":893,"o":"m 425 -3 q 346 56 374 -3 l 3 946 q -18 1017 -18 988 q -1 1063 -18 1040 q 46 1092 19 1085 q 154 1101 82 1100 l 242 1100 q 329 1085 307 1099 q 438 922 363 1068 l 454 958 q 507 1063 499 1051 l 518 1074 q 535 1083 526 1081 q 600 1094 549 1090 q 769 1100 681 1100 q 833 1096 815 1100 q 893 1036 881 1083 l 893 1022 q 833 857 889 999 q 654 406 738 608 q 500 43 513 56 q 425 -3 468 -3 m 425 26 q 476 60 453 26 q 604 361 493 90 q 806 868 728 665 q 847 974 828 919 q 863 1031 863 1017 q 826 1068 863 1058 q 761 1071 806 1071 q 618 1065 715 1071 q 540 1053 549 1061 q 535 1049 538 1051 q 529 1041 533 1047 q 481 946 525 1035 q 438 856 460 900 q 422 885 431 871 q 310 1063 346 1039 q 204 1072 290 1072 q 57 1064 97 1072 q 24 1045 36 1060 q 11 1015 11 1031 q 31 957 11 994 l 374 67 q 425 26 393 26 m 425 56 q 400 79 411 56 l 58 968 q 42 1014 42 1004 q 101 1040 42 1036 q 206 1043 143 1043 q 299 1035 268 1042 q 396 871 322 1017 q 438 797 435 797 q 508 933 446 797 q 556 1029 551 1024 q 599 1035 563 1032 q 767 1042 686 1042 q 833 1031 831 1042 q 654 565 833 1013 q 450 75 485 142 q 425 56 436 56 z "},"W":{"ha":1082,"x_min":60,"x_max":997,"o":"m 925 -17 q 890 -10 908 -15 q 849 13 872 -6 q 600 224 800 49 l 528 286 q 381 167 485 256 q 222 38 278 81 q 165 1 182 7 l 147 -3 q 79 43 99 -3 q 69 157 74 58 q 60 747 63 331 l 60 944 q 64 1069 60 1036 l 78 1085 q 164 1108 101 1108 q 257 1111 203 1111 q 426 1094 400 1110 q 472 1006 468 1074 q 476 829 474 982 q 508 843 485 835 q 571 824 549 843 l 578 1107 q 769 1104 664 1107 q 918 1094 889 1101 q 969 1067 942 1089 l 976 1044 q 986 874 981 1024 q 997 215 997 536 q 994 53 997 92 l 992 31 l 986 4 q 958 -10 972 -3 q 925 -17 944 -17 m 925 14 q 960 24 938 14 l 963 38 q 968 264 968 69 l 967 401 q 956 872 961 732 q 953 938 954 911 q 951 983 953 965 q 947 1038 947 1038 l 943 1050 q 911 1067 919 1064 q 768 1075 889 1071 l 683 1078 l 607 1078 l 599 750 l 578 776 q 514 814 546 814 q 496 807 500 810 q 447 750 486 799 q 440 1018 447 958 q 418 1065 436 1053 l 414 1068 q 257 1082 379 1082 q 108 1071 131 1082 q 92 1057 101 1067 q 90 992 90 1040 q 94 399 90 638 q 99 192 94 300 q 107 57 103 64 q 124 32 107 40 q 144 26 133 26 q 154 28 150 26 q 261 107 188 44 l 360 188 q 529 324 488 297 q 621 244 560 299 q 896 18 868 25 q 925 14 900 14 m 933 43 q 907 44 917 43 q 750 172 883 54 q 533 356 539 356 q 458 308 519 356 l 307 182 q 142 56 157 58 q 128 228 131 56 q 119 882 119 543 q 121 1043 119 1024 q 167 1051 128 1049 q 257 1053 206 1053 q 400 1042 376 1050 q 415 924 415 1029 l 419 660 q 447 698 426 671 q 487 751 467 725 q 514 783 507 776 l 518 785 q 554 757 531 785 q 576 731 561 749 q 606 697 592 714 q 626 669 621 679 l 636 1049 q 767 1046 675 1049 q 917 1032 907 1042 q 926 872 921 1014 q 938 215 938 526 q 933 43 938 69 z "},"X":{"ha":969,"x_min":7,"x_max":944,"o":"m 638 -21 q 596 -6 611 -21 q 483 163 576 14 q 389 11 418 43 q 349 -11 374 -4 q 276 14 313 -11 q 153 113 239 39 q 64 183 89 167 q 7 253 7 199 q 22 297 7 272 q 204 486 44 333 q 233 515 207 492 q 58 721 113 653 q 18 799 18 771 q 31 836 18 817 q 156 971 46 861 q 294 1093 258 1071 q 332 1104 313 1104 q 383 1081 363 1104 q 492 903 414 1042 l 533 993 q 574 1074 556 1047 q 632 1104 596 1104 q 671 1093 651 1104 q 808 967 704 1071 q 932 832 913 863 q 942 796 942 814 q 917 731 942 764 q 728 525 900 710 q 929 304 907 338 q 944 256 944 278 l 944 235 q 793 90 908 190 q 669 -12 689 -1 q 638 -21 656 -21 m 638 8 q 665 21 650 8 q 774 113 693 42 l 821 154 q 915 246 883 207 l 915 256 q 849 356 915 281 l 686 525 q 803 649 756 600 q 888 742 864 713 q 913 796 913 772 q 909 810 913 801 q 868 861 906 818 q 724 1010 808 928 q 657 1066 672 1057 q 632 1075 642 1075 q 602 1062 614 1075 q 560 982 590 1049 q 493 840 538 926 q 469 882 481 860 q 361 1061 386 1032 q 332 1075 347 1075 q 298 1060 319 1075 q 176 950 276 1044 q 63 831 90 867 q 47 799 47 811 q 115 699 47 779 q 275 514 182 618 q 86 328 144 390 q 38 249 38 281 q 75 213 38 215 q 171 135 110 189 q 287 43 253 68 q 339 18 321 18 q 349 19 344 18 q 407 88 367 24 q 481 219 450 157 l 547 118 q 615 18 599 35 q 638 8 624 8 m 638 38 q 572 133 633 38 q 478 271 493 264 q 463 247 474 267 q 436 201 451 228 q 339 47 363 60 q 283 82 326 47 q 190 157 240 117 q 82 240 97 240 q 67 250 67 240 q 100 300 67 263 q 315 513 133 338 l 221 621 q 78 799 78 785 q 199 930 78 814 q 332 1046 319 1046 q 443 868 344 1046 q 494 781 488 785 q 510 807 496 781 q 588 969 563 908 q 632 1046 615 1046 q 765 926 647 1046 q 882 796 882 807 q 857 752 882 781 q 780 669 832 724 q 646 524 728 614 q 825 338 686 483 l 826 335 l 849 311 q 885 256 885 269 q 756 135 868 233 q 638 38 643 38 z "},"Y":{"ha":867,"x_min":-22,"x_max":893,"o":"m 367 -36 l 365 -36 q 300 -31 332 -36 q 242 33 250 -22 q 233 233 233 76 q 232 533 232 319 l 124 725 q 8 932 35 881 q -22 1026 -22 982 q -15 1063 -22 1047 q 40 1106 1 1096 q 153 1113 69 1113 l 324 1113 l 438 939 q 522 1083 500 1061 q 569 1106 536 1100 q 674 1111 603 1111 q 792 1107 760 1111 q 872 1082 847 1107 q 893 1035 893 1061 q 885 1001 893 1022 q 631 513 857 929 l 629 469 q 618 72 626 185 q 571 -22 614 -10 q 461 -33 556 -29 q 367 -36 397 -36 m 365 -7 l 456 -4 q 571 10 556 0 q 583 31 579 17 q 593 176 590 63 q 600 521 600 396 q 826 946 756 804 q 863 1035 863 1018 q 849 1063 863 1054 q 819 1075 836 1072 q 790 1078 803 1078 q 745 1080 778 1079 q 674 1082 713 1081 q 597 1081 624 1082 q 544 1063 556 1076 q 440 881 525 1046 l 307 1083 l 158 1083 q 69 1081 101 1083 q 22 1063 36 1078 q 7 1026 7 1049 q 31 954 7 997 q 150 739 67 885 q 263 540 196 660 q 264 203 263 294 q 275 17 264 40 q 365 -7 286 -7 m 365 22 q 303 31 307 22 q 293 317 293 58 l 293 547 q 88 911 138 819 q 38 1026 38 1003 q 50 1047 38 1040 q 98 1053 63 1053 q 292 1054 133 1054 l 444 821 l 492 914 q 567 1043 546 1022 q 603 1051 572 1049 q 674 1053 633 1053 q 786 1049 774 1050 l 807 1047 q 833 1035 833 1043 q 625 629 833 1013 l 571 528 l 569 471 q 551 33 563 50 q 500 28 540 31 q 365 22 418 22 z "},"Z":{"ha":992,"x_min":29,"x_max":960,"o":"m 735 -37 q 626 -35 717 -37 q 424 -28 535 -32 q 228 -22 313 -25 q 131 -18 143 -18 q 50 7 71 -14 q 29 60 29 28 q 40 103 29 75 q 185 379 54 139 q 358 710 321 628 l 276 714 l 174 719 q 85 731 106 722 q 43 778 53 742 q 33 925 39 792 l 31 1031 l 31 1096 q 792 1110 614 1110 q 881 1105 850 1110 q 933 1083 913 1100 q 953 1031 953 1065 q 911 918 953 1001 q 614 349 822 743 q 960 336 679 349 q 944 151 944 201 l 944 138 q 913 11 944 50 q 735 -37 879 -37 m 735 -8 q 889 29 863 -8 q 914 131 914 58 l 914 151 q 924 278 914 200 l 926 308 q 628 319 679 319 l 565 321 q 892 946 856 871 q 922 1031 922 1010 q 910 1063 922 1050 q 792 1081 892 1081 q 418 1075 696 1081 l 60 1068 l 61 994 l 68 832 q 79 768 71 779 q 88 760 82 765 q 124 752 93 756 q 278 743 156 749 l 401 736 q 211 365 382 678 q 58 60 58 86 q 69 28 58 42 q 132 11 81 15 q 231 8 146 11 q 425 1 315 4 q 735 -8 710 -8 m 735 21 l 626 24 q 121 43 192 38 q 93 49 97 44 q 89 60 89 53 q 133 158 89 75 q 238 353 178 242 q 438 756 438 717 q 436 763 438 761 q 279 772 422 765 q 104 786 115 779 q 93 926 96 801 q 92 995 93 958 q 90 1039 90 1032 q 744 1051 669 1051 q 869 1048 847 1051 q 892 1031 892 1044 q 885 1004 892 1022 q 799 828 872 968 l 519 299 q 585 290 519 290 l 606 290 q 893 281 692 290 q 885 151 885 201 l 885 135 q 865 46 885 71 q 735 21 844 21 z "},"[":{"ha":344,"x_min":28,"x_max":317,"o":"m 313 29 l 310 146 l 182 156 l 186 956 l 317 956 l 317 1086 l 249 1086 q 164 1086 210 1086 q 84 1085 118 1086 q 42 1081 50 1083 q 35 1068 38 1079 q 31 1027 33 1057 q 28 940 29 997 q 28 790 28 883 q 28 558 28 697 q 29 194 28 344 q 33 36 31 44 q 79 32 39 33 q 172 30 119 31 q 265 29 225 29 l 313 29 z "},"\\":{"ha":613,"x_min":28,"x_max":585,"o":"m 503 10 q 556 14 532 10 q 585 25 581 18 l 585 26 q 538 181 585 42 q 422 510 490 319 q 289 882 354 700 q 224 1065 253 982 q 188 1069 203 1067 q 132 1074 154 1072 q 85 1076 110 1076 q 29 1063 38 1076 q 28 1056 28 1061 q 51 970 28 1038 q 136 747 75 903 q 277 385 222 526 q 363 167 332 244 q 406 58 393 90 q 424 24 419 26 q 453 13 431 17 q 503 10 476 10 z "},"]":{"ha":361,"x_min":28,"x_max":333,"o":"m 324 19 q 328 358 326 222 q 332 649 331 524 q 333 935 333 774 q 332 1067 333 1054 q 182 1076 318 1076 l 165 1076 q 76 1074 106 1076 q 38 1064 47 1072 q 28 1036 28 1056 l 29 1004 q 44 947 31 958 q 117 936 58 936 l 178 936 q 178 664 178 765 q 182 449 179 563 q 190 143 185 336 l 42 138 q 42 129 42 135 q 44 95 43 115 q 49 57 46 75 q 58 32 53 39 q 117 22 67 24 q 253 19 168 19 l 324 19 z "},"^":{"ha":613,"x_min":28,"x_max":585,"o":"m 511 713 q 581 726 578 713 q 582 729 581 728 q 585 738 585 732 q 575 758 585 744 q 540 806 565 772 q 464 903 514 840 q 447 925 456 914 q 347 1049 378 1015 q 304 1083 317 1083 l 303 1083 q 154 918 281 1078 q 56 786 83 828 q 28 729 28 744 q 32 718 28 722 q 53 714 35 715 q 97 713 72 713 l 122 713 q 151 717 140 713 q 178 742 163 722 q 222 804 193 763 q 239 828 231 815 q 276 878 260 858 q 296 899 293 899 q 322 873 299 899 q 374 813 344 847 q 426 750 403 778 q 457 713 453 717 l 511 713 z "},"_":{"ha":886,"x_min":28,"x_max":858,"o":"m 442 29 q 722 32 604 29 q 849 38 839 35 q 858 82 858 49 q 857 133 858 106 q 856 146 856 139 q 700 144 775 146 q 35 129 75 144 q 28 94 28 117 q 38 47 28 69 q 44 40 39 43 q 62 35 49 38 q 101 32 75 33 q 170 30 126 31 q 281 29 214 29 q 442 29 347 29 z "},"`":{"ha":363,"x_min":28,"x_max":335,"o":"m 258 796 q 308 799 286 796 q 333 808 331 801 l 335 815 q 320 868 335 833 q 283 938 306 903 q 215 1018 256 979 q 139 1072 174 1057 q 103 1083 124 1079 q 64 1086 82 1086 q 28 1078 38 1086 l 28 1076 q 36 1056 28 1069 q 57 1028 44 1043 q 135 881 118 946 q 153 831 143 851 q 179 804 164 811 q 213 798 192 800 q 258 796 235 796 z "},"a":{"ha":890,"x_min":-18,"x_max":888,"o":"m 636 1069 l 636 1069 q 662 979 642 1057 q 710 791 682 901 q 767 568 739 681 q 806 408 789 478 q 836 288 824 339 q 858 199 849 236 q 872 138 867 163 q 881 99 878 114 q 886 78 885 85 q 888 67 888 71 q 888 63 888 64 q 867 6 888 22 q 831 -12 847 -10 q 797 -17 818 -15 q 738 -19 776 -18 q 736 -19 738 -19 q 697 -19 719 -19 l 697 -19 q 671 -21 683 -19 q 669 -21 671 -21 q 577 -18 619 -24 q 510 19 535 -12 q 478 129 485 58 q 476 142 478 136 q 475 150 475 147 l 475 151 l 467 194 q 407 194 432 194 q 404 175 406 185 q 375 32 390 79 l 375 22 l 364 6 q 321 -27 343 -21 q 267 -33 299 -33 q 206 -31 253 -33 q 113 -26 160 -29 q 42 -22 65 -24 l -10 -19 l -14 31 q -15 39 -15 35 q -15 39 -15 39 q -17 71 -18 54 q -7 124 -15 88 q 18 233 1 160 q 103 578 58 400 q 182 890 147 757 q 226 1054 217 1024 l 228 1058 l 229 1061 q 300 1106 249 1099 q 374 1108 318 1108 q 478 1108 438 1108 q 544 1108 519 1108 q 581 1106 568 1107 q 599 1103 593 1104 q 608 1099 604 1101 l 628 1089 l 636 1069 m 822 15 l 822 15 q 847 30 840 21 q 856 48 854 39 q 857 63 857 57 q 857 65 857 63 q 856 71 857 67 q 854 83 856 75 q 850 103 853 90 q 842 135 847 115 q 831 181 838 154 q 816 244 825 208 q 796 327 807 281 q 770 432 785 374 q 738 561 756 490 q 713 657 732 583 q 672 820 694 731 q 631 978 649 910 q 610 1057 614 1047 l 604 1068 l 594 1072 q 590 1074 593 1074 q 580 1076 588 1075 q 558 1077 572 1076 q 521 1078 544 1078 q 461 1079 497 1079 q 374 1079 425 1079 q 297 1075 325 1079 q 257 1049 268 1071 l 256 1047 l 256 1044 q 210 881 244 1014 q 132 571 176 749 q 47 226 88 393 q 27 138 35 171 q 17 89 19 106 q 13 63 14 72 q 14 43 13 53 q 14 43 14 43 q 15 33 15 39 l 18 8 l 43 7 q 113 3 65 6 q 208 -2 161 0 q 267 -4 254 -4 q 310 0 294 -4 q 339 24 325 4 l 346 32 l 346 36 q 374 179 361 81 q 381 221 378 203 q 426 224 396 224 q 490 224 456 224 l 490 224 l 504 157 l 504 156 q 508 133 506 149 q 535 36 514 68 q 588 10 553 14 q 669 8 624 7 q 697 10 682 10 q 736 11 719 10 q 738 11 736 11 q 793 12 774 11 q 822 15 813 13 m 407 389 l 407 389 q 400 389 403 389 l 438 518 q 454 467 446 492 q 479 389 467 428 q 444 388 464 388 q 407 389 425 388 m 374 1050 l 374 1050 q 374 1050 374 1050 q 407 1050 376 1050 q 476 1049 438 1050 q 546 1048 515 1049 q 582 1046 576 1047 q 624 886 588 1031 q 708 555 661 742 q 792 220 756 368 q 828 63 828 72 q 826 50 828 54 q 815 44 824 46 q 788 41 807 42 q 736 40 769 40 q 696 39 718 39 q 668 38 682 39 q 599 38 629 36 q 558 54 569 40 q 545 91 550 67 q 538 138 540 115 q 533 163 535 153 l 515 253 q 490 253 503 253 q 354 243 365 256 q 344 183 350 228 q 331 102 339 143 q 315 43 324 61 l 315 42 q 305 31 310 35 q 292 26 300 28 q 267 25 283 25 q 209 27 254 25 q 117 32 164 29 q 46 36 69 35 q 44 46 44 42 q 43 62 43 54 q 46 85 43 69 q 56 133 49 101 q 76 221 64 165 q 161 565 117 388 q 240 874 206 743 q 283 1036 274 1006 q 308 1048 288 1046 q 374 1050 328 1050 m 517 369 l 517 369 l 517 371 q 482 476 500 422 q 451 572 464 532 q 433 613 438 613 l 360 360 q 407 360 383 360 q 484 359 451 358 q 517 369 517 360 z "},"b":{"ha":1033,"x_min":67,"x_max":1000,"o":"m 485 310 l 485 310 q 504 293 499 301 q 511 280 510 285 q 513 272 513 275 q 508 256 513 263 q 490 239 504 250 l 489 239 q 472 226 479 229 q 449 221 464 222 q 401 219 433 219 l 404 331 q 485 310 440 338 m 482 271 l 482 271 q 482 272 482 271 q 468 288 482 278 q 433 303 450 300 l 432 247 q 456 250 449 249 q 456 250 456 250 q 459 251 457 250 q 463 253 461 251 q 469 258 465 256 l 471 261 q 482 271 481 268 m 492 821 l 492 821 q 522 798 513 808 q 533 780 532 788 q 535 769 535 772 q 515 731 535 749 q 474 701 496 714 q 436 687 454 692 q 392 682 418 682 l 396 833 q 431 835 410 835 q 461 832 447 835 q 492 821 475 829 m 458 726 l 458 726 q 506 769 506 757 q 495 785 506 776 q 476 796 485 793 q 453 805 464 803 q 431 807 443 807 q 425 807 428 807 l 422 713 q 458 726 439 717 m 988 347 l 988 347 q 989 249 1000 311 q 901 115 978 186 q 678 4 817 43 l 674 3 q 439 -21 563 -21 q 297 -10 358 -21 l 294 -10 q 104 57 192 15 l 71 72 l 67 1017 l 100 1032 q 283 1094 201 1079 q 474 1113 364 1110 l 476 1113 q 778 1056 651 1113 q 963 893 904 999 q 983 847 976 867 q 986 746 996 800 q 960 658 976 692 l 958 656 q 826 519 914 582 q 923 449 876 493 q 988 347 969 404 m 881 136 l 881 136 q 958 340 988 231 q 896 435 942 392 q 799 501 850 478 l 799 501 q 767 515 781 510 q 863 585 817 543 q 932 669 908 628 l 932 669 q 956 751 947 701 q 954 839 965 800 q 936 881 949 857 q 796 1015 883 971 q 619 1072 708 1058 q 476 1085 529 1085 l 475 1085 q 290 1067 368 1082 q 114 1007 211 1053 l 97 1000 l 101 90 l 117 82 q 301 18 203 42 l 304 17 q 439 7 361 7 q 667 31 560 7 l 669 31 q 881 136 801 67 m 785 476 l 785 476 q 874 416 832 454 q 929 333 915 378 q 861 157 957 249 q 660 57 786 92 q 439 35 557 35 q 310 44 364 35 q 131 107 217 67 l 126 982 q 296 1040 221 1026 q 476 1056 371 1054 q 726 1014 604 1056 q 908 868 849 972 q 926 832 921 846 q 927 754 935 799 q 906 682 919 710 q 842 606 885 646 q 750 539 800 565 q 724 524 738 532 q 706 509 711 515 q 717 503 701 503 q 737 497 722 503 q 765 485 751 492 q 785 476 779 479 m 510 218 l 510 218 q 534 242 526 231 q 542 272 542 253 q 503 332 542 306 q 438 358 468 356 q 385 357 407 361 q 375 356 379 356 l 369 192 q 393 192 382 192 q 450 193 431 192 q 483 200 469 194 q 510 218 496 206 m 489 678 l 489 678 q 565 769 565 721 q 506 846 565 813 q 431 863 475 863 q 379 861 397 863 q 367 860 371 860 l 361 654 l 388 654 q 442 660 419 654 q 489 678 464 665 z "},"c":{"ha":1006,"x_min":-1,"x_max":967,"o":"m 556 -24 q 472 -17 511 -24 q 29 343 144 57 q -1 524 -1 435 q 132 886 -1 710 q 501 1124 264 1054 l 507 1124 q 650 1136 564 1136 q 881 1094 794 1136 q 946 1054 929 1074 l 950 1047 q 963 1014 960 1033 q 967 896 967 978 q 935 774 967 800 q 824 743 907 743 q 663 711 749 743 q 469 568 522 660 q 453 526 453 535 l 453 525 l 454 519 q 586 386 478 424 q 750 360 668 360 q 804 363 764 360 l 860 364 q 939 343 918 364 q 960 303 954 326 q 960 267 961 286 q 960 233 960 249 q 948 120 958 157 q 896 58 938 83 q 728 -3 825 17 q 556 -24 632 -24 m 556 7 q 724 26 631 7 q 879 83 817 46 q 912 113 901 97 q 925 156 922 128 q 929 235 928 183 q 931 271 931 251 l 932 272 q 929 301 929 286 q 878 335 921 332 q 806 332 842 335 l 760 329 q 571 361 663 329 q 426 504 451 401 q 424 528 424 515 q 426 546 424 536 q 497 653 446 604 q 651 738 558 704 q 824 772 743 772 q 914 796 893 772 q 936 896 936 814 q 933 1006 936 978 q 925 1031 929 1026 q 869 1067 918 1046 q 780 1097 828 1086 q 650 1107 732 1107 q 511 1094 568 1107 q 154 867 282 1028 q 28 525 28 700 q 58 353 28 440 q 478 13 167 82 q 556 7 514 7 m 556 36 q 482 42 515 36 q 178 213 290 83 q 58 528 58 347 q 178 849 58 689 q 518 1065 299 1003 q 650 1076 571 1076 q 774 1067 729 1076 q 855 1040 818 1057 q 899 1014 892 1024 q 907 896 907 1004 q 892 817 907 831 q 824 803 878 803 q 638 766 735 803 q 476 675 540 729 q 418 597 443 642 q 393 525 393 553 q 397 496 393 510 q 560 335 431 378 q 760 300 663 300 l 807 303 q 858 306 838 306 q 900 294 899 306 q 901 271 901 283 l 900 235 q 896 163 899 186 q 886 128 893 139 q 864 108 879 118 q 714 54 803 72 q 556 36 625 36 z "},"d":{"ha":1008,"x_min":68,"x_max":985,"o":"m 421 350 l 403 351 q 392 751 403 507 q 485 721 422 749 q 614 526 614 647 q 554 398 614 444 q 421 350 494 351 m 433 381 q 538 424 492 385 q 585 526 585 463 q 472 693 585 631 q 424 713 444 706 q 433 381 432 511 m 218 -35 q 110 -17 135 -35 l 94 -7 l 86 10 q 68 547 68 38 q 82 1071 68 1022 l 94 1097 q 136 1114 126 1113 q 233 1118 169 1118 q 426 1103 315 1118 q 672 1021 538 1089 q 917 793 833 933 q 985 549 985 676 q 833 197 985 353 q 467 -8 697 58 q 218 -35 356 -35 m 218 -4 q 460 21 358 -4 q 804 210 675 83 q 954 550 954 358 q 890 778 954 669 q 658 994 813 911 q 244 1088 490 1088 q 117 1075 142 1088 q 110 1064 115 1071 q 99 547 99 1049 q 101 206 99 346 q 103 124 103 156 q 106 72 104 92 q 108 43 107 53 q 111 29 110 33 q 114 22 113 25 q 117 14 115 18 q 127 8 121 13 q 153 0 133 4 q 218 -4 172 -4 m 218 25 q 140 35 157 25 q 128 547 128 82 q 139 1053 128 1017 q 244 1057 149 1057 q 434 1041 335 1057 q 643 968 533 1025 q 907 667 853 850 q 925 549 925 607 q 831 283 925 428 q 451 50 738 138 q 218 25 351 25 m 419 319 q 575 377 506 319 q 644 526 644 435 q 608 649 644 590 q 497 747 572 708 q 374 785 407 785 q 361 786 365 785 l 361 765 q 372 324 372 538 l 419 319 z "},"e":{"ha":994,"x_min":71,"x_max":940,"o":"m 938 -39 l 938 -39 l 869 -40 q 364 -40 524 -40 q 241 -40 285 -40 q 174 -40 197 -40 q 142 -37 151 -39 q 124 -35 132 -36 q 124 -35 124 -35 q 119 -33 121 -33 l 71 -24 l 71 24 q 71 163 71 93 q 72 771 71 503 q 75 976 72 906 q 78 1042 76 1019 q 83 1076 79 1065 q 92 1094 86 1086 l 110 1117 l 139 1118 q 363 1118 218 1119 q 653 1114 508 1117 q 878 1111 815 1111 l 938 1111 l 938 1054 q 939 981 939 1015 q 940 840 940 896 q 933 774 940 804 q 894 728 926 743 q 886 725 892 726 q 869 722 881 724 q 834 719 857 721 q 774 717 811 718 q 681 716 738 717 q 544 715 624 715 l 544 700 q 547 700 546 700 q 554 700 550 700 q 691 699 649 701 q 754 688 733 697 q 806 606 799 667 q 804 517 807 574 q 801 458 803 490 l 800 401 l 544 401 l 544 356 q 872 350 846 357 q 939 274 932 339 q 940 221 940 256 q 939 121 940 186 q 938 18 939 78 l 938 -39 m 357 -11 l 357 -11 q 869 -11 515 -11 l 907 -10 l 908 18 q 910 121 908 78 q 911 219 911 185 q 908 271 911 254 q 867 321 906 315 q 524 326 813 329 q 521 326 522 326 q 514 326 517 326 l 514 431 l 771 431 l 772 460 q 775 518 774 492 q 775 603 778 574 q 769 631 775 614 q 742 660 763 649 q 684 669 725 668 q 554 671 643 671 q 551 671 553 671 q 514 671 533 671 l 514 744 q 515 744 515 744 q 643 745 589 744 q 736 747 697 746 q 801 748 775 747 q 842 749 826 749 q 865 751 857 750 q 877 753 874 753 q 883 756 881 754 q 904 781 899 761 q 910 840 910 801 q 910 979 911 896 q 908 1053 908 1015 l 907 1082 l 878 1082 q 651 1085 815 1082 q 363 1089 508 1088 q 139 1089 218 1090 l 125 1089 l 117 1076 q 113 1071 114 1075 q 110 1057 111 1067 q 107 1028 108 1047 q 105 977 106 1010 q 103 894 104 944 q 101 771 103 843 q 101 163 100 503 q 101 24 101 93 l 101 0 l 125 -4 q 129 -6 128 -6 q 146 -8 136 -7 q 177 -10 156 -10 q 240 -11 199 -11 q 357 -11 282 -11 m 861 292 l 861 292 q 872 289 868 292 q 877 278 875 286 q 880 253 879 271 q 881 203 881 235 q 879 121 881 171 q 878 19 879 78 q 615 18 726 18 q 425 18 503 18 q 297 18 347 18 q 217 18 246 18 q 172 19 188 18 q 149 21 157 19 q 136 24 142 22 q 131 24 133 24 q 131 163 131 93 q 132 770 131 504 q 140 1060 133 1036 q 364 1060 219 1061 q 651 1056 508 1058 q 878 1053 815 1053 q 879 979 878 1014 q 880 842 881 896 q 871 782 879 788 q 785 776 857 778 q 631 774 714 775 q 499 774 549 774 q 485 774 490 774 l 485 642 q 554 642 522 642 q 676 641 635 642 q 729 633 717 640 q 745 601 743 628 q 744 519 747 574 q 742 460 743 493 l 485 460 l 485 297 q 524 297 497 297 q 649 297 576 297 q 783 297 722 297 q 861 292 844 296 z "},"f":{"ha":961,"x_min":71,"x_max":928,"o":"m 540 58 l 540 58 q 483 -42 539 -18 q 443 -51 463 -51 q 442 -51 442 -51 q 440 -51 442 -51 q 437 -51 439 -51 q 431 -51 435 -51 q 422 -51 428 -51 q 160 -39 194 -40 q 133 -42 146 -43 q 117 -37 129 -42 q 94 -22 106 -33 q 79 14 83 -10 q 76 33 78 21 q 74 93 75 54 q 71 292 72 161 q 71 851 71 553 q 71 1053 71 960 l 71 1111 l 926 1106 l 926 1043 q 927 911 928 964 q 925 827 926 858 q 922 780 924 796 q 917 758 919 764 q 913 747 915 751 l 904 729 l 886 721 q 874 716 882 718 q 849 713 867 714 q 794 709 831 711 q 697 707 758 707 q 710 699 704 703 l 714 694 l 718 690 q 733 660 724 685 q 743 578 743 636 q 735 513 742 536 q 722 479 729 490 q 711 465 715 468 l 708 464 l 707 461 q 533 446 660 426 q 533 446 533 446 q 532 446 533 446 q 536 340 535 388 q 540 58 543 114 m 469 -15 l 469 -15 q 499 11 490 -6 q 511 61 508 28 q 506 340 514 114 q 501 478 504 400 q 536 475 519 476 q 688 483 658 460 l 689 486 q 713 578 711 507 q 710 629 714 603 q 694 672 707 656 l 693 675 l 690 676 q 636 692 676 689 q 504 693 596 694 q 503 693 504 693 q 503 693 503 693 q 501 697 501 696 q 501 699 501 699 q 499 717 500 708 q 499 732 499 726 q 519 733 504 732 q 535 733 522 733 q 567 733 549 733 q 699 735 646 735 q 785 738 753 736 q 836 740 818 739 q 862 743 854 742 q 872 747 869 744 l 882 751 l 886 760 q 889 765 888 761 q 891 779 890 769 q 893 807 892 789 q 895 856 894 825 q 897 932 896 886 q 897 1043 897 978 l 897 1076 l 101 1082 l 101 1053 q 101 851 101 960 q 101 292 100 553 q 104 93 103 161 q 107 36 106 56 q 108 18 107 24 q 116 -1 111 6 q 127 -10 121 -7 q 136 -12 133 -12 q 154 -8 144 -14 q 234 -12 172 -10 q 424 -22 296 -15 q 431 -22 428 -22 q 435 -22 433 -22 q 439 -22 438 -22 q 441 -22 440 -22 q 442 -22 442 -22 q 442 -22 442 -22 q 443 -22 443 -22 q 469 -15 456 -22 m 668 506 l 668 506 q 622 498 657 497 q 539 504 586 499 q 471 508 506 507 q 476 339 474 411 q 481 185 479 246 q 481 91 482 125 q 478 41 481 57 q 471 19 476 25 q 456 10 465 14 q 443 7 447 7 q 425 7 443 7 q 356 10 400 8 q 263 15 311 13 q 180 19 215 18 q 142 21 144 21 q 133 124 136 0 q 131 447 131 247 q 131 851 131 646 q 131 1053 131 960 l 867 1047 q 867 1043 867 1046 q 867 988 867 1028 q 866 900 867 947 q 864 817 865 853 q 860 772 863 781 q 797 767 850 769 q 679 765 744 765 q 565 763 614 764 q 518 763 526 763 q 473 748 479 761 q 472 696 467 735 q 475 664 474 682 q 504 664 490 664 q 671 654 647 667 q 682 610 679 642 q 681 547 685 578 q 668 506 678 517 z "},"g":{"ha":969,"x_min":-1,"x_max":903,"o":"m 544 -22 q 396 -7 464 -22 l 392 -7 q 60 240 168 58 q 15 356 32 292 q -1 472 -1 419 q 21 606 -1 531 q 71 738 43 681 q 187 885 114 813 q 324 999 260 957 q 688 1099 506 1099 q 897 1024 872 1099 q 903 951 903 999 l 901 897 l 903 869 q 828 744 903 744 q 773 754 818 744 q 704 764 728 764 q 654 757 683 764 q 433 607 489 731 q 417 563 418 574 q 414 494 414 543 q 417 429 414 444 q 432 394 417 421 q 539 315 479 315 q 512 347 519 329 q 503 385 504 365 q 511 521 503 496 q 532 565 515 533 l 561 565 q 575 567 567 567 l 593 568 l 649 569 q 707 571 679 569 l 900 572 q 901 485 900 504 q 903 239 903 392 q 889 100 903 125 l 889 97 l 888 96 q 683 -8 861 32 l 682 -8 q 544 -22 619 -22 m 544 7 q 676 21 617 7 q 861 108 842 61 l 861 111 q 872 308 872 131 l 871 543 q 763 542 815 543 l 661 540 l 593 538 q 565 536 569 538 l 551 536 l 540 514 q 533 417 533 492 q 539 358 533 365 l 542 353 q 603 329 563 329 l 603 293 q 547 286 575 286 q 406 379 458 286 q 388 424 390 406 q 383 494 383 450 q 384 530 383 508 q 388 570 385 551 q 406 619 392 589 q 649 788 468 758 q 708 793 685 793 q 777 784 738 793 q 828 775 817 775 q 868 821 861 775 q 872 906 872 846 q 869 1003 872 978 q 863 1028 868 1017 q 779 1061 851 1050 q 688 1068 717 1068 q 208 865 415 1068 q 97 725 138 796 q 50 597 71 669 q 29 472 29 525 q 44 363 29 424 q 85 254 60 303 q 400 22 188 83 l 401 22 q 544 7 467 7 m 544 38 q 408 51 469 38 q 111 269 207 108 q 73 372 88 315 q 58 472 58 429 q 78 592 58 522 q 124 710 99 661 q 226 840 160 774 q 354 946 293 907 q 688 1039 521 1039 q 742 1036 707 1039 q 835 1014 828 1026 q 842 907 842 1001 l 843 881 q 828 804 843 804 l 785 813 q 713 824 738 824 q 643 817 685 824 q 378 632 449 785 q 357 574 363 599 q 353 493 353 543 q 358 419 353 444 q 379 364 363 394 q 547 256 442 256 q 632 269 590 256 l 632 344 q 602 360 631 360 q 565 371 574 360 q 563 408 563 378 q 569 506 563 485 l 572 507 l 647 510 l 764 511 l 840 513 l 842 485 l 843 306 q 833 122 843 153 q 669 50 815 85 q 544 38 614 38 z "},"h":{"ha":1103,"x_min":65,"x_max":1015,"o":"m 482 -21 l 482 -21 l 422 -21 q 407 -21 418 -21 q 406 -21 407 -21 q 336 -21 381 -21 q 244 -21 292 -21 q 163 -18 193 -19 q 86 6 111 -18 l 72 17 l 69 33 q 66 120 67 43 q 67 392 65 197 q 74 943 68 586 q 75 1049 75 1039 l 75 1106 l 482 1106 l 482 707 l 597 707 l 597 1106 l 1015 1106 l 1015 1049 q 1011 379 1015 586 q 1001 40 1007 172 l 1000 -15 l 619 -22 l 610 25 q 607 42 608 29 q 604 69 606 56 q 603 88 603 82 l 603 88 q 598 184 599 125 q 597 347 597 243 q 597 364 597 354 q 597 368 597 365 q 483 368 526 368 q 482 126 482 307 q 482 119 482 124 q 482 36 482 82 l 482 -21 m 406 8 l 406 8 q 407 8 407 8 q 422 8 417 8 l 453 8 l 453 36 q 451 119 453 82 q 451 126 451 124 q 456 394 451 354 q 628 397 506 397 q 628 349 628 371 q 628 347 628 347 q 632 90 626 156 l 632 90 q 632 90 632 90 q 633 81 632 89 q 635 61 635 72 q 638 42 636 50 q 639 31 639 33 l 643 7 l 971 14 l 972 40 q 982 379 978 172 q 986 1049 986 586 l 986 1078 l 628 1078 l 628 679 l 453 679 l 453 1078 l 104 1078 l 104 1049 q 103 943 104 1039 q 99 40 90 50 l 100 31 l 107 25 q 115 19 110 22 q 136 14 121 17 q 183 10 151 11 q 268 8 214 8 q 406 8 322 7 m 436 421 l 436 421 q 428 407 431 419 q 424 364 425 394 q 422 276 422 333 q 422 126 422 218 q 422 36 422 85 q 406 36 417 36 q 307 36 369 36 q 190 38 244 36 q 128 46 136 40 q 126 237 125 71 q 128 606 126 403 q 133 943 131 808 q 135 1049 135 1038 l 422 1049 l 422 650 l 657 650 l 657 1049 l 956 1049 q 951 381 956 589 q 942 42 947 174 l 668 36 q 667 46 668 38 q 665 65 667 54 q 663 84 664 76 q 663 93 663 92 q 658 188 658 129 q 657 347 657 246 q 657 425 657 382 q 635 425 646 425 q 436 421 463 426 z "},"i":{"ha":1038,"x_min":53,"x_max":1007,"o":"m 431 -31 l 431 -31 q 179 -26 236 -31 q 99 -7 129 -25 q 69 24 76 7 q 60 51 61 40 l 60 53 q 55 117 56 72 q 54 261 54 161 l 54 360 l 313 365 l 317 714 l 54 714 l 54 771 q 54 836 54 806 q 57 1025 53 988 q 61 1053 57 1036 q 79 1087 65 1071 q 122 1108 93 1103 l 125 1110 q 890 1104 189 1118 q 904 1104 900 1104 q 940 1096 924 1106 q 972 1053 965 1082 q 978 971 978 1024 q 979 822 979 900 q 978 771 978 794 l 978 714 l 732 714 q 726 590 728 663 q 726 363 725 517 l 1007 363 l 988 290 q 978 92 975 250 q 978 28 978 63 l 978 -29 l 918 -29 q 599 -31 731 -29 q 431 -31 503 -31 m 89 57 l 89 57 q 95 37 90 47 q 114 17 100 26 q 182 3 132 6 q 431 -1 236 -1 q 597 -1 501 -1 q 599 -1 597 -1 q 918 -1 731 -1 l 949 -1 l 949 28 q 949 92 949 63 q 949 225 947 178 q 958 297 951 272 l 968 333 l 696 333 l 696 360 q 696 546 696 478 q 698 657 696 614 q 704 743 700 700 l 949 743 l 949 771 q 949 822 949 794 q 949 969 949 900 q 945 1029 947 1008 q 938 1058 943 1050 q 925 1071 933 1067 q 906 1076 915 1076 q 896 1076 903 1076 q 889 1076 893 1076 q 408 1083 636 1081 q 129 1081 179 1085 l 128 1081 q 95 1059 103 1075 q 86 1024 88 1043 q 83 836 83 986 q 83 771 83 806 l 83 743 l 347 743 l 342 336 l 83 332 l 83 261 q 84 119 83 164 q 89 58 85 75 l 89 57 m 918 28 l 918 28 q 599 26 731 28 q 367 26 457 26 q 227 28 278 26 q 154 34 176 31 q 126 44 132 38 q 118 63 119 51 q 118 64 118 63 q 115 124 115 79 q 114 261 114 168 q 114 304 114 281 l 372 308 l 376 771 l 114 771 q 114 836 114 806 q 114 938 114 897 q 115 1001 114 978 q 117 1034 115 1024 q 124 1048 119 1044 q 133 1053 128 1051 q 329 1055 171 1056 q 655 1051 488 1054 q 889 1047 822 1049 q 908 1047 907 1047 q 916 1014 914 1049 q 919 927 918 979 q 918 822 919 875 q 918 771 918 794 l 676 771 q 669 674 671 719 q 666 558 667 629 q 665 360 665 488 q 665 304 665 335 l 929 304 q 919 228 921 276 q 918 92 918 179 q 918 28 918 63 z "},"j":{"ha":1006,"x_min":-19,"x_max":935,"o":"m -8 383 l -8 383 l -10 385 q -18 447 -17 417 q -3 501 -19 478 q 6 511 0 507 q 48 533 19 528 q 135 536 76 538 q 290 533 210 536 q 339 532 317 532 l 399 531 l 397 464 q 398 417 396 433 q 410 390 400 400 q 453 374 431 371 q 493 399 476 376 q 503 473 503 414 q 503 617 504 532 q 501 719 501 663 l 265 721 l 263 776 q 261 831 263 788 q 259 923 260 874 q 258 997 258 972 q 265 1048 260 1024 q 292 1088 271 1072 q 323 1101 303 1097 q 379 1107 343 1106 q 493 1108 421 1108 q 622 1108 558 1108 q 726 1106 686 1107 q 728 1106 728 1106 q 760 1106 751 1106 l 767 1106 q 865 1097 831 1104 q 914 1068 899 1089 l 915 1067 q 925 1045 921 1058 q 931 1004 929 1032 q 935 925 933 976 q 932 704 935 843 q 926 467 931 578 q 921 304 922 356 q 919 283 919 289 l 919 269 l 913 258 q 906 246 910 253 q 906 246 906 246 q 794 85 872 172 q 553 -37 715 -1 l 553 -37 q 468 -44 507 -46 q 351 -24 414 -43 q 117 126 213 18 q -8 383 21 235 m 22 485 l 22 485 q 13 443 11 468 q 19 392 14 418 l 21 389 q 139 144 49 249 q 360 4 231 43 q 468 -15 418 -14 q 547 -8 504 -17 l 547 -8 q 773 106 700 25 q 879 258 846 186 q 879 260 879 260 q 886 272 883 265 l 890 278 l 890 285 q 890 301 890 289 q 890 304 890 303 q 897 467 893 357 q 903 704 900 578 q 904 840 904 783 q 903 933 904 896 q 901 992 903 969 q 899 1026 900 1014 q 894 1042 897 1038 q 890 1050 892 1047 l 890 1051 q 854 1069 882 1064 q 765 1076 826 1075 l 760 1076 q 726 1076 750 1076 q 563 1080 631 1079 q 451 1080 496 1081 q 380 1078 407 1079 q 338 1074 353 1076 q 317 1070 324 1072 q 308 1064 311 1068 q 289 996 290 1047 q 289 922 288 971 q 292 831 290 874 q 293 776 293 789 l 294 749 l 531 749 q 533 617 532 675 q 518 382 540 418 q 456 344 493 349 q 389 369 419 342 q 368 412 371 388 q 367 465 365 436 l 368 501 l 338 503 q 289 504 315 503 q 158 508 208 507 q 82 506 108 508 q 44 501 56 504 q 26 492 32 497 q 22 485 24 488 m 369 32 l 369 32 q 50 394 114 114 q 50 397 50 396 q 44 422 47 407 q 42 450 42 436 q 49 469 42 464 q 86 478 49 476 q 179 478 124 479 q 289 475 235 476 q 338 474 315 474 q 338 467 338 469 q 340 403 335 433 q 368 349 344 374 q 461 316 413 310 q 543 365 510 322 q 563 618 572 406 q 561 776 561 685 l 324 778 q 321 837 322 794 q 319 926 319 879 q 318 996 318 972 q 328 1042 319 1038 q 414 1050 339 1049 q 579 1050 489 1051 q 725 1047 669 1049 q 760 1047 750 1047 q 765 1047 761 1047 q 801 1046 779 1047 q 842 1042 822 1044 q 865 1033 861 1039 q 874 924 874 1018 q 872 705 875 831 q 866 467 869 579 q 861 306 863 356 q 860 286 860 290 q 853 272 857 279 q 751 127 819 203 q 542 19 683 51 q 469 14 503 13 q 369 32 424 15 z "},"k":{"ha":993,"x_min":60,"x_max":985,"o":"m 181 -36 q 119 -32 142 -36 q 69 -1 96 -28 q 65 15 68 7 q 61 69 63 22 q 60 204 60 89 q 72 879 60 454 l 76 992 q 81 1040 79 1025 q 108 1092 83 1054 l 178 1094 q 332 1091 267 1094 q 492 1088 397 1088 l 488 826 q 715 1065 668 1032 q 765 1085 742 1085 l 783 1085 q 856 1033 807 1072 q 946 954 914 986 q 985 890 985 925 q 953 826 985 867 q 771 603 928 792 l 704 524 q 829 376 736 481 q 964 213 946 242 q 975 174 975 193 q 936 103 975 136 q 881 49 913 78 q 769 -29 801 -21 q 729 -33 756 -33 q 643 46 700 -15 l 544 146 l 476 218 q 474 -12 474 126 q 181 -36 250 -36 m 181 -6 q 443 15 246 -6 q 449 289 443 89 q 567 167 503 235 q 738 -3 715 11 q 778 7 758 -3 q 861 72 797 17 q 935 147 917 122 q 944 174 944 161 q 936 200 944 183 q 805 359 919 228 q 667 524 690 490 l 747 622 q 892 797 868 767 q 928 843 915 826 q 948 870 942 860 q 954 890 954 881 q 947 911 954 903 q 926 933 940 919 l 881 974 q 782 1050 808 1033 l 775 1056 q 728 1038 751 1056 q 500 796 689 1006 l 456 746 l 461 1058 q 331 1061 396 1058 l 179 1065 q 125 1063 146 1065 l 113 1044 q 108 1006 108 1035 l 106 957 q 94 544 97 783 l 90 351 l 90 242 q 94 22 90 49 q 103 8 96 14 q 181 -6 114 -6 m 181 24 q 124 29 129 24 q 121 138 121 49 q 133 878 121 544 q 140 1033 138 1021 q 179 1035 158 1035 l 239 1033 q 431 1028 394 1028 l 425 667 q 522 776 472 718 q 765 1025 743 1025 q 808 994 782 1014 q 861 951 835 974 q 906 910 888 928 q 925 890 925 893 q 725 642 925 879 q 632 528 653 556 q 783 336 632 510 q 915 174 915 188 q 841 94 915 161 q 747 26 767 26 q 691 81 736 35 q 587 189 646 128 q 481 298 528 250 q 426 351 435 346 q 417 197 421 351 l 414 42 q 181 24 258 24 z "},"l":{"ha":1046,"x_min":69,"x_max":1018,"o":"m 750 -40 q 293 -36 544 -40 l 189 -35 l 183 -33 q 85 18 99 -22 q 74 88 76 42 q 69 531 69 168 l 69 1054 l 107 1067 q 211 1090 146 1090 q 415 1088 331 1090 l 474 1088 l 486 369 l 1007 369 l 1013 256 q 1018 88 1018 156 q 1001 -3 1018 22 q 929 -35 978 -31 q 750 -40 881 -40 m 750 -10 q 925 -4 878 -10 q 976 13 964 -3 q 989 81 988 29 q 982 254 989 132 l 978 339 l 457 339 l 444 1057 l 338 1060 l 215 1061 q 121 1040 151 1060 q 118 1038 118 1039 l 100 1032 l 100 446 q 104 90 100 171 q 123 13 104 24 q 190 -4 142 3 q 750 -10 321 -10 m 724 19 q 176 29 221 19 q 140 39 151 33 q 131 231 132 47 q 129 1011 129 415 l 136 1014 q 158 1025 147 1021 q 242 1031 176 1031 q 414 1028 328 1031 l 428 310 l 950 310 q 953 251 950 282 q 958 94 958 150 q 951 32 958 44 q 724 19 939 19 z "},"m":{"ha":1086,"x_min":69,"x_max":1001,"o":"m 872 -46 q 685 -39 726 -46 q 607 24 625 -29 q 592 217 594 47 l 590 242 q 531 179 563 211 l 476 238 l 472 -35 q 383 -36 407 -35 q 260 -39 310 -39 q 110 -19 131 -39 q 81 26 88 -6 q 69 372 69 69 q 72 921 69 715 q 74 994 74 967 q 76 1035 75 1021 q 82 1063 76 1054 l 97 1100 l 138 1100 q 196 1071 163 1100 l 243 1029 q 538 740 438 840 q 878 1085 831 1054 q 929 1103 906 1103 q 956 1097 943 1103 q 997 1025 992 1078 q 1001 921 1001 963 q 990 42 1001 131 l 990 -43 l 872 -46 m 872 -15 l 960 -14 q 961 43 960 28 q 972 921 972 232 q 964 1046 972 1015 q 936 1072 957 1063 q 893 1058 915 1072 q 739 910 865 1039 q 539 697 607 771 q 214 1014 347 889 q 146 1069 165 1060 l 117 1069 q 107 1044 108 1047 q 106 1015 106 1040 q 100 518 100 953 q 101 131 100 271 q 114 21 104 39 q 128 4 115 17 q 264 -8 165 -8 q 382 -6 314 -8 q 443 -4 407 -4 l 449 314 l 532 224 l 618 315 q 621 217 621 267 q 635 35 625 43 q 689 -8 646 -3 q 872 -15 725 -15 m 872 15 q 694 22 736 15 q 663 44 668 26 q 651 218 656 75 q 638 382 647 382 q 631 375 635 382 q 532 267 572 307 l 419 389 l 414 26 l 382 25 q 247 24 328 24 q 143 31 167 24 q 132 133 132 39 q 129 364 129 218 q 138 1039 129 1006 q 539 654 154 1039 q 670 792 540 656 q 843 972 800 929 l 844 975 l 871 1000 q 929 1042 913 1042 q 942 921 942 1033 q 935 146 942 338 l 931 17 l 872 15 z "},"n":{"ha":1092,"x_min":61,"x_max":1006,"o":"m 371 -46 q 174 -42 231 -46 q 101 -31 117 -39 q 72 -12 92 -28 q 64 28 65 8 q 61 100 61 54 q 71 740 61 372 q 86 1047 76 1003 q 112 1094 93 1079 q 154 1108 131 1108 q 186 1101 168 1108 q 435 913 222 1088 l 588 788 q 608 1042 597 993 q 632 1092 614 1065 q 647 1100 639 1096 q 681 1107 656 1104 q 801 1110 713 1110 q 943 1100 914 1107 q 967 1090 949 1099 l 976 1078 q 996 983 992 1058 q 1003 443 1000 819 q 1006 74 1003 214 q 997 14 1006 35 q 926 -37 975 -37 q 850 0 897 -37 q 479 297 831 14 q 472 44 476 108 q 442 -25 467 -10 q 371 -46 417 -40 m 368 -15 q 438 19 425 -15 q 451 358 444 40 l 738 128 q 882 15 857 32 q 928 -7 913 -7 q 976 74 972 -7 q 972 443 974 214 q 964 1001 972 864 q 957 1051 961 1038 l 947 1065 q 801 1079 919 1076 q 688 1078 701 1079 q 660 1071 664 1075 q 647 1061 651 1068 q 615 736 628 1039 l 615 726 q 219 1047 236 1035 q 157 1078 181 1078 q 111 1019 118 1078 q 101 740 107 979 q 93 299 94 501 l 90 128 l 92 47 q 93 22 92 26 q 94 17 94 18 q 106 0 97 7 q 240 -14 126 -14 q 271 -15 261 -14 l 368 -15 m 367 15 l 267 15 q 241 17 263 17 q 194 18 219 17 q 147 22 168 19 q 122 25 126 24 q 121 154 121 39 q 124 429 121 269 q 136 946 131 786 l 139 982 q 156 1047 140 1047 q 201 1022 167 1047 q 399 864 256 981 l 642 665 l 644 735 q 672 1044 657 1018 q 717 1048 681 1047 q 801 1049 754 1049 q 929 1040 911 1046 q 943 443 939 1010 q 946 72 943 214 q 928 24 946 24 q 906 34 921 24 q 855 72 890 44 q 756 151 819 100 q 422 421 650 239 l 421 372 q 410 27 417 36 q 367 15 404 18 z "},"o":{"ha":1111,"x_min":3,"x_max":1085,"o":"m 539 -12 q 329 31 431 -12 q 21 389 108 132 q 3 532 3 460 q 24 696 3 611 q 226 990 78 879 q 546 1096 375 1096 q 813 1023 690 1096 q 1011 819 936 950 q 1085 542 1085 681 q 1010 258 1085 400 q 782 43 933 124 q 539 -12 661 -12 m 539 18 q 768 71 654 18 q 983 274 913 146 q 1054 542 1054 408 q 985 804 1054 674 q 798 997 914 928 q 546 1065 682 1065 q 244 965 385 1065 q 51 688 104 861 q 32 533 32 607 q 49 399 32 464 q 340 60 132 154 q 539 18 436 18 m 543 356 q 444 385 490 356 q 357 550 357 442 q 464 719 357 661 q 544 733 499 733 q 626 715 589 732 q 704 631 675 685 q 728 539 728 586 q 681 424 728 483 q 543 356 626 356 m 543 388 q 657 443 614 388 q 697 536 697 493 q 675 619 697 576 q 613 689 653 663 q 543 703 581 701 q 476 692 506 703 q 386 551 392 644 q 461 410 386 460 q 543 388 499 388 m 539 49 q 306 106 447 49 q 78 407 165 164 q 63 536 63 471 q 81 679 63 607 q 264 942 135 849 q 546 1035 393 1035 q 790 967 682 1035 q 961 787 897 899 q 1025 539 1025 675 q 958 289 1025 413 q 756 97 890 169 q 539 49 646 49 m 543 325 q 703 404 642 325 q 757 539 757 469 q 727 651 757 594 q 639 743 697 708 q 543 764 594 763 q 451 747 492 764 q 326 549 326 672 q 429 358 326 428 q 543 325 482 325 z "},"p":{"ha":921,"x_min":71,"x_max":901,"o":"m 538 758 l 538 758 q 572 706 572 733 q 572 703 572 706 q 567 694 571 700 q 554 678 563 688 q 508 643 532 651 q 443 635 485 635 l 443 790 q 538 758 488 793 m 532 697 l 532 697 q 542 710 539 706 q 519 736 539 721 q 472 757 496 754 l 472 665 q 507 674 494 667 q 532 697 519 682 m 901 703 l 901 703 l 901 694 q 897 628 901 660 q 875 561 893 596 l 874 561 q 475 367 757 367 l 472 367 l 468 -32 l 408 -32 q 369 -32 390 -32 q 231 -35 339 -35 q 182 -33 215 -35 q 128 -29 149 -33 q 94 -11 108 -25 l 82 0 l 79 17 q 78 22 78 19 q 77 33 78 25 q 76 56 76 42 q 75 96 75 71 q 74 159 75 121 q 73 251 74 197 q 72 378 72 306 q 71 544 72 450 q 71 887 71 736 q 71 1039 71 1038 l 71 1099 l 131 1099 q 186 1099 154 1099 q 486 1089 303 1107 q 676 1036 586 1076 q 847 901 793 983 q 901 703 901 822 m 849 576 l 849 576 q 869 634 865 606 q 871 694 872 663 l 871 703 q 664 1008 871 922 q 483 1060 578 1047 q 188 1069 301 1078 q 131 1068 154 1068 l 100 1068 l 100 1039 q 101 887 100 1038 q 101 544 101 736 q 102 395 101 461 q 103 278 103 329 q 103 189 103 226 q 104 124 104 151 q 105 79 104 97 q 106 51 106 61 q 107 35 107 40 q 107 27 107 29 q 108 24 107 25 l 110 15 l 115 10 q 124 3 119 6 q 139 -1 128 1 q 172 -3 150 -3 q 231 -4 193 -4 q 368 -3 339 -4 q 408 -3 389 -3 l 438 -3 l 442 397 l 475 397 q 849 576 740 397 l 849 576 m 651 982 l 651 982 q 842 703 842 903 q 842 694 842 699 q 839 639 842 663 q 822 592 836 615 q 475 426 725 426 l 413 426 l 408 28 q 368 26 389 28 q 231 25 338 25 q 214 25 228 25 q 183 26 200 25 q 153 27 167 26 q 138 31 140 28 q 133 199 135 49 q 131 544 132 350 q 131 888 131 738 q 131 1039 131 1038 q 188 1040 156 1039 q 479 1031 301 1047 q 651 982 569 1019 m 578 658 l 578 658 q 601 706 601 686 q 557 782 601 747 q 485 815 519 810 q 422 819 451 821 q 413 819 417 819 l 413 604 q 510 613 475 604 q 578 658 544 621 z "},"q":{"ha":979,"x_min":1,"x_max":965,"o":"m 449 707 l 449 707 q 517 674 485 707 q 532 656 528 663 q 537 643 536 650 q 536 622 538 636 q 536 615 536 619 q 488 542 533 558 l 486 540 q 454 532 468 532 q 421 542 440 532 l 421 542 q 371 625 371 568 q 418 701 371 676 q 449 707 432 707 m 507 625 l 507 625 q 507 631 507 628 q 507 638 507 635 q 496 651 506 642 q 449 675 472 675 q 429 672 439 675 q 412 659 422 669 q 401 625 401 649 q 407 599 401 615 q 432 571 413 582 l 435 571 q 448 565 443 565 q 454 564 453 564 q 474 569 458 564 l 476 571 q 497 585 490 575 q 506 617 504 596 q 507 625 506 621 m 668 15 l 668 15 q 565 151 639 49 q 428 132 528 132 q 272 156 340 132 l 269 156 l 268 157 q 72 322 143 213 q 1 578 1 435 q 100 888 1 750 q 344 1074 192 1013 q 403 1087 372 1085 q 486 1089 435 1089 l 493 1089 q 619 1078 564 1092 q 828 917 742 1035 q 914 644 914 788 q 897 522 914 589 q 858 410 881 454 q 900 336 872 382 l 901 333 q 953 235 942 265 q 965 188 965 206 l 965 165 l 953 147 q 931 122 946 139 q 898 88 915 106 q 868 58 881 71 q 854 46 856 46 q 797 -10 811 1 q 774 -26 788 -19 q 743 -33 761 -33 q 701 -19 718 -33 q 668 15 683 -6 m 281 185 l 281 185 q 428 164 344 164 q 519 172 486 164 q 576 189 553 179 q 690 36 661 71 q 717 8 706 17 q 743 -1 729 -1 q 779 15 764 -1 q 835 69 790 26 q 847 82 835 69 q 876 111 860 94 q 908 144 893 128 q 929 167 922 160 l 936 176 l 936 188 q 924 227 936 200 q 876 317 913 254 l 875 319 q 842 375 856 350 q 825 411 828 400 q 865 516 844 447 q 885 644 885 585 q 808 891 885 778 q 611 1047 731 1004 q 493 1057 561 1060 l 486 1057 q 407 1055 436 1057 q 356 1044 378 1053 q 117 860 201 983 q 32 578 32 738 q 96 340 32 442 q 279 186 160 239 l 281 185 m 743 31 l 743 31 q 738 32 740 31 q 728 39 735 33 q 713 57 722 44 q 686 91 703 69 q 645 146 669 113 q 586 228 621 179 q 576 224 581 225 q 522 204 554 213 q 428 196 489 196 q 290 215 349 196 q 121 358 181 264 q 61 578 61 451 q 145 849 61 736 q 365 1014 229 961 q 411 1024 385 1022 q 486 1025 438 1025 q 493 1025 490 1025 q 601 1017 558 1026 q 781 876 707 979 q 854 644 854 774 q 835 525 854 590 q 799 426 817 460 q 801 386 789 414 q 849 301 814 358 q 851 299 850 300 q 871 264 858 286 q 894 219 883 242 q 906 188 906 197 q 881 160 899 179 q 843 121 863 140 q 814 93 824 101 q 780 58 793 71 q 760 40 767 46 q 749 33 753 35 q 743 31 746 31 m 565 613 l 565 613 q 567 621 565 617 q 564 658 568 644 q 539 696 560 672 q 408 731 474 758 q 342 625 342 703 q 358 560 342 592 q 408 513 374 529 q 454 500 433 500 q 499 511 474 500 q 565 613 561 538 z "},"r":{"ha":932,"x_min":68,"x_max":906,"o":"m 446 808 l 446 808 q 539 767 510 799 q 568 700 568 735 q 531 631 568 664 q 428 596 494 599 q 430 690 429 657 q 432 741 431 722 q 435 778 433 760 q 438 810 436 790 l 446 808 m 458 628 l 458 628 q 519 660 500 638 q 539 700 539 682 q 522 742 539 721 q 464 775 504 764 q 464 775 464 775 q 464 775 464 775 q 461 743 463 760 q 459 701 460 726 q 458 628 458 675 m 454 51 l 454 51 q 417 -14 450 7 q 399 -21 411 -17 q 358 -27 388 -25 q 267 -29 328 -29 l 265 -29 q 265 -29 265 -29 q 193 -28 225 -29 q 125 -22 149 -26 q 89 -3 101 -17 l 76 8 l 74 24 q 72 30 72 26 q 71 42 71 33 q 70 67 71 50 q 69 114 69 85 q 69 188 69 143 q 68 501 68 317 q 69 642 69 532 q 71 861 69 751 q 74 1000 72 971 l 74 1001 q 101 1060 79 1043 q 146 1081 124 1076 q 234 1094 167 1086 q 375 1103 301 1103 q 872 889 729 1103 q 901 824 894 856 q 906 739 906 793 q 900 651 906 685 q 846 536 885 588 q 774 457 807 485 q 635 369 703 392 q 676 310 656 340 q 781 163 728 240 q 807 113 794 142 q 808 51 819 83 q 753 4 793 15 q 742 1 747 1 q 726 -1 736 0 q 699 -5 717 -3 q 650 -10 682 -7 q 551 -21 614 -14 l 518 -25 l 497 1 q 454 51 486 15 m 401 11 l 401 11 q 429 125 433 31 q 485 62 457 94 q 521 19 513 29 l 532 6 l 549 8 q 647 18 611 15 q 694 24 676 22 q 721 27 713 26 q 734 29 729 28 q 744 32 739 31 q 769 46 761 38 q 779 61 778 54 q 778 103 788 82 q 756 146 769 124 q 653 293 703 224 q 588 385 614 346 q 589 385 588 385 q 590 385 589 385 q 674 419 638 399 q 754 478 711 439 q 820 551 783 504 q 871 657 857 599 q 876 740 876 689 q 871 818 876 790 q 847 874 867 846 q 706 1003 792 960 q 531 1060 621 1046 q 375 1074 440 1074 q 241 1066 307 1074 q 153 1053 175 1058 q 121 1038 135 1049 q 104 999 107 1026 l 104 999 q 100 823 101 968 q 99 501 99 678 q 99 389 99 440 q 99 296 99 338 q 99 221 99 254 q 99 162 99 188 q 99 117 99 136 q 100 83 100 97 q 100 60 100 69 q 101 46 100 51 q 101 37 101 40 q 101 33 101 33 q 101 31 101 32 l 104 24 l 110 18 q 119 11 113 14 q 140 6 125 8 q 184 1 154 3 q 265 0 214 0 q 265 0 265 0 l 267 0 q 334 1 308 0 q 374 4 360 3 q 393 8 388 6 q 401 11 399 10 m 736 60 l 736 60 q 728 58 732 58 q 715 56 724 57 q 690 53 707 54 q 643 47 674 51 q 544 38 607 43 q 522 64 542 40 q 477 116 503 88 q 430 167 451 144 q 404 189 408 189 q 399 169 400 185 q 399 129 399 153 q 397 71 399 99 q 386 38 394 43 q 353 31 378 33 q 301 29 328 29 q 267 29 274 29 q 265 29 267 29 q 225 29 256 29 q 166 31 194 29 q 131 38 138 33 q 128 188 129 51 q 128 502 128 324 q 131 824 129 681 q 133 996 132 967 q 140 1015 135 1010 q 161 1025 146 1021 q 244 1037 179 1029 q 375 1044 308 1044 q 628 1004 503 1044 q 822 858 753 964 q 842 813 838 835 q 846 739 846 788 q 842 663 846 690 q 799 574 831 617 q 733 499 768 532 q 658 443 692 461 q 581 413 624 425 q 567 408 572 410 q 558 407 561 407 q 554 407 556 407 q 552 407 553 407 q 549 406 551 407 q 564 367 540 403 q 628 276 588 331 q 729 131 679 207 q 752 88 746 108 q 736 60 758 67 m 399 567 l 399 567 l 424 567 q 552 609 506 567 q 599 700 599 651 q 563 785 599 744 q 450 838 526 825 l 411 842 q 406 781 407 801 q 401 740 403 761 q 399 681 400 719 q 399 567 399 642 z "},"s":{"ha":875,"x_min":36,"x_max":857,"o":"m 769 107 l 769 107 q 635 13 722 44 q 442 -27 549 -18 q 235 -36 335 -36 q 192 -35 204 -36 q 175 -35 179 -35 l 171 -33 l 36 1 l 36 122 q 36 168 36 151 q 36 193 36 185 q 36 206 36 201 q 36 214 36 210 q 38 226 38 218 q 38 242 38 233 l 38 269 q 39 286 38 279 q 41 306 38 292 q 57 333 44 319 l 86 363 l 124 346 q 135 340 129 343 q 174 326 154 332 q 226 319 193 319 q 285 325 253 319 q 213 403 254 361 q 83 563 129 483 q 54 721 54 621 q 77 853 54 800 q 157 961 100 907 q 311 1066 222 1024 q 461 1124 400 1108 q 672 1147 574 1147 q 674 1147 674 1147 q 693 1147 683 1147 l 694 1147 q 818 1088 792 1147 q 833 1011 831 1061 q 835 868 835 961 q 835 808 835 840 l 835 749 l 778 749 q 760 746 772 747 q 724 744 747 744 q 658 749 688 744 q 607 751 632 751 q 555 744 572 750 q 532 735 538 739 q 524 726 529 733 q 518 699 519 718 q 549 663 525 688 q 597 615 572 639 l 597 614 q 767 393 715 496 q 807 224 814 294 q 772 111 800 153 l 769 107 m 235 -6 l 235 -6 q 427 2 324 -6 q 616 38 531 10 q 744 125 701 67 l 746 126 q 576 593 857 310 l 576 593 q 512 658 535 633 q 489 697 489 683 q 497 735 489 717 q 530 767 504 754 q 607 782 556 781 q 661 778 635 782 q 724 775 689 775 q 758 776 747 775 q 775 778 769 776 q 775 779 775 779 q 775 779 775 779 l 804 779 l 804 808 q 804 868 804 840 q 792 1075 808 1029 q 762 1105 781 1096 q 724 1116 743 1114 q 694 1118 704 1118 l 694 1118 q 674 1117 683 1118 q 468 1094 576 1117 q 324 1039 410 1079 q 178 940 239 999 q 105 842 125 890 q 85 721 85 794 q 111 575 85 628 q 235 424 153 503 q 288 367 263 394 q 324 319 313 340 q 329 307 328 314 q 285 295 315 300 q 226 290 256 290 q 165 297 188 290 q 122 314 143 304 q 122 314 122 314 q 113 318 117 317 l 93 326 l 79 313 q 69 297 71 304 q 68 286 68 290 q 68 286 68 286 q 68 283 68 285 q 68 283 68 283 q 68 283 68 283 q 67 269 67 279 l 67 240 q 67 213 67 222 q 66 204 67 208 q 65 192 65 200 q 65 167 65 183 q 65 122 65 151 l 65 25 l 176 -4 l 178 -4 q 194 -6 182 -6 q 235 -6 206 -6 m 556 572 l 556 572 q 713 366 650 482 q 721 142 776 250 q 590 61 678 86 q 402 30 501 36 q 235 24 303 24 q 182 25 193 24 l 96 47 q 96 122 96 94 q 96 167 96 151 q 96 191 96 183 q 96 203 96 199 q 96 211 96 207 q 97 226 97 217 q 97 246 97 236 q 97 263 97 256 q 97 269 97 269 q 97 278 97 275 q 99 283 99 279 q 99 286 99 285 q 99 288 99 288 q 99 290 99 289 q 100 292 99 290 q 100 292 100 292 q 110 286 106 289 q 158 268 132 276 q 226 260 183 260 q 275 263 243 260 q 333 276 307 267 q 360 301 360 285 q 350 335 360 318 q 256 444 321 381 q 138 588 176 521 q 114 721 114 635 q 132 831 114 789 q 199 918 150 872 q 333 1010 253 971 q 476 1065 413 1049 q 675 1088 578 1088 q 694 1088 685 1088 q 764 1063 753 1088 q 775 869 778 1021 q 775 808 775 840 q 771 808 772 808 q 768 807 769 808 q 761 806 765 807 q 748 805 757 806 q 724 804 739 804 q 664 808 690 804 q 607 811 638 811 q 458 697 458 810 q 481 647 458 675 q 556 572 504 619 z "},"t":{"ha":978,"x_min":32,"x_max":958,"o":"m 444 -24 q 343 -14 368 -24 q 313 4 338 -12 q 304 31 304 24 q 293 264 299 64 q 282 729 285 511 l 32 729 q 33 1026 32 988 q 71 1113 33 1090 q 113 1124 79 1119 q 279 1129 153 1129 q 687 1128 583 1129 q 808 1126 790 1126 q 926 1100 903 1124 q 958 1011 958 1069 q 940 781 958 833 q 890 738 929 751 q 763 729 868 729 l 692 729 q 697 344 692 550 q 701 140 701 214 q 699 63 701 83 q 644 -8 692 6 q 546 -21 621 -15 q 444 -24 482 -24 m 444 6 q 544 10 499 6 q 632 19 607 13 q 664 44 657 26 q 671 126 671 63 q 667 343 671 199 q 663 681 663 524 l 663 757 q 763 760 679 760 l 788 760 q 883 767 860 760 q 914 796 906 775 q 926 929 924 821 l 928 1013 q 925 1046 928 1028 q 878 1090 919 1082 q 686 1099 844 1097 l 453 1100 q 144 1096 215 1100 q 93 1090 103 1093 q 67 1063 72 1085 q 63 760 63 1042 l 311 760 l 314 624 q 326 139 319 290 l 329 92 q 335 32 331 36 q 365 10 340 15 q 444 6 390 6 m 444 36 q 363 43 376 36 q 349 425 357 63 q 340 790 340 740 l 92 790 q 92 944 92 915 q 93 992 93 972 q 97 1056 93 1039 q 100 1061 97 1058 l 101 1061 q 453 1069 122 1069 q 688 1068 585 1069 q 803 1067 790 1067 q 835 1065 817 1067 q 886 1056 878 1061 q 899 1003 899 1043 l 897 931 q 889 817 894 851 q 872 794 885 797 q 797 790 858 790 l 763 790 q 653 786 681 790 q 632 774 632 783 l 632 707 q 638 343 632 539 l 642 168 q 640 69 642 93 q 632 50 638 53 q 582 42 621 44 q 501 38 543 39 q 444 36 460 36 z "},"u":{"ha":1074,"x_min":46,"x_max":1028,"o":"m 1010 1122 l 1010 1122 l 1013 1064 q 1015 685 1028 874 q 910 296 1003 497 l 910 296 q 722 58 832 138 q 639 11 675 25 q 586 -6 603 -3 q 585 -6 586 -6 q 585 -7 585 -7 l 582 -8 l 571 -10 q 510 -18 540 -18 q 475 -15 496 -18 q 446 -10 454 -11 l 439 -8 l 438 -7 q 397 5 424 -4 q 338 33 369 14 q 250 107 297 58 l 249 108 q 78 443 138 228 q 54 573 60 508 q 47 733 49 638 l 47 757 q 47 906 46 840 q 58 1063 49 972 l 64 1115 l 449 1115 l 450 1040 q 456 777 453 869 q 463 642 458 685 q 475 578 467 599 l 475 578 q 521 480 501 508 q 549 449 540 451 q 565 464 553 450 l 567 465 q 602 533 590 490 q 618 663 614 575 q 625 910 622 750 q 628 1057 626 976 l 629 1114 l 1010 1122 m 985 678 l 985 678 q 982 1063 997 851 l 981 1092 l 658 1085 l 658 1057 q 656 910 656 975 q 648 661 653 751 q 631 524 643 571 q 589 446 618 476 l 589 444 q 544 419 564 415 q 525 430 539 419 q 491 472 511 440 q 447 568 471 504 q 433 635 438 590 q 426 774 429 679 q 419 1039 424 868 l 419 1086 l 92 1086 l 89 1060 q 76 905 78 969 q 76 757 75 840 l 78 735 q 83 577 78 640 q 107 451 89 514 q 271 128 164 243 l 271 128 q 354 58 315 82 q 410 32 383 40 q 447 21 436 24 q 447 21 447 21 l 449 21 l 451 19 q 510 11 494 11 q 564 19 536 11 l 571 21 l 574 22 q 576 22 575 22 q 579 24 578 22 q 579 24 579 24 q 628 39 594 26 q 704 82 661 51 q 882 308 808 158 l 883 310 q 985 678 967 482 m 688 1056 l 688 1056 l 953 1061 q 955 681 968 857 q 856 322 942 506 q 686 106 768 158 q 571 53 604 54 q 561 49 564 50 q 558 49 560 49 q 510 42 531 42 q 458 49 500 42 q 454 50 457 50 q 419 60 443 53 q 369 85 396 68 q 293 149 335 106 q 136 460 190 257 q 113 578 118 518 q 107 735 108 638 q 107 757 107 746 q 107 904 106 840 q 118 1056 108 968 l 389 1056 q 390 1039 390 1047 q 396 766 393 861 q 403 626 399 671 q 419 557 408 582 q 501 410 451 461 q 611 425 550 360 q 670 572 658 474 q 685 910 682 669 q 688 1056 686 975 z "},"v":{"ha":885,"x_min":-11,"x_max":900,"o":"m 432 -3 q 353 56 381 -3 l 10 946 q -11 1017 -11 988 q 6 1063 -11 1040 q 53 1092 26 1085 q 161 1101 89 1100 l 249 1100 q 336 1085 314 1099 q 444 922 369 1068 l 461 958 q 514 1063 506 1051 l 525 1074 q 542 1083 533 1081 q 607 1094 556 1090 q 776 1100 688 1100 q 840 1096 822 1100 q 900 1036 888 1083 l 900 1022 q 840 857 896 999 q 661 406 744 608 q 507 43 519 56 q 432 -3 475 -3 m 432 26 q 483 60 460 26 q 611 361 500 90 q 813 868 735 665 q 854 974 835 919 q 869 1031 869 1017 q 833 1068 869 1058 q 768 1071 813 1071 q 625 1065 722 1071 q 547 1053 556 1061 q 542 1049 544 1051 q 536 1041 540 1047 q 488 946 532 1035 q 444 856 467 900 q 429 885 438 871 q 317 1063 353 1039 q 211 1072 297 1072 q 64 1064 104 1072 q 31 1045 43 1060 q 18 1015 18 1031 q 38 957 18 994 l 381 67 q 432 26 400 26 m 432 56 q 407 79 418 56 l 65 968 q 49 1014 49 1004 q 108 1040 49 1036 q 213 1043 150 1043 q 306 1035 275 1042 q 403 871 329 1017 q 444 797 442 797 q 515 933 453 797 q 563 1029 558 1024 q 606 1035 569 1032 q 774 1042 693 1042 q 840 1031 838 1042 q 661 565 840 1013 q 457 75 492 142 q 432 56 443 56 z "},"w":{"ha":1086,"x_min":67,"x_max":1004,"o":"m 932 -17 q 897 -10 915 -15 q 856 13 879 -6 q 607 224 807 49 l 535 286 q 388 167 492 256 q 229 38 285 81 q 172 1 189 7 l 154 -3 q 86 43 106 -3 q 76 157 81 58 q 67 747 69 331 l 67 944 q 71 1069 67 1036 l 85 1085 q 171 1108 108 1108 q 264 1111 210 1111 q 433 1094 407 1110 q 479 1006 475 1074 q 483 829 481 982 q 515 843 492 835 q 578 824 556 843 l 585 1107 q 776 1104 671 1107 q 925 1094 896 1101 q 976 1067 949 1089 l 983 1044 q 993 874 988 1024 q 1004 215 1004 536 q 1001 53 1004 92 l 999 31 l 993 4 q 965 -10 979 -3 q 932 -17 951 -17 m 932 14 q 967 24 944 14 l 969 38 q 975 264 975 69 l 974 401 q 963 872 968 732 q 960 938 961 911 q 958 983 960 965 q 954 1038 954 1038 l 950 1050 q 918 1067 926 1064 q 775 1075 896 1071 l 690 1078 l 614 1078 l 606 750 l 585 776 q 521 814 553 814 q 503 807 507 810 q 454 750 493 799 q 447 1018 454 958 q 425 1065 443 1053 l 421 1068 q 264 1082 386 1082 q 115 1071 138 1082 q 99 1057 108 1067 q 97 992 97 1040 q 101 399 97 638 q 106 192 101 300 q 114 57 110 64 q 131 32 114 40 q 151 26 140 26 q 161 28 157 26 q 268 107 194 44 l 367 188 q 536 324 494 297 q 628 244 567 299 q 903 18 875 25 q 932 14 907 14 m 940 43 q 914 44 924 43 q 757 172 890 54 q 540 356 546 356 q 465 308 526 356 l 314 182 q 149 56 164 58 q 135 228 138 56 q 126 882 126 543 q 128 1043 126 1024 q 174 1051 135 1049 q 264 1053 213 1053 q 407 1042 383 1050 q 422 924 422 1029 l 426 660 q 453 698 433 671 q 494 751 474 725 q 521 783 514 776 l 525 785 q 561 757 538 785 q 583 731 568 749 q 613 697 599 714 q 633 669 628 679 l 643 1049 q 774 1046 682 1049 q 924 1032 914 1042 q 933 872 928 1014 q 944 215 944 526 q 940 43 944 69 z "},"x":{"ha":972,"x_min":13,"x_max":950,"o":"m 643 -21 q 601 -6 617 -21 q 489 163 582 14 q 394 11 424 43 q 354 -11 379 -4 q 281 14 318 -11 q 158 113 244 39 q 69 183 94 167 q 13 253 13 199 q 28 297 13 272 q 210 486 50 333 q 239 515 213 492 q 64 721 118 653 q 24 799 24 771 q 36 836 24 817 q 161 971 51 861 q 300 1093 264 1071 q 338 1104 318 1104 q 389 1081 368 1104 q 497 903 419 1042 l 539 993 q 579 1074 561 1047 q 638 1104 601 1104 q 676 1093 657 1104 q 814 967 710 1071 q 938 832 918 863 q 947 796 947 814 q 922 731 947 764 q 733 525 906 710 q 935 304 913 338 q 950 256 950 278 l 950 235 q 799 90 914 190 q 675 -12 694 -1 q 643 -21 661 -21 m 643 8 q 671 21 656 8 q 779 113 699 42 l 826 154 q 921 246 889 207 l 921 256 q 854 356 921 281 l 692 525 q 808 649 761 600 q 894 742 869 713 q 918 796 918 772 q 915 810 918 801 q 874 861 911 818 q 729 1010 814 928 q 663 1066 678 1057 q 638 1075 647 1075 q 608 1062 619 1075 q 565 982 596 1049 q 499 840 543 926 q 475 882 486 860 q 367 1061 392 1032 q 338 1075 353 1075 q 303 1060 325 1075 q 182 950 282 1044 q 68 831 96 867 q 53 799 53 811 q 120 699 53 779 q 281 514 188 618 q 92 328 150 390 q 43 249 43 281 q 81 213 43 215 q 176 135 115 189 q 292 43 258 68 q 344 18 326 18 q 354 19 350 18 q 413 88 372 24 q 486 219 456 157 l 553 118 q 621 18 604 35 q 643 8 629 8 m 643 38 q 578 133 639 38 q 483 271 499 264 q 468 247 479 267 q 442 201 457 228 q 344 47 368 60 q 289 82 332 47 q 196 157 246 117 q 88 240 103 240 q 72 250 72 240 q 106 300 72 263 q 321 513 139 338 l 226 621 q 83 799 83 785 q 204 930 83 814 q 338 1046 325 1046 q 449 868 350 1046 q 500 781 493 785 q 515 807 501 781 q 593 969 568 908 q 638 1046 621 1046 q 770 926 653 1046 q 888 796 888 807 q 863 752 888 781 q 785 669 838 724 q 651 524 733 614 q 831 338 692 483 l 832 335 l 854 311 q 890 256 890 269 q 761 135 874 233 q 643 38 649 38 z "},"y":{"ha":869,"x_min":-17,"x_max":899,"o":"m 372 -36 l 371 -36 q 306 -31 338 -36 q 247 33 256 -22 q 239 233 239 76 q 238 533 238 319 l 129 725 q 14 932 40 881 q -17 1026 -17 982 q -10 1063 -17 1047 q 46 1106 7 1096 q 158 1113 75 1113 l 329 1113 l 443 939 q 528 1083 506 1061 q 575 1106 542 1100 q 679 1111 608 1111 q 797 1107 765 1111 q 878 1082 853 1107 q 899 1035 899 1061 q 890 1001 899 1022 q 636 513 863 929 l 635 469 q 624 72 632 185 q 576 -22 619 -10 q 467 -33 561 -29 q 372 -36 403 -36 m 371 -7 l 461 -4 q 576 10 561 0 q 589 31 585 17 q 599 176 596 63 q 606 521 606 396 q 832 946 761 804 q 868 1035 868 1018 q 855 1063 868 1054 q 825 1075 842 1072 q 796 1078 808 1078 q 751 1080 783 1079 q 679 1082 718 1081 q 603 1081 629 1082 q 550 1063 561 1076 q 446 881 531 1046 l 313 1083 l 164 1083 q 74 1081 107 1083 q 27 1063 42 1078 q 13 1026 13 1049 q 36 954 13 997 q 156 739 72 885 q 268 540 201 660 q 269 203 268 294 q 281 17 269 40 q 371 -7 292 -7 m 371 22 q 308 31 313 22 q 299 317 299 58 l 299 547 q 93 911 143 819 q 43 1026 43 1003 q 56 1047 43 1040 q 103 1053 68 1053 q 297 1054 139 1054 l 450 821 l 497 914 q 572 1043 551 1022 q 608 1051 578 1049 q 679 1053 639 1053 q 792 1049 779 1050 l 813 1047 q 839 1035 839 1043 q 631 629 839 1013 l 576 528 l 575 471 q 557 33 568 50 q 506 28 546 31 q 371 22 424 22 z "},"z":{"ha":996,"x_min":36,"x_max":967,"o":"m 742 -37 q 633 -35 724 -37 q 431 -28 542 -32 q 235 -22 319 -25 q 138 -18 150 -18 q 57 7 78 -14 q 36 60 36 28 q 47 103 36 75 q 192 379 61 139 q 365 710 328 628 l 283 714 l 181 719 q 92 731 113 722 q 50 778 60 742 q 40 925 46 792 l 38 1031 l 38 1096 q 799 1110 621 1110 q 888 1105 857 1110 q 940 1083 919 1100 q 960 1031 960 1065 q 918 918 960 1001 q 621 349 829 743 q 967 336 686 349 q 951 151 951 201 l 951 138 q 919 11 951 50 q 742 -37 886 -37 m 742 -8 q 896 29 869 -8 q 921 131 921 58 l 921 151 q 931 278 921 200 l 933 308 q 635 319 686 319 l 572 321 q 899 946 863 871 q 929 1031 929 1010 q 917 1063 929 1050 q 799 1081 899 1081 q 425 1075 703 1081 l 67 1068 l 68 994 l 75 832 q 86 768 78 779 q 94 760 89 765 q 131 752 100 756 q 285 743 163 749 l 408 736 q 218 365 389 678 q 65 60 65 86 q 76 28 65 42 q 139 11 88 15 q 238 8 153 11 q 432 1 322 4 q 742 -8 717 -8 m 742 21 l 633 24 q 128 43 199 38 q 100 49 104 44 q 96 60 96 53 q 140 158 96 75 q 244 353 185 242 q 444 756 444 717 q 443 763 444 761 q 286 772 429 765 q 111 786 122 779 q 100 926 103 801 q 99 995 100 958 q 97 1039 97 1032 q 751 1051 676 1051 q 876 1048 854 1051 q 899 1031 899 1044 q 892 1004 899 1022 q 806 828 879 968 l 526 299 q 592 290 526 290 l 613 290 q 900 281 699 290 q 892 151 892 201 l 892 135 q 872 46 892 71 q 742 21 851 21 z "},"{":{"ha":494,"x_min":28,"x_max":467,"o":"m 418 7 l 461 10 q 464 71 463 44 q 467 142 467 118 q 465 164 467 157 q 458 172 463 171 q 447 174 454 174 q 397 191 426 174 q 357 228 367 208 q 349 251 353 235 q 342 286 344 268 q 313 407 332 343 q 279 500 294 471 q 269 519 272 511 q 265 535 265 526 q 279 589 265 551 q 311 717 300 660 q 328 789 319 760 q 366 842 338 818 q 417 865 394 865 l 418 865 q 429 867 425 865 q 435 876 433 868 q 438 902 438 885 q 439 951 439 919 l 439 1063 l 411 1063 q 298 1027 354 1063 q 225 946 242 992 q 217 890 221 933 q 211 796 214 847 q 205 690 210 722 q 188 635 200 657 q 135 574 169 600 q 63 542 101 549 q 28 519 28 533 q 79 493 28 503 q 107 487 92 492 q 135 475 122 482 q 185 424 171 456 q 206 324 200 393 q 247 125 217 192 q 339 29 278 58 q 383 12 365 17 q 418 7 400 7 z "},"|":{"ha":142,"x_min":28,"x_max":114,"o":"m 76 7 q 102 11 90 7 q 114 22 114 15 l 110 1081 l 89 1081 q 53 1078 71 1081 q 31 1068 35 1076 q 28 972 28 1057 q 31 718 28 876 q 36 401 33 560 q 42 134 39 243 q 49 17 46 25 q 59 10 51 13 q 76 7 67 7 z "},"}":{"ha":482,"x_min":28,"x_max":454,"o":"m 108 -3 q 223 28 168 -3 q 307 111 278 58 q 322 151 318 131 q 325 214 325 172 l 325 260 q 342 398 325 350 q 403 489 358 446 q 440 527 425 510 q 454 547 454 544 q 444 559 454 550 q 418 579 433 568 q 351 649 368 611 q 332 776 335 686 q 315 912 329 868 q 264 994 301 956 q 196 1047 232 1031 q 101 1067 160 1063 q 94 1067 99 1067 q 61 1069 75 1069 q 35 1060 43 1069 q 28 1024 28 1051 q 33 933 28 993 q 39 871 36 906 q 42 871 40 871 q 139 838 107 864 q 183 714 171 811 q 240 550 204 608 q 247 536 244 543 l 229 497 q 208 427 218 471 q 188 339 197 383 q 165 247 175 275 q 131 201 156 222 q 79 175 106 181 l 47 168 l 43 51 q 47 14 43 25 q 58 3 50 3 q 108 -3 83 -3 z "},"~":{"ha":871,"x_min":28,"x_max":843,"o":"m 169 403 q 171 414 171 408 q 180 451 175 435 q 196 483 185 468 q 213 497 204 493 q 236 500 221 500 l 271 499 q 447 454 342 488 q 606 413 544 422 l 640 410 q 781 463 726 410 q 840 604 835 515 l 843 656 q 821 657 832 656 q 747 660 775 660 q 706 654 718 660 q 694 632 694 649 l 697 611 q 683 575 697 590 q 667 562 675 565 q 643 558 660 558 l 601 561 q 469 589 533 569 q 311 622 403 608 q 240 629 267 629 q 206 625 222 629 q 164 613 189 621 q 29 483 40 576 q 28 446 28 463 q 29 419 28 428 q 39 408 31 411 q 68 403 47 404 q 128 403 89 403 l 169 403 z "},"¡":{"ha":240,"x_min":28,"x_max":211,"o":"m 157 0 l 211 1 q 211 22 211 13 q 210 103 211 68 q 205 191 208 139 q 193 340 201 243 q 171 606 185 438 q 154 796 164 689 q 138 799 143 797 q 130 799 133 799 q 119 800 126 800 q 110 794 114 800 q 101 768 106 788 q 93 710 97 749 q 83 606 89 671 q 68 442 76 540 q 61 365 65 406 l 38 133 q 36 122 36 128 q 28 40 28 65 q 39 10 28 15 q 76 3 50 4 q 82 3 79 3 q 157 0 126 0 m 118 904 q 181 922 151 904 q 211 983 211 951 q 186 1046 211 1018 q 128 1074 161 1074 q 65 1044 97 1074 q 39 983 39 1015 q 74 915 39 946 q 118 904 92 904 z "},"¢":{"ha":767,"x_min":28,"x_max":739,"o":"m 565 1 l 571 99 q 597 107 585 103 q 706 151 674 129 q 739 229 739 172 q 725 276 739 282 q 714 274 719 276 q 706 268 708 271 q 640 240 694 253 q 533 228 585 228 q 465 233 490 228 q 408 254 439 239 q 247 392 304 304 q 190 579 190 479 q 221 717 190 647 q 334 845 260 799 q 497 892 408 892 q 594 876 544 892 q 650 856 622 868 q 693 833 678 843 q 720 817 708 824 q 733 810 732 810 q 738 826 736 810 q 739 867 739 843 q 739 910 739 890 l 739 940 q 724 949 731 944 q 676 970 700 960 q 614 992 653 981 q 578 1003 590 999 q 564 1015 567 1008 q 561 1033 561 1022 q 542 1078 561 1068 q 493 1088 524 1088 q 449 1086 472 1088 q 425 1085 438 1085 q 424 1060 424 1071 q 419 1023 422 1035 q 408 1007 417 1011 q 378 997 399 1003 q 376 997 378 997 q 124 828 219 954 q 28 547 28 701 q 38 454 28 501 q 200 194 79 293 q 256 154 233 168 q 308 130 279 140 q 389 103 338 119 q 425 92 406 97 q 426 75 425 86 q 426 51 426 64 q 428 26 428 38 q 429 10 429 15 q 454 3 431 4 q 506 1 478 1 l 565 1 z "},"£":{"ha":626,"x_min":28,"x_max":599,"o":"m 36 40 q 291 47 197 44 q 435 52 385 50 q 512 56 485 54 q 565 61 539 58 q 589 64 576 63 l 583 188 l 307 193 q 321 210 314 201 q 404 319 361 257 q 447 438 447 382 l 447 474 l 488 474 q 547 475 517 474 q 586 483 578 476 q 592 522 592 494 q 588 579 592 550 q 576 614 583 608 q 542 617 569 617 q 481 615 515 617 q 419 613 446 614 q 383 611 390 611 q 369 640 376 626 q 318 752 335 711 q 301 822 301 793 q 315 878 301 850 q 337 910 324 894 q 361 932 350 925 q 444 955 388 944 q 542 965 501 965 l 564 964 l 599 957 l 593 1085 q 582 1088 588 1086 q 540 1094 564 1090 q 478 1097 517 1097 l 424 1096 q 125 971 203 1088 q 104 932 110 949 q 99 882 99 915 l 99 864 q 102 809 99 831 q 122 755 106 788 q 171 660 138 722 q 194 614 182 639 l 165 614 q 117 613 144 614 q 67 611 89 613 q 38 606 44 610 q 28 557 28 596 q 32 479 28 525 q 32 468 32 474 l 165 468 q 222 467 201 468 q 251 465 242 467 q 263 458 260 463 q 267 447 265 454 q 267 447 267 447 l 268 433 q 256 375 268 408 q 226 317 244 342 q 158 258 206 292 q 75 210 111 225 q 49 194 57 204 q 38 164 40 185 q 36 100 36 143 l 36 40 z "},"¤":{"ha":785,"x_min":28,"x_max":757,"o":"m 617 158 q 643 172 624 158 q 684 203 663 185 q 722 237 706 221 q 739 258 739 253 q 730 274 739 261 q 708 301 721 286 q 685 329 696 315 q 667 350 671 344 q 678 372 674 363 q 702 420 694 401 q 713 461 710 439 q 715 526 715 483 q 713 592 715 569 q 703 633 710 615 q 682 676 696 651 q 674 694 678 685 q 688 707 678 699 q 717 732 701 718 q 745 758 733 746 q 757 776 757 771 q 744 803 757 783 q 717 841 732 824 q 694 863 703 858 l 693 863 q 664 849 685 863 q 622 817 643 835 q 589 789 601 800 q 583 785 586 786 q 571 789 576 788 q 495 815 532 804 q 419 826 458 826 q 329 808 378 826 l 271 786 q 265 793 268 789 q 238 826 254 806 q 204 862 221 846 q 181 878 188 878 q 150 859 174 878 q 106 819 126 840 q 85 790 85 797 q 99 767 85 786 q 131 728 113 749 q 161 692 149 707 q 169 682 167 686 q 161 661 165 671 q 139 593 146 617 q 132 540 132 569 q 136 461 132 511 q 139 431 138 447 q 128 422 135 428 q 88 391 111 410 q 47 356 65 372 q 28 332 28 339 q 43 303 28 322 q 77 267 58 283 q 106 251 96 251 q 140 267 118 251 q 182 297 163 282 q 200 311 193 306 q 210 317 207 317 q 235 301 217 317 q 303 258 258 282 q 415 235 349 235 l 443 236 q 489 241 468 239 q 519 246 510 243 l 525 247 q 575 206 543 247 q 603 172 592 185 q 617 158 615 158 m 425 397 q 379 406 403 397 q 308 460 332 422 q 283 540 283 499 q 300 606 283 575 q 350 658 317 638 q 428 681 390 681 q 509 651 472 681 q 563 568 546 622 q 567 538 567 553 q 507 425 567 472 q 425 397 465 397 z "},"¥":{"ha":619,"x_min":28,"x_max":592,"o":"m 300 -1 q 331 -1 315 -1 q 353 1 346 0 l 353 506 l 578 515 l 578 571 l 353 581 l 353 636 l 578 646 l 578 711 l 365 717 q 383 743 375 731 q 510 926 465 860 q 574 1022 556 992 q 592 1063 592 1051 q 589 1071 592 1068 q 582 1076 586 1074 q 558 1079 576 1079 q 488 1076 531 1079 q 419 1071 444 1072 q 407 1069 411 1069 q 401 1054 406 1067 q 379 1001 393 1035 q 350 932 365 967 q 324 872 335 897 q 310 847 313 847 q 298 868 307 847 q 276 919 289 889 q 239 1008 258 965 q 207 1064 219 1051 q 188 1074 199 1071 q 158 1076 178 1076 q 111 1075 140 1076 q 56 1069 79 1072 q 28 1063 32 1065 l 28 1061 q 68 986 28 1051 q 154 849 108 921 q 212 758 188 796 q 236 715 236 719 q 209 709 236 711 q 146 706 182 707 q 80 703 110 704 q 44 703 50 703 l 39 632 l 254 632 l 254 576 l 161 576 q 56 572 82 576 q 31 550 31 568 q 35 525 31 540 q 35 524 35 524 q 40 511 36 515 q 52 505 43 507 q 81 502 61 503 q 135 501 100 501 l 251 501 l 258 443 q 263 347 261 410 q 264 211 264 283 q 265 70 264 131 q 271 3 267 10 q 282 -1 274 0 q 300 -1 290 -1 z "},"¦":{"ha":206,"x_min":28,"x_max":178,"o":"m 78 17 q 149 18 113 17 q 172 19 167 19 l 178 482 q 140 481 154 482 q 101 478 125 481 q 28 471 76 476 l 28 329 q 28 194 28 265 q 31 74 29 124 q 35 21 32 25 q 49 17 38 18 q 78 17 61 17 m 28 594 l 172 599 q 174 733 174 688 q 175 815 175 778 q 175 925 175 853 q 167 1078 175 1074 q 138 1087 161 1083 q 92 1090 115 1090 q 43 1085 63 1090 q 35 1071 38 1083 q 31 1025 32 1058 q 28 928 29 992 q 28 758 28 864 l 28 594 z "},"§":{"ha":679,"x_min":28,"x_max":651,"o":"m 444 -1 q 513 6 490 -1 q 564 33 535 13 q 651 186 651 97 q 618 297 651 240 l 588 350 q 593 360 590 354 q 615 397 607 379 q 622 451 622 415 q 604 521 622 493 q 349 644 572 560 q 272 680 297 665 q 235 711 247 694 q 214 767 214 740 q 286 856 214 821 q 443 890 358 890 q 561 867 506 890 l 608 846 q 610 849 610 847 q 632 876 624 863 q 640 900 640 889 q 600 940 640 921 q 460 967 538 967 q 242 917 350 967 q 169 876 190 892 q 133 838 149 861 q 118 771 118 810 q 131 707 118 736 q 160 669 139 692 q 202 630 181 647 q 231 613 224 613 l 232 611 q 207 575 232 604 q 181 539 188 554 q 174 500 174 524 q 184 457 174 474 q 227 424 194 440 q 324 385 260 408 q 408 351 369 368 q 460 325 447 335 q 519 260 490 303 q 547 194 547 217 q 531 139 547 168 q 494 100 515 110 q 432 89 469 89 q 279 118 365 89 q 128 196 193 147 q 72 225 92 225 q 36 194 53 225 q 28 178 28 185 q 46 153 28 168 q 120 106 65 136 q 233 47 175 75 q 324 10 292 19 q 372 1 343 4 q 429 -1 401 -1 l 444 -1 m 519 401 q 482 417 508 401 q 386 456 444 435 q 327 478 354 467 q 288 497 300 489 q 268 529 268 513 q 288 561 268 546 q 313 569 297 569 q 375 556 331 569 q 483 513 439 536 q 539 472 528 490 q 544 451 544 463 q 538 425 544 440 q 529 407 533 413 q 519 401 525 401 z "},"¨":{"ha":403,"x_min":28,"x_max":375,"o":"m 293 961 q 344 985 318 961 q 375 1047 375 1014 q 350 1096 375 1076 q 310 1108 331 1108 q 251 1082 276 1108 q 225 1026 225 1056 q 249 979 225 1000 q 293 961 271 961 m 96 965 q 147 989 121 965 q 178 1051 178 1018 q 153 1100 178 1081 q 113 1113 133 1113 q 53 1086 79 1113 q 28 1031 28 1060 q 51 983 28 1004 q 96 965 74 965 z "},"©":{"ha":860,"x_min":-15,"x_max":836,"o":"m 408 67 q 582 104 497 67 q 731 211 667 142 q 810 338 785 272 q 836 486 836 403 l 835 528 q 825 609 832 579 q 796 682 818 639 q 632 861 736 799 q 411 924 528 924 q 274 901 342 924 q 146 831 206 878 q 24 678 64 765 q -15 499 -15 590 q 62 251 -15 367 q 285 86 139 136 q 408 67 346 67 m 426 107 l 403 107 q 293 121 339 107 q 193 169 247 135 q 66 313 111 224 q 21 499 21 401 q 56 661 21 582 q 131 766 82 715 q 233 843 181 817 q 414 886 325 886 q 615 829 522 886 q 760 668 707 772 q 784 615 776 635 q 794 569 792 594 q 796 493 796 544 q 794 419 796 444 q 786 374 793 393 q 764 326 779 356 q 579 142 701 204 q 512 115 540 122 q 426 107 483 108 m 404 246 q 576 310 500 246 l 614 343 q 607 361 610 353 q 590 400 596 388 q 574 413 583 413 q 535 390 560 413 q 424 354 482 354 q 333 377 375 354 q 268 444 290 400 q 250 513 250 481 q 267 578 250 543 q 335 656 290 628 q 433 685 381 685 q 507 669 471 685 q 539 660 528 660 q 549 663 544 660 q 560 675 553 667 q 576 708 576 694 q 529 749 576 732 q 428 769 478 769 q 290 729 354 769 q 186 615 225 689 q 160 497 160 561 q 181 393 160 442 q 240 313 201 350 q 317 261 278 276 q 404 246 360 246 z "},"ª":{"ha":532,"x_min":28,"x_max":504,"o":"m 239 488 q 302 508 275 490 q 360 569 329 526 q 387 602 375 589 q 400 615 399 615 q 403 602 403 615 q 404 569 404 589 q 415 518 404 532 q 451 504 425 504 q 470 508 460 504 q 488 515 481 511 q 496 528 493 519 q 501 557 499 536 q 503 617 503 578 q 504 719 504 656 l 504 757 q 478 1012 504 938 q 382 1114 451 1086 q 303 1129 346 1129 q 94 1054 204 1129 q 28 976 28 1010 q 33 956 28 967 q 68 933 44 933 q 154 976 101 933 q 211 1017 189 1006 q 263 1028 233 1028 l 299 1025 q 369 997 344 1022 q 406 915 393 972 q 413 880 410 896 q 417 857 417 864 l 415 853 q 399 858 411 853 q 371 872 386 864 q 264 903 317 903 q 163 872 210 903 q 85 785 117 842 q 68 682 68 756 q 158 504 68 549 q 225 488 190 488 l 239 488 m 199 579 q 163 678 165 579 q 215 807 165 771 q 272 822 239 822 q 374 788 326 822 q 381 780 378 783 q 383 771 383 776 q 363 719 383 757 q 303 638 340 676 q 235 588 267 600 q 215 582 225 585 q 199 579 204 579 z "},"«":{"ha":639,"x_min":28,"x_max":611,"o":"m 356 279 q 367 283 360 279 q 378 294 374 288 q 383 304 383 300 q 351 347 383 311 q 276 427 319 383 q 199 506 233 471 q 156 550 164 542 q 211 614 185 583 q 333 754 286 699 q 379 826 379 810 l 378 831 q 362 838 375 835 q 331 840 349 840 q 299 837 311 840 q 270 820 286 833 q 226 778 254 807 q 89 629 150 701 q 28 544 28 557 q 63 499 28 539 q 151 410 99 460 q 235 331 206 357 q 281 295 264 304 q 313 286 297 286 q 340 283 329 285 q 351 281 351 282 l 356 279 m 538 283 q 559 288 546 286 q 582 289 572 289 q 611 303 611 289 q 576 365 611 321 q 467 494 540 410 q 421 549 446 519 q 426 556 424 551 q 488 635 447 582 q 565 740 529 689 q 601 804 601 792 l 601 806 q 576 820 597 814 q 536 826 556 826 q 517 824 525 826 q 475 782 508 819 q 401 695 442 744 q 330 606 361 646 q 299 560 299 565 q 322 523 299 556 q 378 447 346 490 q 443 365 411 404 q 494 304 475 325 q 531 283 514 283 l 538 283 z "},"®":{"ha":382,"x_min":28,"x_max":354,"o":"m 190 806 q 308 853 263 808 q 354 968 354 899 q 294 1094 354 1047 q 193 1132 247 1132 q 108 1108 149 1132 q 46 1036 68 1083 q 28 963 28 997 q 117 824 28 881 q 190 806 147 806 m 192 843 q 104 878 143 843 q 65 965 65 913 q 104 1055 65 1014 q 190 1096 143 1096 q 280 1059 243 1096 q 317 969 317 1022 q 263 865 317 897 q 192 843 228 843 m 151 875 q 168 888 160 875 q 176 915 176 900 q 189 936 176 936 q 213 914 200 936 q 224 897 217 903 q 238 890 232 890 q 251 910 250 890 q 243 936 251 922 q 239 949 239 943 q 246 965 239 957 q 264 1010 264 988 q 247 1051 264 1033 q 200 1068 229 1068 q 158 1063 171 1068 q 142 1038 146 1058 q 139 969 139 1018 q 141 908 139 935 q 146 878 143 881 l 151 875 m 186 975 q 176 1003 175 975 q 181 1024 176 1018 q 194 1031 185 1031 q 210 1027 201 1031 q 224 1017 218 1024 q 228 1007 228 1011 q 213 989 228 1000 q 186 975 194 975 z "},"°":{"ha":336,"x_min":28,"x_max":308,"o":"m 169 833 q 261 869 222 833 q 307 964 300 904 l 308 981 q 265 1081 308 1042 q 168 1119 221 1119 q 68 1076 115 1119 q 28 976 28 1029 q 47 905 28 939 q 104 850 67 871 q 169 833 138 833 m 168 882 l 167 882 q 94 975 94 904 q 116 1037 94 1015 q 165 1058 138 1058 q 209 1042 188 1058 q 239 990 231 1025 l 240 975 q 228 928 240 953 q 193 890 217 903 q 168 882 172 882 z "},"±":{"ha":424,"x_min":-99,"x_max":496,"o":"m 174 244 q 194 250 181 244 q 203 263 200 251 q 208 300 207 274 q 208 376 208 326 l 208 506 l 447 511 l 447 567 l 210 572 l 204 800 l 149 800 l 149 576 l -79 572 q -94 569 -90 572 q -99 556 -99 567 q -96 529 -99 546 q -94 511 -96 521 l 153 506 l 153 450 q 153 367 153 413 q 154 289 153 322 q 158 251 156 256 q 174 244 164 244 m 99 -10 q 496 3 238 -10 l 490 88 q 384 91 476 89 q 180 96 292 93 q 7 99 68 99 q -36 97 -31 99 q -44 74 -42 94 q -47 33 -47 54 q -46 9 -47 19 q -42 -4 -44 -1 q 99 -10 -32 -10 z "},"²":{"ha":299,"x_min":28,"x_max":271,"o":"m 271 789 l 271 821 q 267 838 271 833 q 248 845 264 843 q 194 849 232 847 q 150 850 176 849 q 168 876 160 864 q 217 951 204 925 q 232 1014 231 976 l 233 1042 q 229 1069 233 1060 q 214 1092 225 1079 q 129 1128 176 1128 q 47 1092 82 1128 q 28 1047 28 1064 q 43 1029 28 1031 q 76 1046 56 1029 q 143 1069 110 1069 q 176 1058 164 1069 q 188 1026 188 1046 q 161 951 188 994 q 90 868 135 907 q 40 807 40 828 q 43 797 40 801 q 72 792 46 793 q 136 790 99 790 q 207 789 174 789 l 271 789 z "},"³":{"ha":265,"x_min":28,"x_max":238,"o":"m 83 781 q 167 797 122 781 q 217 829 203 813 q 236 876 232 846 l 238 894 q 233 915 238 906 q 217 935 228 924 q 201 951 206 944 q 197 961 197 957 q 204 974 197 967 q 215 990 208 979 q 226 1021 222 1000 l 228 1036 q 222 1058 228 1047 q 199 1083 215 1068 q 165 1110 179 1104 q 122 1117 150 1117 q 43 1079 46 1117 q 49 1064 43 1068 q 74 1060 56 1060 q 123 1049 99 1060 q 153 1025 147 1039 l 153 1024 q 143 1006 153 1019 q 118 979 133 993 q 91 952 101 965 q 81 933 81 939 q 90 919 81 925 q 108 914 99 914 l 125 917 q 146 910 135 917 q 165 893 157 903 q 172 876 172 883 l 172 872 q 151 856 168 864 q 110 842 133 847 q 68 836 88 836 q 39 828 50 836 q 28 808 28 819 q 33 794 28 801 q 83 781 49 781 z "},"´":{"ha":333,"x_min":28,"x_max":306,"o":"m 51 858 l 79 861 q 205 926 146 871 q 290 1057 264 981 q 306 1118 306 1099 q 269 1143 306 1146 q 196 1136 243 1143 q 172 1133 185 1135 q 47 904 119 974 q 28 876 28 890 l 29 871 q 37 861 32 864 q 51 858 42 858 z "},"·":{"ha":263,"x_min":28,"x_max":235,"o":"m 132 483 q 170 490 156 483 q 203 515 185 496 q 228 549 222 535 q 235 586 235 563 q 228 626 235 611 q 201 658 222 640 q 174 683 185 676 q 147 689 164 689 l 125 688 q 53 653 79 681 q 28 589 28 625 q 60 515 28 551 q 92 490 78 496 q 132 483 107 483 z "},"∙":{"ha":263,"x_min":28,"x_max":235,"o":"m 132 483 q 170 490 156 483 q 203 515 185 496 q 228 549 222 535 q 235 586 235 563 q 228 626 235 611 q 201 658 222 640 q 174 683 185 676 q 147 689 164 689 l 125 688 q 53 653 79 681 q 28 589 28 625 q 60 515 28 551 q 92 490 78 496 q 132 483 107 483 z "},"¸":{"ha":176,"x_min":28,"x_max":149,"o":"m 64 -203 q 100 -197 86 -203 q 126 -179 114 -192 q 149 -137 149 -156 q 133 -99 149 -117 q 119 -62 119 -82 q 124 -46 119 -54 q 129 -24 129 -33 q 104 4 129 0 q 67 -39 88 4 q 47 -97 47 -81 q 53 -107 47 -107 l 65 -104 q 84 -113 75 -104 q 93 -133 93 -122 q 84 -142 93 -139 q 63 -147 75 -146 q 38 -155 44 -149 q 29 -176 31 -161 l 28 -189 q 35 -201 28 -199 q 64 -203 42 -203 z "},"¹":{"ha":253,"x_min":28,"x_max":225,"o":"m 172 772 q 203 773 188 772 q 225 775 218 774 q 224 833 225 781 q 222 949 224 885 q 219 1063 221 1013 q 213 1118 217 1113 q 201 1121 210 1121 q 171 1117 189 1121 q 115 1086 147 1111 q 55 1033 82 1061 q 28 992 28 1006 q 33 977 28 981 q 58 974 38 974 l 136 976 l 136 908 q 137 850 136 879 q 139 800 138 821 q 143 776 140 779 q 154 773 146 774 q 172 772 163 772 z "},"º":{"ha":214,"x_min":28,"x_max":186,"o":"m 114 951 q 165 972 143 951 q 186 1029 186 993 q 163 1088 186 1065 q 111 1110 140 1110 q 51 1081 79 1110 q 28 1029 28 1054 q 54 978 28 1003 q 114 951 83 951 m 110 979 q 72 994 88 979 q 56 1031 56 1010 q 72 1065 56 1049 q 114 1081 92 1081 q 149 1067 135 1081 q 161 1031 161 1051 q 143 990 161 1007 q 110 979 126 979 z "},"»":{"ha":651,"x_min":28,"x_max":624,"o":"m 104 322 q 149 335 136 322 q 189 381 160 344 q 251 463 218 418 q 309 542 285 507 q 333 582 333 576 q 304 628 332 589 q 240 717 276 667 q 175 808 204 768 q 142 853 146 847 l 90 853 q 42 850 54 853 q 28 836 29 847 l 28 835 q 64 772 28 821 q 140 674 100 724 q 185 617 167 640 q 203 589 203 593 q 183 556 203 585 q 135 488 163 526 q 65 389 97 436 q 33 333 33 342 l 33 332 q 51 327 36 329 q 86 324 67 325 l 104 322 m 417 315 q 460 369 439 344 q 581 524 538 467 q 624 599 624 582 q 615 606 624 606 q 581 643 611 606 q 514 728 551 681 q 447 815 476 776 q 414 858 418 853 l 382 858 q 331 858 347 858 q 310 853 315 857 q 306 839 306 849 q 339 780 306 828 q 410 681 372 732 q 456 618 438 644 q 475 588 475 592 q 451 549 475 582 q 396 474 428 517 q 328 382 358 425 q 297 331 297 339 q 314 317 297 319 q 381 315 331 315 l 417 315 z "},"¼":{"ha":596,"x_min":28,"x_max":568,"o":"m 35 303 q 119 382 39 303 q 303 564 200 461 q 484 747 406 667 q 568 836 563 826 l 568 838 q 558 846 568 844 q 471 767 553 846 q 287 587 389 689 q 106 403 185 485 q 28 315 28 321 q 30 306 28 310 q 35 303 32 303 m 471 322 q 485 364 488 322 q 488 399 485 392 q 504 406 492 406 q 517 410 511 406 q 522 419 522 414 q 517 430 522 426 q 504 433 511 433 q 488 441 492 433 q 485 475 485 449 q 461 546 485 550 q 440 528 456 546 q 405 488 424 511 q 373 443 386 464 q 360 415 360 422 l 360 414 q 376 408 363 410 q 408 406 390 407 q 439 406 425 406 l 457 406 l 457 364 q 471 322 457 318 m 429 433 q 411 442 411 433 q 440 486 411 453 q 447 494 444 490 l 447 464 q 444 440 447 446 q 429 433 440 433 m 194 604 q 203 615 200 606 q 209 648 207 624 q 213 717 211 672 l 213 751 q 206 826 213 825 q 185 817 201 826 q 149 796 169 808 q 104 751 104 767 q 128 740 104 740 l 138 740 l 168 744 l 168 689 q 169 638 168 663 q 174 608 169 614 q 181 605 176 606 q 189 604 185 604 l 194 604 z "},"½":{"ha":542,"x_min":28,"x_max":514,"o":"m 36 285 q 113 369 40 285 q 278 562 186 453 q 442 757 371 671 q 514 847 514 843 q 510 854 514 854 q 439 792 496 854 q 258 583 382 731 q 94 386 161 468 q 28 299 28 304 q 31 289 28 293 q 36 285 33 285 m 347 322 q 438 328 385 322 q 476 336 467 331 q 486 351 486 342 q 478 365 486 363 q 449 368 469 368 l 421 368 q 435 393 429 382 q 460 439 451 419 q 468 482 468 458 q 389 546 468 542 q 331 532 354 546 q 308 494 308 518 q 319 472 308 472 q 332 482 326 472 q 344 492 336 486 q 363 500 353 497 q 381 504 372 504 q 404 493 393 504 q 421 464 421 479 q 365 386 421 435 q 357 378 363 383 q 338 358 349 369 q 317 338 326 347 q 308 328 308 329 q 347 322 308 322 m 192 569 l 199 571 q 203 616 201 575 q 206 715 206 657 q 206 792 206 764 q 203 834 206 821 q 198 851 201 847 q 188 854 194 854 q 164 839 182 854 q 125 803 146 824 q 90 765 104 783 q 75 740 75 747 q 90 735 75 736 q 122 733 106 733 l 150 733 l 150 682 q 155 599 150 619 q 178 572 160 578 l 192 569 z "},"¾":{"ha":583,"x_min":28,"x_max":556,"o":"m 42 296 q 129 381 51 301 q 306 563 207 460 q 480 747 404 665 q 556 833 556 829 q 553 842 556 839 q 547 846 551 846 q 525 828 544 846 q 459 763 506 810 q 328 630 413 715 q 114 410 244 544 q 28 304 28 319 l 28 303 q 39 296 33 296 l 42 296 m 449 315 q 463 357 461 315 q 471 393 463 382 q 486 408 479 404 q 492 414 492 411 q 479 425 492 418 q 463 476 463 433 q 450 517 463 517 q 396 467 435 517 q 357 404 357 419 q 379 394 357 393 l 435 399 l 435 378 q 435 342 435 361 q 440 319 436 324 q 449 315 444 315 m 421 433 q 411 435 415 433 q 407 438 407 436 q 410 443 407 439 q 421 453 414 447 l 431 460 q 435 449 435 460 q 431 438 435 443 q 421 433 428 433 m 114 600 q 144 604 129 600 q 199 634 179 614 q 219 675 219 654 q 200 708 219 693 q 186 726 186 717 q 192 742 186 732 q 199 767 199 754 q 183 800 199 786 q 143 814 167 814 q 126 813 135 814 q 94 799 107 808 q 82 779 82 789 q 86 769 82 774 q 96 767 89 767 q 122 775 106 767 q 149 783 139 783 q 161 779 156 783 q 168 765 168 774 q 136 719 168 747 q 118 696 118 704 q 154 686 118 685 q 181 684 169 686 q 192 679 192 682 q 166 646 192 661 q 108 631 140 631 q 75 617 76 631 q 90 604 75 611 q 114 600 100 600 z "},"¿":{"ha":517,"x_min":58,"x_max":519,"o":"m 332 625 q 288 607 311 625 q 263 558 263 586 q 278 515 263 538 q 329 494 297 494 q 376 510 356 494 q 393 556 393 529 q 374 607 393 585 q 332 625 354 625 m 310 467 q 265 431 297 467 q 197 345 232 394 q 138 251 161 296 q 60 -25 64 119 l 58 -83 q 62 -135 58 -112 q 74 -185 65 -157 q 272 -356 132 -356 q 435 -278 361 -356 q 518 -101 510 -201 l 519 -51 l 396 -47 l 386 -87 q 349 -155 374 -129 q 296 -181 324 -181 q 271 -175 283 -181 q 208 -21 208 -142 q 215 74 208 21 q 255 243 226 142 q 308 401 283 344 q 322 435 317 419 q 328 456 328 450 q 322 463 328 460 q 310 467 317 467 z "},"À":{"ha":882,"x_min":-24,"x_max":882,"o":"m 631 1069 l 631 1069 q 656 979 636 1057 q 705 791 676 901 q 761 568 733 681 q 801 408 783 478 q 831 288 818 339 q 852 199 843 236 q 867 138 861 163 q 876 99 872 114 q 881 78 879 85 q 882 67 882 71 q 882 63 882 64 q 862 6 882 22 q 825 -12 842 -10 q 792 -17 813 -15 q 732 -19 771 -18 q 731 -19 732 -19 q 692 -19 714 -19 l 692 -19 q 665 -21 678 -19 q 664 -21 665 -21 q 572 -18 614 -24 q 504 19 529 -12 q 472 129 479 58 q 471 142 472 136 q 469 150 469 147 l 469 151 l 461 194 q 401 194 426 194 q 399 175 400 185 q 369 32 385 79 l 369 22 l 358 6 q 315 -27 338 -21 q 261 -33 293 -33 q 201 -31 247 -33 q 107 -26 154 -29 q 36 -22 60 -24 l -15 -19 l -19 31 q -21 39 -21 35 q -21 39 -21 39 q -22 71 -24 54 q -12 124 -21 88 q 13 233 -4 160 q 97 578 53 400 q 176 890 142 757 q 221 1054 211 1024 l 222 1058 l 224 1061 q 294 1106 243 1099 q 368 1108 313 1108 q 473 1108 432 1108 q 538 1108 514 1108 q 575 1106 563 1107 q 593 1103 588 1104 q 603 1099 599 1101 l 622 1089 l 631 1069 m 817 15 l 817 15 q 842 30 835 21 q 850 48 849 39 q 851 63 851 57 q 851 65 851 63 q 851 71 851 67 q 849 83 850 75 q 844 103 847 90 q 837 135 842 115 q 826 181 832 154 q 810 244 819 208 q 790 327 801 281 q 765 432 779 374 q 732 561 750 490 q 708 657 726 583 q 666 820 689 731 q 626 978 643 910 q 604 1057 608 1047 l 599 1068 l 589 1072 q 585 1074 588 1074 q 574 1076 582 1075 q 553 1077 567 1076 q 515 1078 539 1078 q 456 1079 492 1079 q 368 1079 419 1079 q 291 1075 319 1079 q 251 1049 263 1071 l 250 1047 l 250 1044 q 205 881 239 1014 q 126 571 171 749 q 42 226 82 393 q 22 138 29 171 q 11 89 14 106 q 8 63 8 72 q 8 43 7 53 q 8 43 8 43 q 10 33 10 39 l 13 8 l 38 7 q 108 3 60 6 q 202 -2 156 0 q 261 -4 249 -4 q 304 0 289 -4 q 333 24 319 4 l 340 32 l 340 36 q 368 179 356 81 q 375 221 372 203 q 420 224 390 224 q 485 224 450 224 l 485 224 l 499 157 l 499 156 q 503 133 500 149 q 529 36 508 68 q 583 10 547 14 q 664 8 618 7 q 692 10 676 10 q 731 11 714 10 q 732 11 731 11 q 788 12 768 11 q 817 15 807 13 m 401 389 l 401 389 q 394 389 397 389 l 432 518 q 449 467 440 492 q 474 389 461 428 q 439 388 458 388 q 401 389 419 388 m 368 1050 l 368 1050 q 368 1050 368 1050 q 401 1050 371 1050 q 471 1049 432 1050 q 540 1048 510 1049 q 576 1046 571 1047 q 619 886 582 1031 q 703 555 656 742 q 786 220 750 368 q 822 63 822 72 q 820 50 822 54 q 810 44 818 46 q 783 41 801 42 q 731 40 764 40 q 690 39 713 39 q 663 38 676 39 q 594 38 624 36 q 553 54 564 40 q 540 91 544 67 q 532 138 535 115 q 528 163 529 153 l 510 253 q 485 253 497 253 q 349 243 360 256 q 339 183 344 228 q 326 102 333 143 q 310 43 318 61 l 310 42 q 299 31 304 35 q 286 26 294 28 q 261 25 278 25 q 203 27 249 25 q 111 32 158 29 q 40 36 64 35 q 39 46 39 42 q 38 62 38 54 q 40 85 38 69 q 51 133 43 101 q 71 221 58 165 q 156 565 111 388 q 234 874 200 743 q 278 1036 268 1006 q 302 1048 282 1046 q 368 1050 322 1050 m 511 369 l 511 369 l 511 371 q 476 476 494 422 q 445 572 458 532 q 428 613 432 613 l 354 360 q 401 360 378 360 q 478 359 446 358 q 511 369 511 360 m 550 1236 q 600 1239 578 1236 q 625 1249 622 1242 l 626 1256 q 612 1308 626 1274 q 575 1378 597 1343 q 506 1458 547 1419 q 431 1513 465 1497 q 394 1523 415 1519 q 356 1526 374 1526 q 319 1518 329 1526 l 319 1517 q 328 1497 319 1510 q 349 1468 336 1483 q 426 1321 410 1386 q 445 1272 435 1292 q 471 1244 456 1251 q 505 1238 483 1240 q 550 1236 526 1236 z "},"Á":{"ha":882,"x_min":-24,"x_max":882,"o":"m 631 1069 l 631 1069 q 656 979 636 1057 q 705 791 676 901 q 761 568 733 681 q 801 408 783 478 q 831 288 818 339 q 852 199 843 236 q 867 138 861 163 q 876 99 872 114 q 881 78 879 85 q 882 67 882 71 q 882 63 882 64 q 862 6 882 22 q 825 -12 842 -10 q 792 -17 813 -15 q 732 -19 771 -18 q 731 -19 732 -19 q 692 -19 714 -19 l 692 -19 q 665 -21 678 -19 q 664 -21 665 -21 q 572 -18 614 -24 q 504 19 529 -12 q 472 129 479 58 q 471 142 472 136 q 469 150 469 147 l 469 151 l 461 194 q 401 194 426 194 q 399 175 400 185 q 369 32 385 79 l 369 22 l 358 6 q 315 -27 338 -21 q 261 -33 293 -33 q 201 -31 247 -33 q 107 -26 154 -29 q 36 -22 60 -24 l -15 -19 l -19 31 q -21 39 -21 35 q -21 39 -21 39 q -22 71 -24 54 q -12 124 -21 88 q 13 233 -4 160 q 97 578 53 400 q 176 890 142 757 q 221 1054 211 1024 l 222 1058 l 224 1061 q 294 1106 243 1099 q 368 1108 313 1108 q 473 1108 432 1108 q 538 1108 514 1108 q 575 1106 563 1107 q 593 1103 588 1104 q 603 1099 599 1101 l 622 1089 l 631 1069 m 817 15 l 817 15 q 842 30 835 21 q 850 48 849 39 q 851 63 851 57 q 851 65 851 63 q 851 71 851 67 q 849 83 850 75 q 844 103 847 90 q 837 135 842 115 q 826 181 832 154 q 810 244 819 208 q 790 327 801 281 q 765 432 779 374 q 732 561 750 490 q 708 657 726 583 q 666 820 689 731 q 626 978 643 910 q 604 1057 608 1047 l 599 1068 l 589 1072 q 585 1074 588 1074 q 574 1076 582 1075 q 553 1077 567 1076 q 515 1078 539 1078 q 456 1079 492 1079 q 368 1079 419 1079 q 291 1075 319 1079 q 251 1049 263 1071 l 250 1047 l 250 1044 q 205 881 239 1014 q 126 571 171 749 q 42 226 82 393 q 22 138 29 171 q 11 89 14 106 q 8 63 8 72 q 8 43 7 53 q 8 43 8 43 q 10 33 10 39 l 13 8 l 38 7 q 108 3 60 6 q 202 -2 156 0 q 261 -4 249 -4 q 304 0 289 -4 q 333 24 319 4 l 340 32 l 340 36 q 368 179 356 81 q 375 221 372 203 q 420 224 390 224 q 485 224 450 224 l 485 224 l 499 157 l 499 156 q 503 133 500 149 q 529 36 508 68 q 583 10 547 14 q 664 8 618 7 q 692 10 676 10 q 731 11 714 10 q 732 11 731 11 q 788 12 768 11 q 817 15 807 13 m 401 389 l 401 389 q 394 389 397 389 l 432 518 q 449 467 440 492 q 474 389 461 428 q 439 388 458 388 q 401 389 419 388 m 368 1050 l 368 1050 q 368 1050 368 1050 q 401 1050 371 1050 q 471 1049 432 1050 q 540 1048 510 1049 q 576 1046 571 1047 q 619 886 582 1031 q 703 555 656 742 q 786 220 750 368 q 822 63 822 72 q 820 50 822 54 q 810 44 818 46 q 783 41 801 42 q 731 40 764 40 q 690 39 713 39 q 663 38 676 39 q 594 38 624 36 q 553 54 564 40 q 540 91 544 67 q 532 138 535 115 q 528 163 529 153 l 510 253 q 485 253 497 253 q 349 243 360 256 q 339 183 344 228 q 326 102 333 143 q 310 43 318 61 l 310 42 q 299 31 304 35 q 286 26 294 28 q 261 25 278 25 q 203 27 249 25 q 111 32 158 29 q 40 36 64 35 q 39 46 39 42 q 38 62 38 54 q 40 85 38 69 q 51 133 43 101 q 71 221 58 165 q 156 565 111 388 q 234 874 200 743 q 278 1036 268 1006 q 302 1048 282 1046 q 368 1050 322 1050 m 511 369 l 511 369 l 511 371 q 476 476 494 422 q 445 572 458 532 q 428 613 432 613 l 354 360 q 401 360 378 360 q 478 359 446 358 q 511 369 511 360 m 350 1222 l 378 1225 q 503 1290 444 1235 q 589 1421 563 1344 q 604 1482 604 1463 q 568 1507 604 1510 q 494 1500 542 1507 q 471 1497 483 1499 q 346 1268 418 1338 q 326 1240 326 1254 l 328 1235 q 335 1225 331 1228 q 350 1222 340 1222 z "},"Â":{"ha":882,"x_min":-24,"x_max":882,"o":"m 631 1069 l 631 1069 q 656 979 636 1057 q 705 791 676 901 q 761 568 733 681 q 801 408 783 478 q 831 288 818 339 q 852 199 843 236 q 867 138 861 163 q 876 99 872 114 q 881 78 879 85 q 882 67 882 71 q 882 63 882 64 q 862 6 882 22 q 825 -12 842 -10 q 792 -17 813 -15 q 732 -19 771 -18 q 731 -19 732 -19 q 692 -19 714 -19 l 692 -19 q 665 -21 678 -19 q 664 -21 665 -21 q 572 -18 614 -24 q 504 19 529 -12 q 472 129 479 58 q 471 142 472 136 q 469 150 469 147 l 469 151 l 461 194 q 401 194 426 194 q 399 175 400 185 q 369 32 385 79 l 369 22 l 358 6 q 315 -27 338 -21 q 261 -33 293 -33 q 201 -31 247 -33 q 107 -26 154 -29 q 36 -22 60 -24 l -15 -19 l -19 31 q -21 39 -21 35 q -21 39 -21 39 q -22 71 -24 54 q -12 124 -21 88 q 13 233 -4 160 q 97 578 53 400 q 176 890 142 757 q 221 1054 211 1024 l 222 1058 l 224 1061 q 294 1106 243 1099 q 368 1108 313 1108 q 473 1108 432 1108 q 538 1108 514 1108 q 575 1106 563 1107 q 593 1103 588 1104 q 603 1099 599 1101 l 622 1089 l 631 1069 m 817 15 l 817 15 q 842 30 835 21 q 850 48 849 39 q 851 63 851 57 q 851 65 851 63 q 851 71 851 67 q 849 83 850 75 q 844 103 847 90 q 837 135 842 115 q 826 181 832 154 q 810 244 819 208 q 790 327 801 281 q 765 432 779 374 q 732 561 750 490 q 708 657 726 583 q 666 820 689 731 q 626 978 643 910 q 604 1057 608 1047 l 599 1068 l 589 1072 q 585 1074 588 1074 q 574 1076 582 1075 q 553 1077 567 1076 q 515 1078 539 1078 q 456 1079 492 1079 q 368 1079 419 1079 q 291 1075 319 1079 q 251 1049 263 1071 l 250 1047 l 250 1044 q 205 881 239 1014 q 126 571 171 749 q 42 226 82 393 q 22 138 29 171 q 11 89 14 106 q 8 63 8 72 q 8 43 7 53 q 8 43 8 43 q 10 33 10 39 l 13 8 l 38 7 q 108 3 60 6 q 202 -2 156 0 q 261 -4 249 -4 q 304 0 289 -4 q 333 24 319 4 l 340 32 l 340 36 q 368 179 356 81 q 375 221 372 203 q 420 224 390 224 q 485 224 450 224 l 485 224 l 499 157 l 499 156 q 503 133 500 149 q 529 36 508 68 q 583 10 547 14 q 664 8 618 7 q 692 10 676 10 q 731 11 714 10 q 732 11 731 11 q 788 12 768 11 q 817 15 807 13 m 401 389 l 401 389 q 394 389 397 389 l 432 518 q 449 467 440 492 q 474 389 461 428 q 439 388 458 388 q 401 389 419 388 m 368 1050 l 368 1050 q 368 1050 368 1050 q 401 1050 371 1050 q 471 1049 432 1050 q 540 1048 510 1049 q 576 1046 571 1047 q 619 886 582 1031 q 703 555 656 742 q 786 220 750 368 q 822 63 822 72 q 820 50 822 54 q 810 44 818 46 q 783 41 801 42 q 731 40 764 40 q 690 39 713 39 q 663 38 676 39 q 594 38 624 36 q 553 54 564 40 q 540 91 544 67 q 532 138 535 115 q 528 163 529 153 l 510 253 q 485 253 497 253 q 349 243 360 256 q 339 183 344 228 q 326 102 333 143 q 310 43 318 61 l 310 42 q 299 31 304 35 q 286 26 294 28 q 261 25 278 25 q 203 27 249 25 q 111 32 158 29 q 40 36 64 35 q 39 46 39 42 q 38 62 38 54 q 40 85 38 69 q 51 133 43 101 q 71 221 58 165 q 156 565 111 388 q 234 874 200 743 q 278 1036 268 1006 q 302 1048 282 1046 q 368 1050 322 1050 m 511 369 l 511 369 l 511 371 q 476 476 494 422 q 445 572 458 532 q 428 613 432 613 l 354 360 q 401 360 378 360 q 478 359 446 358 q 511 369 511 360 m 363 1278 q 382 1279 374 1278 q 390 1285 390 1281 q 408 1309 390 1288 q 451 1357 426 1331 q 494 1403 475 1383 q 517 1428 513 1424 q 544 1392 531 1410 q 606 1314 578 1347 q 646 1281 633 1281 l 649 1281 q 665 1285 656 1283 q 681 1286 674 1286 q 693 1289 688 1286 q 699 1296 699 1292 q 668 1342 699 1301 q 601 1428 638 1382 q 539 1507 564 1475 q 519 1531 522 1526 q 476 1486 497 1507 q 351 1354 396 1403 q 307 1292 307 1306 l 308 1289 q 330 1281 314 1283 q 363 1278 346 1278 z "},"Ã":{"ha":882,"x_min":-24,"x_max":882,"o":"m 631 1069 l 631 1069 q 656 979 636 1057 q 705 791 676 901 q 761 568 733 681 q 801 408 783 478 q 831 288 818 339 q 852 199 843 236 q 867 138 861 163 q 876 99 872 114 q 881 78 879 85 q 882 67 882 71 q 882 63 882 64 q 862 6 882 22 q 825 -12 842 -10 q 792 -17 813 -15 q 732 -19 771 -18 q 731 -19 732 -19 q 692 -19 714 -19 l 692 -19 q 665 -21 678 -19 q 664 -21 665 -21 q 572 -18 614 -24 q 504 19 529 -12 q 472 129 479 58 q 471 142 472 136 q 469 150 469 147 l 469 151 l 461 194 q 401 194 426 194 q 399 175 400 185 q 369 32 385 79 l 369 22 l 358 6 q 315 -27 338 -21 q 261 -33 293 -33 q 201 -31 247 -33 q 107 -26 154 -29 q 36 -22 60 -24 l -15 -19 l -19 31 q -21 39 -21 35 q -21 39 -21 39 q -22 71 -24 54 q -12 124 -21 88 q 13 233 -4 160 q 97 578 53 400 q 176 890 142 757 q 221 1054 211 1024 l 222 1058 l 224 1061 q 294 1106 243 1099 q 368 1108 313 1108 q 473 1108 432 1108 q 538 1108 514 1108 q 575 1106 563 1107 q 593 1103 588 1104 q 603 1099 599 1101 l 622 1089 l 631 1069 m 817 15 l 817 15 q 842 30 835 21 q 850 48 849 39 q 851 63 851 57 q 851 65 851 63 q 851 71 851 67 q 849 83 850 75 q 844 103 847 90 q 837 135 842 115 q 826 181 832 154 q 810 244 819 208 q 790 327 801 281 q 765 432 779 374 q 732 561 750 490 q 708 657 726 583 q 666 820 689 731 q 626 978 643 910 q 604 1057 608 1047 l 599 1068 l 589 1072 q 585 1074 588 1074 q 574 1076 582 1075 q 553 1077 567 1076 q 515 1078 539 1078 q 456 1079 492 1079 q 368 1079 419 1079 q 291 1075 319 1079 q 251 1049 263 1071 l 250 1047 l 250 1044 q 205 881 239 1014 q 126 571 171 749 q 42 226 82 393 q 22 138 29 171 q 11 89 14 106 q 8 63 8 72 q 8 43 7 53 q 8 43 8 43 q 10 33 10 39 l 13 8 l 38 7 q 108 3 60 6 q 202 -2 156 0 q 261 -4 249 -4 q 304 0 289 -4 q 333 24 319 4 l 340 32 l 340 36 q 368 179 356 81 q 375 221 372 203 q 420 224 390 224 q 485 224 450 224 l 485 224 l 499 157 l 499 156 q 503 133 500 149 q 529 36 508 68 q 583 10 547 14 q 664 8 618 7 q 692 10 676 10 q 731 11 714 10 q 732 11 731 11 q 788 12 768 11 q 817 15 807 13 m 401 389 l 401 389 q 394 389 397 389 l 432 518 q 449 467 440 492 q 474 389 461 428 q 439 388 458 388 q 401 389 419 388 m 368 1050 l 368 1050 q 368 1050 368 1050 q 401 1050 371 1050 q 471 1049 432 1050 q 540 1048 510 1049 q 576 1046 571 1047 q 619 886 582 1031 q 703 555 656 742 q 786 220 750 368 q 822 63 822 72 q 820 50 822 54 q 810 44 818 46 q 783 41 801 42 q 731 40 764 40 q 690 39 713 39 q 663 38 676 39 q 594 38 624 36 q 553 54 564 40 q 540 91 544 67 q 532 138 535 115 q 528 163 529 153 l 510 253 q 485 253 497 253 q 349 243 360 256 q 339 183 344 228 q 326 102 333 143 q 310 43 318 61 l 310 42 q 299 31 304 35 q 286 26 294 28 q 261 25 278 25 q 203 27 249 25 q 111 32 158 29 q 40 36 64 35 q 39 46 39 42 q 38 62 38 54 q 40 85 38 69 q 51 133 43 101 q 71 221 58 165 q 156 565 111 388 q 234 874 200 743 q 278 1036 268 1006 q 302 1048 282 1046 q 368 1050 322 1050 m 511 369 l 511 369 l 511 371 q 476 476 494 422 q 445 572 458 532 q 428 613 432 613 l 354 360 q 401 360 378 360 q 478 359 446 358 q 511 369 511 360 m 325 1228 l 325 1257 q 346 1310 325 1289 q 397 1331 367 1331 q 435 1322 410 1331 q 483 1303 460 1314 q 540 1280 517 1286 q 600 1274 564 1274 q 714 1308 682 1274 q 746 1425 746 1342 q 740 1506 746 1488 q 701 1525 733 1525 l 638 1522 q 621 1436 632 1467 q 571 1406 610 1406 q 490 1425 542 1406 q 358 1451 417 1451 q 239 1411 283 1451 q 194 1297 194 1371 q 197 1260 194 1278 q 206 1239 200 1243 q 242 1230 214 1232 q 294 1228 269 1228 l 325 1228 z "},"Ä":{"ha":882,"x_min":-24,"x_max":882,"o":"m 631 1069 l 631 1069 q 656 979 636 1057 q 705 791 676 901 q 761 568 733 681 q 801 408 783 478 q 831 288 818 339 q 852 199 843 236 q 867 138 861 163 q 876 99 872 114 q 881 78 879 85 q 882 67 882 71 q 882 63 882 64 q 862 6 882 22 q 825 -12 842 -10 q 792 -17 813 -15 q 732 -19 771 -18 q 731 -19 732 -19 q 692 -19 714 -19 l 692 -19 q 665 -21 678 -19 q 664 -21 665 -21 q 572 -18 614 -24 q 504 19 529 -12 q 472 129 479 58 q 471 142 472 136 q 469 150 469 147 l 469 151 l 461 194 q 401 194 426 194 q 399 175 400 185 q 369 32 385 79 l 369 22 l 358 6 q 315 -27 338 -21 q 261 -33 293 -33 q 201 -31 247 -33 q 107 -26 154 -29 q 36 -22 60 -24 l -15 -19 l -19 31 q -21 39 -21 35 q -21 39 -21 39 q -22 71 -24 54 q -12 124 -21 88 q 13 233 -4 160 q 97 578 53 400 q 176 890 142 757 q 221 1054 211 1024 l 222 1058 l 224 1061 q 294 1106 243 1099 q 368 1108 313 1108 q 473 1108 432 1108 q 538 1108 514 1108 q 575 1106 563 1107 q 593 1103 588 1104 q 603 1099 599 1101 l 622 1089 l 631 1069 m 817 15 l 817 15 q 842 30 835 21 q 850 48 849 39 q 851 63 851 57 q 851 65 851 63 q 851 71 851 67 q 849 83 850 75 q 844 103 847 90 q 837 135 842 115 q 826 181 832 154 q 810 244 819 208 q 790 327 801 281 q 765 432 779 374 q 732 561 750 490 q 708 657 726 583 q 666 820 689 731 q 626 978 643 910 q 604 1057 608 1047 l 599 1068 l 589 1072 q 585 1074 588 1074 q 574 1076 582 1075 q 553 1077 567 1076 q 515 1078 539 1078 q 456 1079 492 1079 q 368 1079 419 1079 q 291 1075 319 1079 q 251 1049 263 1071 l 250 1047 l 250 1044 q 205 881 239 1014 q 126 571 171 749 q 42 226 82 393 q 22 138 29 171 q 11 89 14 106 q 8 63 8 72 q 8 43 7 53 q 8 43 8 43 q 10 33 10 39 l 13 8 l 38 7 q 108 3 60 6 q 202 -2 156 0 q 261 -4 249 -4 q 304 0 289 -4 q 333 24 319 4 l 340 32 l 340 36 q 368 179 356 81 q 375 221 372 203 q 420 224 390 224 q 485 224 450 224 l 485 224 l 499 157 l 499 156 q 503 133 500 149 q 529 36 508 68 q 583 10 547 14 q 664 8 618 7 q 692 10 676 10 q 731 11 714 10 q 732 11 731 11 q 788 12 768 11 q 817 15 807 13 m 401 389 l 401 389 q 394 389 397 389 l 432 518 q 449 467 440 492 q 474 389 461 428 q 439 388 458 388 q 401 389 419 388 m 368 1050 l 368 1050 q 368 1050 368 1050 q 401 1050 371 1050 q 471 1049 432 1050 q 540 1048 510 1049 q 576 1046 571 1047 q 619 886 582 1031 q 703 555 656 742 q 786 220 750 368 q 822 63 822 72 q 820 50 822 54 q 810 44 818 46 q 783 41 801 42 q 731 40 764 40 q 690 39 713 39 q 663 38 676 39 q 594 38 624 36 q 553 54 564 40 q 540 91 544 67 q 532 138 535 115 q 528 163 529 153 l 510 253 q 485 253 497 253 q 349 243 360 256 q 339 183 344 228 q 326 102 333 143 q 310 43 318 61 l 310 42 q 299 31 304 35 q 286 26 294 28 q 261 25 278 25 q 203 27 249 25 q 111 32 158 29 q 40 36 64 35 q 39 46 39 42 q 38 62 38 54 q 40 85 38 69 q 51 133 43 101 q 71 221 58 165 q 156 565 111 388 q 234 874 200 743 q 278 1036 268 1006 q 302 1048 282 1046 q 368 1050 322 1050 m 511 369 l 511 369 l 511 371 q 476 476 494 422 q 445 572 458 532 q 428 613 432 613 l 354 360 q 401 360 378 360 q 478 359 446 358 q 511 369 511 360 m 582 1296 q 633 1319 607 1296 q 664 1382 664 1349 q 639 1431 664 1411 q 599 1443 619 1443 q 540 1417 565 1443 q 514 1361 514 1390 q 538 1314 514 1335 q 582 1296 560 1296 m 385 1300 q 436 1324 410 1300 q 467 1386 467 1353 q 442 1435 467 1415 q 401 1447 422 1447 q 342 1421 368 1447 q 317 1365 317 1394 q 340 1318 317 1339 q 385 1300 363 1300 z "},"Å":{"ha":882,"x_min":-24,"x_max":882,"o":"m 631 1069 l 631 1069 q 656 979 636 1057 q 705 791 676 901 q 761 568 733 681 q 801 408 783 478 q 831 288 818 339 q 852 199 843 236 q 867 138 861 163 q 876 99 872 114 q 881 78 879 85 q 882 67 882 71 q 882 63 882 64 q 862 6 882 22 q 825 -12 842 -10 q 792 -17 813 -15 q 732 -19 771 -18 q 731 -19 732 -19 q 692 -19 714 -19 l 692 -19 q 665 -21 678 -19 q 664 -21 665 -21 q 572 -18 614 -24 q 504 19 529 -12 q 472 129 479 58 q 471 142 472 136 q 469 150 469 147 l 469 151 l 461 194 q 401 194 426 194 q 399 175 400 185 q 369 32 385 79 l 369 22 l 358 6 q 315 -27 338 -21 q 261 -33 293 -33 q 201 -31 247 -33 q 107 -26 154 -29 q 36 -22 60 -24 l -15 -19 l -19 31 q -21 39 -21 35 q -21 39 -21 39 q -22 71 -24 54 q -12 124 -21 88 q 13 233 -4 160 q 97 578 53 400 q 176 890 142 757 q 221 1054 211 1024 l 222 1058 l 224 1061 q 294 1106 243 1099 q 368 1108 313 1108 q 473 1108 432 1108 q 538 1108 514 1108 q 575 1106 563 1107 q 593 1103 588 1104 q 603 1099 599 1101 l 622 1089 l 631 1069 m 817 15 l 817 15 q 842 30 835 21 q 850 48 849 39 q 851 63 851 57 q 851 65 851 63 q 851 71 851 67 q 849 83 850 75 q 844 103 847 90 q 837 135 842 115 q 826 181 832 154 q 810 244 819 208 q 790 327 801 281 q 765 432 779 374 q 732 561 750 490 q 708 657 726 583 q 666 820 689 731 q 626 978 643 910 q 604 1057 608 1047 l 599 1068 l 589 1072 q 585 1074 588 1074 q 574 1076 582 1075 q 553 1077 567 1076 q 515 1078 539 1078 q 456 1079 492 1079 q 368 1079 419 1079 q 291 1075 319 1079 q 251 1049 263 1071 l 250 1047 l 250 1044 q 205 881 239 1014 q 126 571 171 749 q 42 226 82 393 q 22 138 29 171 q 11 89 14 106 q 8 63 8 72 q 8 43 7 53 q 8 43 8 43 q 10 33 10 39 l 13 8 l 38 7 q 108 3 60 6 q 202 -2 156 0 q 261 -4 249 -4 q 304 0 289 -4 q 333 24 319 4 l 340 32 l 340 36 q 368 179 356 81 q 375 221 372 203 q 420 224 390 224 q 485 224 450 224 l 485 224 l 499 157 l 499 156 q 503 133 500 149 q 529 36 508 68 q 583 10 547 14 q 664 8 618 7 q 692 10 676 10 q 731 11 714 10 q 732 11 731 11 q 788 12 768 11 q 817 15 807 13 m 401 389 l 401 389 q 394 389 397 389 l 432 518 q 449 467 440 492 q 474 389 461 428 q 439 388 458 388 q 401 389 419 388 m 368 1050 l 368 1050 q 368 1050 368 1050 q 401 1050 371 1050 q 471 1049 432 1050 q 540 1048 510 1049 q 576 1046 571 1047 q 619 886 582 1031 q 703 555 656 742 q 786 220 750 368 q 822 63 822 72 q 820 50 822 54 q 810 44 818 46 q 783 41 801 42 q 731 40 764 40 q 690 39 713 39 q 663 38 676 39 q 594 38 624 36 q 553 54 564 40 q 540 91 544 67 q 532 138 535 115 q 528 163 529 153 l 510 253 q 485 253 497 253 q 349 243 360 256 q 339 183 344 228 q 326 102 333 143 q 310 43 318 61 l 310 42 q 299 31 304 35 q 286 26 294 28 q 261 25 278 25 q 203 27 249 25 q 111 32 158 29 q 40 36 64 35 q 39 46 39 42 q 38 62 38 54 q 40 85 38 69 q 51 133 43 101 q 71 221 58 165 q 156 565 111 388 q 234 874 200 743 q 278 1036 268 1006 q 302 1048 282 1046 q 368 1050 322 1050 m 511 369 l 511 369 l 511 371 q 476 476 494 422 q 445 572 458 532 q 428 613 432 613 l 354 360 q 401 360 378 360 q 478 359 446 358 q 511 369 511 360 m 492 1293 q 542 1314 521 1293 q 564 1371 564 1335 q 541 1429 564 1407 q 489 1451 518 1451 q 429 1422 457 1451 q 406 1371 406 1396 q 432 1319 406 1344 q 492 1293 461 1293 m 488 1321 q 449 1336 465 1321 q 433 1372 433 1351 q 450 1407 433 1390 q 492 1422 469 1422 q 526 1408 513 1422 q 539 1372 539 1393 q 521 1332 539 1349 q 488 1321 504 1321 z "},"Æ":{"ha":1764,"x_min":-24,"x_max":1706,"o":"m 438 393 q 400 394 418 393 l 393 394 l 431 524 l 472 394 q 438 393 457 393 m 486 365 q 510 376 510 365 q 426 618 432 618 l 353 365 l 486 365 m 260 31 q 39 42 228 31 q 36 68 36 53 q 50 139 36 83 l 69 226 q 154 571 110 393 q 276 1042 256 975 q 301 1053 281 1051 q 367 1056 321 1056 q 575 1051 558 1056 q 701 559 582 1031 q 821 68 821 88 q 818 53 821 60 q 784 46 815 47 q 689 44 753 44 l 636 43 q 588 44 613 43 q 551 60 563 46 q 531 143 539 79 l 508 258 l 442 258 q 347 249 357 258 q 338 191 343 233 q 325 108 332 149 q 299 38 314 47 q 260 31 289 31 m 1381 24 l 982 24 q 917 26 928 24 q 896 29 906 29 q 906 1065 896 1032 l 1000 1067 q 1417 1061 1167 1067 q 1643 1058 1581 1058 q 1644 985 1643 1019 l 1646 847 q 1636 788 1644 793 q 1249 779 1608 779 l 1249 647 l 1319 647 q 1494 640 1478 647 q 1511 586 1511 632 l 1510 525 l 1507 465 l 1249 465 l 1249 303 l 1414 303 q 1626 297 1604 303 q 1642 284 1639 297 q 1646 208 1646 271 q 1643 25 1646 142 l 1381 24 m 1635 -6 l 1672 -4 l 1674 24 q 1676 225 1674 121 q 1674 276 1676 260 q 1631 327 1671 321 q 1418 333 1592 333 l 1279 332 l 1279 436 l 1536 436 l 1542 581 q 1535 638 1542 617 q 1450 675 1521 672 q 1279 676 1408 676 l 1279 750 q 1501 752 1383 750 q 1641 758 1618 754 q 1669 785 1664 763 q 1675 886 1675 808 l 1674 985 q 1672 1088 1674 1058 q 1417 1090 1581 1088 q 1000 1096 1167 1096 l 890 1094 l 882 1082 q 872 1036 874 1078 q 869 900 869 994 l 867 776 q 865 168 865 508 q 875 106 871 119 q 881 74 881 79 q 865 17 881 33 l 865 6 l 890 1 q 1006 -6 904 -6 l 1635 -6 m 260 1 q 301 5 288 1 q 339 38 315 8 l 339 42 q 374 226 350 75 q 483 229 389 229 l 501 139 q 528 42 507 74 q 582 17 546 19 q 640 14 608 14 l 690 15 q 786 18 728 15 q 836 31 821 18 l 836 140 q 824 187 831 160 q 809 250 818 214 q 789 333 800 286 l 665 826 q 624 985 642 915 q 597 1074 606 1056 q 589 1078 593 1076 q 551 1083 585 1081 q 454 1085 510 1085 q 290 1081 318 1085 q 250 1054 261 1076 l 249 1053 l 249 1050 q 204 888 238 1019 q 40 232 118 556 l 21 144 q 7 58 7 85 l 11 14 l 36 13 q 260 1 214 1 m 1635 -35 q 939 -34 963 -35 q 889 -29 915 -33 l 836 -18 l 836 -3 q 711 -14 814 -11 q 661 -15 676 -14 q 631 -17 646 -17 q 564 -11 599 -17 q 471 135 485 -1 q 469 147 471 142 q 468 155 468 153 q 460 200 468 157 l 400 200 q 368 38 383 86 l 368 28 q 316 -21 340 -14 q 260 -28 292 -28 q 106 -21 224 -28 l -17 -14 l -21 36 q -24 65 -24 46 q -14 129 -24 85 l 11 239 q 175 896 104 622 q 221 1064 211 1036 q 293 1111 240 1104 q 367 1114 311 1114 l 538 1114 q 592 1108 576 1113 l 621 1094 q 760 574 644 1038 l 836 264 q 840 982 836 876 q 849 1082 840 1058 q 875 1122 853 1094 q 1000 1125 919 1125 q 1418 1119 1165 1125 q 1701 1117 1581 1117 l 1704 986 l 1706 846 q 1699 779 1706 810 q 1633 728 1686 733 q 1310 721 1571 721 l 1310 706 l 1401 707 q 1467 704 1436 707 q 1569 611 1561 700 q 1571 574 1571 596 q 1569 524 1571 551 q 1567 466 1568 496 q 1565 407 1567 436 l 1310 407 l 1310 361 l 1403 361 q 1638 356 1615 361 q 1704 279 1697 344 q 1706 226 1706 261 q 1701 -33 1706 138 l 1635 -35 z "},"Ç":{"ha":1019,"x_min":-7,"x_max":961,"o":"m 550 36 q 476 42 510 36 q 172 213 285 83 q 53 528 53 347 q 172 849 53 689 q 513 1065 293 1003 q 644 1076 565 1076 q 768 1067 724 1076 q 849 1040 813 1057 q 894 1014 886 1024 q 901 896 901 1004 q 887 817 901 831 q 818 803 872 803 q 632 766 729 803 q 471 675 535 729 q 413 597 438 642 q 388 525 388 553 q 392 496 388 510 q 554 335 425 378 q 754 300 657 300 l 801 303 q 853 306 832 306 q 894 294 893 306 q 896 271 896 283 l 894 235 q 890 163 893 186 q 881 128 888 139 q 858 108 874 118 q 708 54 797 72 q 550 36 619 36 m 501 8 q 550 7 525 7 q 718 26 625 7 q 874 83 811 46 q 906 113 896 97 q 919 156 917 128 q 924 235 922 183 q 925 271 925 251 l 926 272 q 924 301 924 286 q 872 335 915 332 q 800 332 836 335 l 754 329 q 565 361 657 329 q 421 504 446 401 q 418 528 418 515 q 421 546 418 536 q 492 653 440 604 q 645 738 553 704 q 818 772 738 772 q 908 796 888 772 q 931 896 931 814 q 928 1006 931 978 q 919 1031 924 1026 q 864 1067 913 1046 q 774 1097 822 1086 q 644 1107 726 1107 q 506 1094 563 1107 q 149 867 276 1028 q 22 525 22 700 q 53 353 22 440 q 472 13 161 82 q 482 11 476 11 q 488 13 485 13 q 501 8 496 13 m 458 -15 q 24 343 138 61 q -7 524 -7 435 q 126 886 -7 710 q 496 1124 258 1054 l 501 1124 q 644 1136 558 1136 q 875 1094 789 1136 q 940 1054 924 1074 l 944 1047 q 957 1014 954 1033 q 961 896 961 978 q 929 774 961 800 q 818 743 901 743 q 657 711 743 743 q 464 568 517 660 q 447 526 447 535 l 447 525 l 449 519 q 581 386 472 424 q 744 360 663 360 q 799 363 758 360 l 854 364 q 933 343 913 364 q 954 303 949 326 q 955 267 956 286 q 954 233 954 249 q 942 120 953 157 q 890 58 932 83 q 723 -3 819 17 q 550 -24 626 -24 q 511 -22 529 -24 q 507 -37 510 -29 q 503 -54 503 -46 q 517 -90 503 -74 q 531 -129 531 -108 q 510 -171 531 -147 q 483 -189 496 -183 q 447 -194 469 -194 q 418 -192 425 -194 q 411 -181 411 -190 l 413 -168 q 421 -147 414 -153 q 446 -139 428 -140 q 467 -134 458 -137 q 476 -125 476 -131 q 467 -105 476 -114 q 449 -96 458 -96 l 436 -99 q 429 -89 429 -99 q 450 -31 429 -72 q 458 -15 454 -22 z "},"È":{"ha":989,"x_min":61,"x_max":931,"o":"m 928 -39 l 928 -39 l 860 -40 q 354 -40 514 -40 q 231 -40 275 -40 q 165 -40 188 -40 q 132 -37 142 -39 q 114 -35 122 -36 q 114 -35 114 -35 q 110 -33 111 -33 l 61 -24 l 61 24 q 61 163 61 93 q 63 771 61 503 q 65 976 63 906 q 68 1042 67 1019 q 73 1076 69 1065 q 82 1094 76 1086 l 100 1117 l 129 1118 q 353 1118 208 1119 q 643 1114 499 1117 q 868 1111 806 1111 l 928 1111 l 928 1054 q 929 981 929 1015 q 931 840 931 896 q 924 774 931 804 q 885 728 917 743 q 876 725 882 726 q 859 722 871 724 q 824 719 847 721 q 765 717 801 718 q 671 716 728 717 q 535 715 614 715 l 535 700 q 538 700 536 700 q 544 700 540 700 q 681 699 639 701 q 744 688 724 697 q 796 606 789 667 q 794 517 797 574 q 792 458 793 490 l 790 401 l 535 401 l 535 356 q 863 350 836 357 q 929 274 922 339 q 931 221 931 256 q 929 121 931 186 q 928 18 929 78 l 928 -39 m 347 -11 l 347 -11 q 860 -11 506 -11 l 897 -10 l 899 18 q 900 121 899 78 q 901 219 901 185 q 899 271 901 254 q 857 321 896 315 q 514 326 803 329 q 511 326 513 326 q 504 326 507 326 l 504 431 l 761 431 l 763 460 q 765 518 764 492 q 765 603 768 574 q 759 631 765 614 q 732 660 753 649 q 674 669 715 668 q 544 671 633 671 q 542 671 543 671 q 504 671 524 671 l 504 744 q 506 744 506 744 q 633 745 579 744 q 726 747 688 746 q 791 748 765 747 q 832 749 817 749 q 856 751 847 750 q 867 753 864 753 q 874 756 871 754 q 894 781 889 761 q 900 840 900 801 q 900 979 901 896 q 899 1053 899 1015 l 897 1082 l 868 1082 q 642 1085 806 1082 q 353 1089 499 1088 q 129 1089 208 1090 l 115 1089 l 107 1076 q 103 1071 104 1075 q 100 1057 101 1067 q 97 1028 99 1047 q 95 977 96 1010 q 94 894 94 944 q 92 771 93 843 q 92 163 90 503 q 92 24 92 93 l 92 0 l 115 -4 q 119 -6 118 -6 q 136 -8 126 -7 q 167 -10 146 -10 q 231 -11 189 -11 q 347 -11 272 -11 m 851 292 l 851 292 q 862 289 858 292 q 867 278 865 286 q 870 253 869 271 q 871 203 871 235 q 869 121 871 171 q 868 19 869 78 q 605 18 717 18 q 415 18 493 18 q 287 18 338 18 q 207 18 236 18 q 163 19 178 18 q 140 21 147 19 q 126 24 132 22 q 121 24 124 24 q 121 163 121 93 q 122 770 121 504 q 131 1060 124 1036 q 354 1060 210 1061 q 642 1056 499 1058 q 868 1053 806 1053 q 869 979 868 1014 q 870 842 871 896 q 861 782 869 788 q 776 776 847 778 q 622 774 704 775 q 489 774 539 774 q 475 774 481 774 l 475 642 q 544 642 513 642 q 666 641 625 642 q 719 633 707 640 q 735 601 733 628 q 735 519 738 574 q 732 460 733 493 l 475 460 l 475 297 q 514 297 488 297 q 640 297 567 297 q 774 297 713 297 q 851 292 835 296 m 529 1211 q 579 1214 557 1211 q 604 1224 601 1217 l 606 1231 q 591 1283 606 1249 q 554 1353 576 1318 q 485 1433 526 1394 q 410 1488 444 1472 q 374 1498 394 1494 q 335 1501 353 1501 q 299 1493 308 1501 l 299 1492 q 307 1472 299 1485 q 328 1443 315 1458 q 406 1296 389 1361 q 424 1247 414 1267 q 450 1219 435 1226 q 484 1213 463 1215 q 529 1211 506 1211 z "},"É":{"ha":989,"x_min":61,"x_max":931,"o":"m 928 -39 l 928 -39 l 860 -40 q 354 -40 514 -40 q 231 -40 275 -40 q 165 -40 188 -40 q 132 -37 142 -39 q 114 -35 122 -36 q 114 -35 114 -35 q 110 -33 111 -33 l 61 -24 l 61 24 q 61 163 61 93 q 63 771 61 503 q 65 976 63 906 q 68 1042 67 1019 q 73 1076 69 1065 q 82 1094 76 1086 l 100 1117 l 129 1118 q 353 1118 208 1119 q 643 1114 499 1117 q 868 1111 806 1111 l 928 1111 l 928 1054 q 929 981 929 1015 q 931 840 931 896 q 924 774 931 804 q 885 728 917 743 q 876 725 882 726 q 859 722 871 724 q 824 719 847 721 q 765 717 801 718 q 671 716 728 717 q 535 715 614 715 l 535 700 q 538 700 536 700 q 544 700 540 700 q 681 699 639 701 q 744 688 724 697 q 796 606 789 667 q 794 517 797 574 q 792 458 793 490 l 790 401 l 535 401 l 535 356 q 863 350 836 357 q 929 274 922 339 q 931 221 931 256 q 929 121 931 186 q 928 18 929 78 l 928 -39 m 347 -11 l 347 -11 q 860 -11 506 -11 l 897 -10 l 899 18 q 900 121 899 78 q 901 219 901 185 q 899 271 901 254 q 857 321 896 315 q 514 326 803 329 q 511 326 513 326 q 504 326 507 326 l 504 431 l 761 431 l 763 460 q 765 518 764 492 q 765 603 768 574 q 759 631 765 614 q 732 660 753 649 q 674 669 715 668 q 544 671 633 671 q 542 671 543 671 q 504 671 524 671 l 504 744 q 506 744 506 744 q 633 745 579 744 q 726 747 688 746 q 791 748 765 747 q 832 749 817 749 q 856 751 847 750 q 867 753 864 753 q 874 756 871 754 q 894 781 889 761 q 900 840 900 801 q 900 979 901 896 q 899 1053 899 1015 l 897 1082 l 868 1082 q 642 1085 806 1082 q 353 1089 499 1088 q 129 1089 208 1090 l 115 1089 l 107 1076 q 103 1071 104 1075 q 100 1057 101 1067 q 97 1028 99 1047 q 95 977 96 1010 q 94 894 94 944 q 92 771 93 843 q 92 163 90 503 q 92 24 92 93 l 92 0 l 115 -4 q 119 -6 118 -6 q 136 -8 126 -7 q 167 -10 146 -10 q 231 -11 189 -11 q 347 -11 272 -11 m 851 292 l 851 292 q 862 289 858 292 q 867 278 865 286 q 870 253 869 271 q 871 203 871 235 q 869 121 871 171 q 868 19 869 78 q 605 18 717 18 q 415 18 493 18 q 287 18 338 18 q 207 18 236 18 q 163 19 178 18 q 140 21 147 19 q 126 24 132 22 q 121 24 124 24 q 121 163 121 93 q 122 770 121 504 q 131 1060 124 1036 q 354 1060 210 1061 q 642 1056 499 1058 q 868 1053 806 1053 q 869 979 868 1014 q 870 842 871 896 q 861 782 869 788 q 776 776 847 778 q 622 774 704 775 q 489 774 539 774 q 475 774 481 774 l 475 642 q 544 642 513 642 q 666 641 625 642 q 719 633 707 640 q 735 601 733 628 q 735 519 738 574 q 732 460 733 493 l 475 460 l 475 297 q 514 297 488 297 q 640 297 567 297 q 774 297 713 297 q 851 292 835 296 m 364 1214 l 392 1217 q 517 1281 458 1226 q 603 1413 576 1336 q 618 1474 618 1454 q 582 1499 618 1501 q 508 1492 556 1499 q 485 1489 497 1490 q 360 1260 432 1329 q 340 1232 340 1246 l 342 1226 q 349 1217 344 1219 q 364 1214 354 1214 z "},"Ê":{"ha":989,"x_min":61,"x_max":931,"o":"m 928 -39 l 928 -39 l 860 -40 q 354 -40 514 -40 q 231 -40 275 -40 q 165 -40 188 -40 q 132 -37 142 -39 q 114 -35 122 -36 q 114 -35 114 -35 q 110 -33 111 -33 l 61 -24 l 61 24 q 61 163 61 93 q 63 771 61 503 q 65 976 63 906 q 68 1042 67 1019 q 73 1076 69 1065 q 82 1094 76 1086 l 100 1117 l 129 1118 q 353 1118 208 1119 q 643 1114 499 1117 q 868 1111 806 1111 l 928 1111 l 928 1054 q 929 981 929 1015 q 931 840 931 896 q 924 774 931 804 q 885 728 917 743 q 876 725 882 726 q 859 722 871 724 q 824 719 847 721 q 765 717 801 718 q 671 716 728 717 q 535 715 614 715 l 535 700 q 538 700 536 700 q 544 700 540 700 q 681 699 639 701 q 744 688 724 697 q 796 606 789 667 q 794 517 797 574 q 792 458 793 490 l 790 401 l 535 401 l 535 356 q 863 350 836 357 q 929 274 922 339 q 931 221 931 256 q 929 121 931 186 q 928 18 929 78 l 928 -39 m 347 -11 l 347 -11 q 860 -11 506 -11 l 897 -10 l 899 18 q 900 121 899 78 q 901 219 901 185 q 899 271 901 254 q 857 321 896 315 q 514 326 803 329 q 511 326 513 326 q 504 326 507 326 l 504 431 l 761 431 l 763 460 q 765 518 764 492 q 765 603 768 574 q 759 631 765 614 q 732 660 753 649 q 674 669 715 668 q 544 671 633 671 q 542 671 543 671 q 504 671 524 671 l 504 744 q 506 744 506 744 q 633 745 579 744 q 726 747 688 746 q 791 748 765 747 q 832 749 817 749 q 856 751 847 750 q 867 753 864 753 q 874 756 871 754 q 894 781 889 761 q 900 840 900 801 q 900 979 901 896 q 899 1053 899 1015 l 897 1082 l 868 1082 q 642 1085 806 1082 q 353 1089 499 1088 q 129 1089 208 1090 l 115 1089 l 107 1076 q 103 1071 104 1075 q 100 1057 101 1067 q 97 1028 99 1047 q 95 977 96 1010 q 94 894 94 944 q 92 771 93 843 q 92 163 90 503 q 92 24 92 93 l 92 0 l 115 -4 q 119 -6 118 -6 q 136 -8 126 -7 q 167 -10 146 -10 q 231 -11 189 -11 q 347 -11 272 -11 m 851 292 l 851 292 q 862 289 858 292 q 867 278 865 286 q 870 253 869 271 q 871 203 871 235 q 869 121 871 171 q 868 19 869 78 q 605 18 717 18 q 415 18 493 18 q 287 18 338 18 q 207 18 236 18 q 163 19 178 18 q 140 21 147 19 q 126 24 132 22 q 121 24 124 24 q 121 163 121 93 q 122 770 121 504 q 131 1060 124 1036 q 354 1060 210 1061 q 642 1056 499 1058 q 868 1053 806 1053 q 869 979 868 1014 q 870 842 871 896 q 861 782 869 788 q 776 776 847 778 q 622 774 704 775 q 489 774 539 774 q 475 774 481 774 l 475 642 q 544 642 513 642 q 666 641 625 642 q 719 633 707 640 q 735 601 733 628 q 735 519 738 574 q 732 460 733 493 l 475 460 l 475 297 q 514 297 488 297 q 640 297 567 297 q 774 297 713 297 q 851 292 835 296 m 336 1228 q 356 1229 347 1228 q 364 1235 364 1231 q 382 1259 364 1238 q 424 1307 400 1281 q 467 1353 449 1333 q 490 1378 486 1374 q 518 1342 504 1360 q 579 1264 551 1297 q 619 1231 607 1231 l 622 1231 q 638 1235 629 1233 q 654 1236 647 1236 q 667 1239 661 1236 q 672 1246 672 1242 q 642 1292 672 1251 q 574 1378 611 1332 q 513 1457 538 1425 q 493 1481 496 1476 q 450 1436 471 1457 q 325 1304 369 1353 q 281 1242 281 1256 l 282 1239 q 303 1231 288 1233 q 336 1228 319 1228 z "},"Ë":{"ha":989,"x_min":61,"x_max":931,"o":"m 928 -39 l 928 -39 l 860 -40 q 354 -40 514 -40 q 231 -40 275 -40 q 165 -40 188 -40 q 132 -37 142 -39 q 114 -35 122 -36 q 114 -35 114 -35 q 110 -33 111 -33 l 61 -24 l 61 24 q 61 163 61 93 q 63 771 61 503 q 65 976 63 906 q 68 1042 67 1019 q 73 1076 69 1065 q 82 1094 76 1086 l 100 1117 l 129 1118 q 353 1118 208 1119 q 643 1114 499 1117 q 868 1111 806 1111 l 928 1111 l 928 1054 q 929 981 929 1015 q 931 840 931 896 q 924 774 931 804 q 885 728 917 743 q 876 725 882 726 q 859 722 871 724 q 824 719 847 721 q 765 717 801 718 q 671 716 728 717 q 535 715 614 715 l 535 700 q 538 700 536 700 q 544 700 540 700 q 681 699 639 701 q 744 688 724 697 q 796 606 789 667 q 794 517 797 574 q 792 458 793 490 l 790 401 l 535 401 l 535 356 q 863 350 836 357 q 929 274 922 339 q 931 221 931 256 q 929 121 931 186 q 928 18 929 78 l 928 -39 m 347 -11 l 347 -11 q 860 -11 506 -11 l 897 -10 l 899 18 q 900 121 899 78 q 901 219 901 185 q 899 271 901 254 q 857 321 896 315 q 514 326 803 329 q 511 326 513 326 q 504 326 507 326 l 504 431 l 761 431 l 763 460 q 765 518 764 492 q 765 603 768 574 q 759 631 765 614 q 732 660 753 649 q 674 669 715 668 q 544 671 633 671 q 542 671 543 671 q 504 671 524 671 l 504 744 q 506 744 506 744 q 633 745 579 744 q 726 747 688 746 q 791 748 765 747 q 832 749 817 749 q 856 751 847 750 q 867 753 864 753 q 874 756 871 754 q 894 781 889 761 q 900 840 900 801 q 900 979 901 896 q 899 1053 899 1015 l 897 1082 l 868 1082 q 642 1085 806 1082 q 353 1089 499 1088 q 129 1089 208 1090 l 115 1089 l 107 1076 q 103 1071 104 1075 q 100 1057 101 1067 q 97 1028 99 1047 q 95 977 96 1010 q 94 894 94 944 q 92 771 93 843 q 92 163 90 503 q 92 24 92 93 l 92 0 l 115 -4 q 119 -6 118 -6 q 136 -8 126 -7 q 167 -10 146 -10 q 231 -11 189 -11 q 347 -11 272 -11 m 851 292 l 851 292 q 862 289 858 292 q 867 278 865 286 q 870 253 869 271 q 871 203 871 235 q 869 121 871 171 q 868 19 869 78 q 605 18 717 18 q 415 18 493 18 q 287 18 338 18 q 207 18 236 18 q 163 19 178 18 q 140 21 147 19 q 126 24 132 22 q 121 24 124 24 q 121 163 121 93 q 122 770 121 504 q 131 1060 124 1036 q 354 1060 210 1061 q 642 1056 499 1058 q 868 1053 806 1053 q 869 979 868 1014 q 870 842 871 896 q 861 782 869 788 q 776 776 847 778 q 622 774 704 775 q 489 774 539 774 q 475 774 481 774 l 475 642 q 544 642 513 642 q 666 641 625 642 q 719 633 707 640 q 735 601 733 628 q 735 519 738 574 q 732 460 733 493 l 475 460 l 475 297 q 514 297 488 297 q 640 297 567 297 q 774 297 713 297 q 851 292 835 296 m 589 1276 q 640 1300 614 1276 q 671 1363 671 1329 q 646 1411 671 1392 q 606 1424 626 1424 q 547 1397 572 1424 q 521 1342 521 1371 q 544 1294 521 1315 q 589 1276 567 1276 m 392 1281 q 443 1304 417 1281 q 474 1367 474 1333 q 449 1415 474 1396 q 408 1428 429 1428 q 349 1401 375 1428 q 324 1346 324 1375 q 347 1299 324 1319 q 392 1281 369 1281 z "},"Ì":{"ha":1035,"x_min":47,"x_max":1001,"o":"m 425 -31 l 425 -31 q 174 -26 231 -31 q 93 -7 124 -25 q 63 24 71 7 q 54 51 56 40 l 54 53 q 49 117 50 72 q 49 261 49 161 l 49 360 l 307 365 l 311 714 l 49 714 l 49 771 q 49 836 49 806 q 51 1025 47 988 q 56 1053 51 1036 q 74 1087 60 1071 q 117 1108 88 1103 l 119 1110 q 885 1104 183 1118 q 899 1104 894 1104 q 935 1096 918 1106 q 966 1053 960 1082 q 972 971 972 1024 q 974 822 974 900 q 972 771 972 794 l 972 714 l 726 714 q 721 590 722 663 q 721 363 719 517 l 1001 363 l 982 290 q 972 92 969 250 q 972 28 972 63 l 972 -29 l 913 -29 q 593 -31 725 -29 q 425 -31 497 -31 m 83 57 l 83 57 q 90 37 85 47 q 108 17 94 26 q 176 3 126 6 q 425 -1 231 -1 q 592 -1 496 -1 q 593 -1 592 -1 q 913 -1 725 -1 l 943 -1 l 943 28 q 943 92 943 63 q 944 225 942 178 q 953 297 946 272 l 963 333 l 690 333 l 690 360 q 690 546 690 478 q 692 657 690 614 q 699 743 694 700 l 943 743 l 943 771 q 943 822 943 794 q 943 969 943 900 q 940 1029 942 1008 q 933 1058 938 1050 q 919 1071 928 1067 q 900 1076 910 1076 q 890 1076 897 1076 q 883 1076 888 1076 q 402 1083 631 1081 q 124 1081 174 1085 l 122 1081 q 90 1059 97 1075 q 81 1024 82 1043 q 78 836 78 986 q 78 771 78 806 l 78 743 l 342 743 l 336 336 l 78 332 l 78 261 q 78 119 78 164 q 83 58 79 75 l 83 57 m 913 28 l 913 28 q 593 26 725 28 q 362 26 451 26 q 222 28 272 26 q 149 34 171 31 q 120 44 126 38 q 113 63 114 51 q 113 64 113 63 q 109 124 110 79 q 108 261 108 168 q 108 304 108 281 l 367 308 l 371 771 l 108 771 q 108 836 108 806 q 108 938 108 897 q 109 1001 108 978 q 112 1034 110 1024 q 118 1048 114 1044 q 128 1053 122 1051 q 324 1055 165 1056 q 649 1051 482 1054 q 883 1047 817 1049 q 903 1047 901 1047 q 910 1014 908 1049 q 913 927 913 979 q 913 822 914 875 q 913 771 913 794 l 671 771 q 663 674 665 719 q 660 558 661 629 q 660 360 660 488 q 660 304 660 335 l 924 304 q 914 228 915 276 q 913 92 913 179 q 913 28 913 63 m 569 1217 q 619 1219 597 1217 q 644 1229 642 1222 l 646 1236 q 631 1289 646 1254 q 594 1358 617 1324 q 526 1439 567 1400 q 450 1493 485 1478 q 414 1503 435 1500 q 375 1507 393 1507 q 339 1499 349 1507 l 339 1497 q 347 1477 339 1490 q 368 1449 356 1464 q 446 1301 429 1367 q 465 1252 454 1272 q 490 1225 475 1232 q 524 1219 503 1221 q 569 1217 546 1217 z "},"Í":{"ha":1035,"x_min":47,"x_max":1001,"o":"m 425 -31 l 425 -31 q 174 -26 231 -31 q 93 -7 124 -25 q 63 24 71 7 q 54 51 56 40 l 54 53 q 49 117 50 72 q 49 261 49 161 l 49 360 l 307 365 l 311 714 l 49 714 l 49 771 q 49 836 49 806 q 51 1025 47 988 q 56 1053 51 1036 q 74 1087 60 1071 q 117 1108 88 1103 l 119 1110 q 885 1104 183 1118 q 899 1104 894 1104 q 935 1096 918 1106 q 966 1053 960 1082 q 972 971 972 1024 q 974 822 974 900 q 972 771 972 794 l 972 714 l 726 714 q 721 590 722 663 q 721 363 719 517 l 1001 363 l 982 290 q 972 92 969 250 q 972 28 972 63 l 972 -29 l 913 -29 q 593 -31 725 -29 q 425 -31 497 -31 m 83 57 l 83 57 q 90 37 85 47 q 108 17 94 26 q 176 3 126 6 q 425 -1 231 -1 q 592 -1 496 -1 q 593 -1 592 -1 q 913 -1 725 -1 l 943 -1 l 943 28 q 943 92 943 63 q 944 225 942 178 q 953 297 946 272 l 963 333 l 690 333 l 690 360 q 690 546 690 478 q 692 657 690 614 q 699 743 694 700 l 943 743 l 943 771 q 943 822 943 794 q 943 969 943 900 q 940 1029 942 1008 q 933 1058 938 1050 q 919 1071 928 1067 q 900 1076 910 1076 q 890 1076 897 1076 q 883 1076 888 1076 q 402 1083 631 1081 q 124 1081 174 1085 l 122 1081 q 90 1059 97 1075 q 81 1024 82 1043 q 78 836 78 986 q 78 771 78 806 l 78 743 l 342 743 l 336 336 l 78 332 l 78 261 q 78 119 78 164 q 83 58 79 75 l 83 57 m 913 28 l 913 28 q 593 26 725 28 q 362 26 451 26 q 222 28 272 26 q 149 34 171 31 q 120 44 126 38 q 113 63 114 51 q 113 64 113 63 q 109 124 110 79 q 108 261 108 168 q 108 304 108 281 l 367 308 l 371 771 l 108 771 q 108 836 108 806 q 108 938 108 897 q 109 1001 108 978 q 112 1034 110 1024 q 118 1048 114 1044 q 128 1053 122 1051 q 324 1055 165 1056 q 649 1051 482 1054 q 883 1047 817 1049 q 903 1047 901 1047 q 910 1014 908 1049 q 913 927 913 979 q 913 822 914 875 q 913 771 913 794 l 671 771 q 663 674 665 719 q 660 558 661 629 q 660 360 660 488 q 660 304 660 335 l 924 304 q 914 228 915 276 q 913 92 913 179 q 913 28 913 63 m 378 1225 l 406 1228 q 531 1292 472 1238 q 617 1424 590 1347 q 632 1485 632 1465 q 596 1510 632 1513 q 522 1503 569 1510 q 499 1500 511 1501 q 374 1271 446 1340 q 354 1243 354 1257 l 356 1238 q 363 1228 358 1231 q 378 1225 368 1225 z "},"Î":{"ha":1035,"x_min":47,"x_max":1001,"o":"m 425 -31 l 425 -31 q 174 -26 231 -31 q 93 -7 124 -25 q 63 24 71 7 q 54 51 56 40 l 54 53 q 49 117 50 72 q 49 261 49 161 l 49 360 l 307 365 l 311 714 l 49 714 l 49 771 q 49 836 49 806 q 51 1025 47 988 q 56 1053 51 1036 q 74 1087 60 1071 q 117 1108 88 1103 l 119 1110 q 885 1104 183 1118 q 899 1104 894 1104 q 935 1096 918 1106 q 966 1053 960 1082 q 972 971 972 1024 q 974 822 974 900 q 972 771 972 794 l 972 714 l 726 714 q 721 590 722 663 q 721 363 719 517 l 1001 363 l 982 290 q 972 92 969 250 q 972 28 972 63 l 972 -29 l 913 -29 q 593 -31 725 -29 q 425 -31 497 -31 m 83 57 l 83 57 q 90 37 85 47 q 108 17 94 26 q 176 3 126 6 q 425 -1 231 -1 q 592 -1 496 -1 q 593 -1 592 -1 q 913 -1 725 -1 l 943 -1 l 943 28 q 943 92 943 63 q 944 225 942 178 q 953 297 946 272 l 963 333 l 690 333 l 690 360 q 690 546 690 478 q 692 657 690 614 q 699 743 694 700 l 943 743 l 943 771 q 943 822 943 794 q 943 969 943 900 q 940 1029 942 1008 q 933 1058 938 1050 q 919 1071 928 1067 q 900 1076 910 1076 q 890 1076 897 1076 q 883 1076 888 1076 q 402 1083 631 1081 q 124 1081 174 1085 l 122 1081 q 90 1059 97 1075 q 81 1024 82 1043 q 78 836 78 986 q 78 771 78 806 l 78 743 l 342 743 l 336 336 l 78 332 l 78 261 q 78 119 78 164 q 83 58 79 75 l 83 57 m 913 28 l 913 28 q 593 26 725 28 q 362 26 451 26 q 222 28 272 26 q 149 34 171 31 q 120 44 126 38 q 113 63 114 51 q 113 64 113 63 q 109 124 110 79 q 108 261 108 168 q 108 304 108 281 l 367 308 l 371 771 l 108 771 q 108 836 108 806 q 108 938 108 897 q 109 1001 108 978 q 112 1034 110 1024 q 118 1048 114 1044 q 128 1053 122 1051 q 324 1055 165 1056 q 649 1051 482 1054 q 883 1047 817 1049 q 903 1047 901 1047 q 910 1014 908 1049 q 913 927 913 979 q 913 822 914 875 q 913 771 913 794 l 671 771 q 663 674 665 719 q 660 558 661 629 q 660 360 660 488 q 660 304 660 335 l 924 304 q 914 228 915 276 q 913 92 913 179 q 913 28 913 63 m 375 1256 q 394 1257 386 1256 q 403 1263 403 1258 q 421 1287 403 1265 q 463 1335 439 1308 q 506 1381 488 1361 q 529 1406 525 1401 q 557 1369 543 1388 q 618 1292 590 1325 q 658 1258 646 1258 l 661 1258 q 677 1263 668 1261 q 693 1264 686 1264 q 706 1267 700 1264 q 711 1274 711 1269 q 681 1319 711 1279 q 613 1406 650 1360 q 551 1485 576 1453 q 532 1508 535 1504 q 489 1464 510 1485 q 364 1332 408 1381 q 319 1269 319 1283 l 321 1267 q 342 1258 326 1261 q 375 1256 358 1256 z "},"Ï":{"ha":1035,"x_min":47,"x_max":1001,"o":"m 425 -31 l 425 -31 q 174 -26 231 -31 q 93 -7 124 -25 q 63 24 71 7 q 54 51 56 40 l 54 53 q 49 117 50 72 q 49 261 49 161 l 49 360 l 307 365 l 311 714 l 49 714 l 49 771 q 49 836 49 806 q 51 1025 47 988 q 56 1053 51 1036 q 74 1087 60 1071 q 117 1108 88 1103 l 119 1110 q 885 1104 183 1118 q 899 1104 894 1104 q 935 1096 918 1106 q 966 1053 960 1082 q 972 971 972 1024 q 974 822 974 900 q 972 771 972 794 l 972 714 l 726 714 q 721 590 722 663 q 721 363 719 517 l 1001 363 l 982 290 q 972 92 969 250 q 972 28 972 63 l 972 -29 l 913 -29 q 593 -31 725 -29 q 425 -31 497 -31 m 83 57 l 83 57 q 90 37 85 47 q 108 17 94 26 q 176 3 126 6 q 425 -1 231 -1 q 592 -1 496 -1 q 593 -1 592 -1 q 913 -1 725 -1 l 943 -1 l 943 28 q 943 92 943 63 q 944 225 942 178 q 953 297 946 272 l 963 333 l 690 333 l 690 360 q 690 546 690 478 q 692 657 690 614 q 699 743 694 700 l 943 743 l 943 771 q 943 822 943 794 q 943 969 943 900 q 940 1029 942 1008 q 933 1058 938 1050 q 919 1071 928 1067 q 900 1076 910 1076 q 890 1076 897 1076 q 883 1076 888 1076 q 402 1083 631 1081 q 124 1081 174 1085 l 122 1081 q 90 1059 97 1075 q 81 1024 82 1043 q 78 836 78 986 q 78 771 78 806 l 78 743 l 342 743 l 336 336 l 78 332 l 78 261 q 78 119 78 164 q 83 58 79 75 l 83 57 m 913 28 l 913 28 q 593 26 725 28 q 362 26 451 26 q 222 28 272 26 q 149 34 171 31 q 120 44 126 38 q 113 63 114 51 q 113 64 113 63 q 109 124 110 79 q 108 261 108 168 q 108 304 108 281 l 367 308 l 371 771 l 108 771 q 108 836 108 806 q 108 938 108 897 q 109 1001 108 978 q 112 1034 110 1024 q 118 1048 114 1044 q 128 1053 122 1051 q 324 1055 165 1056 q 649 1051 482 1054 q 883 1047 817 1049 q 903 1047 901 1047 q 910 1014 908 1049 q 913 927 913 979 q 913 822 914 875 q 913 771 913 794 l 671 771 q 663 674 665 719 q 660 558 661 629 q 660 360 660 488 q 660 304 660 335 l 924 304 q 914 228 915 276 q 913 92 913 179 q 913 28 913 63 m 611 1293 q 663 1317 636 1293 q 693 1379 693 1346 q 668 1428 693 1408 q 628 1440 649 1440 q 569 1414 594 1440 q 543 1358 543 1388 q 567 1311 543 1332 q 611 1293 589 1293 m 414 1297 q 465 1321 439 1297 q 496 1383 496 1350 q 471 1432 496 1413 q 431 1444 451 1444 q 372 1418 397 1444 q 346 1363 346 1392 q 369 1315 346 1336 q 414 1297 392 1297 z "},"Ð":{"ha":1061,"x_min":-54,"x_max":1039,"o":"m 488 381 q 592 424 546 385 q 639 526 639 463 q 526 693 639 631 q 478 713 499 706 q 488 381 486 511 m 475 350 l 457 351 q 446 751 457 507 q 539 721 476 749 q 668 526 668 647 q 608 398 668 444 q 475 350 549 351 m 474 319 q 629 377 560 319 q 699 526 699 435 q 663 649 699 590 q 551 747 626 708 q 428 785 461 785 q 415 786 419 785 l 415 765 q 426 324 426 538 l 474 319 m 153 514 q 156 206 153 335 q 158 124 157 156 q 160 72 158 92 q 163 43 161 53 q 165 29 164 33 q 168 22 167 25 q 171 14 169 18 q 181 8 175 13 q 207 0 188 4 q 272 -4 226 -4 q 514 21 413 -4 q 858 210 729 83 q 1008 550 1008 358 q 944 778 1008 669 q 713 994 867 911 q 299 1088 544 1088 q 171 1075 196 1088 q 164 1064 169 1071 q 153 628 154 1050 l 182 628 q 193 1053 183 1019 q 299 1057 203 1057 q 488 1041 389 1057 q 697 968 588 1025 q 961 667 907 850 q 979 549 979 607 q 885 283 979 428 q 506 50 792 138 q 272 25 406 25 q 194 35 211 25 q 182 514 182 81 l 153 514 m 122 628 q 136 1071 124 1026 l 149 1097 q 190 1114 181 1113 q 288 1118 224 1118 q 481 1103 369 1118 q 726 1021 592 1089 q 971 793 888 933 q 1039 549 1039 676 q 888 197 1039 353 q 521 -8 751 58 q 272 -35 410 -35 q 164 -17 189 -35 l 149 -7 l 140 10 q 122 514 122 36 l 72 514 q 7 515 31 514 q -28 519 -17 517 q -44 524 -40 521 q -49 532 -47 526 q -54 579 -54 554 q -50 614 -54 601 q 122 628 -35 624 z "}}}
